<mxfile host="drawio-plugin" modified="2023-07-23T21:03:36.400Z" agent="5.0 (Windows NT 6.2; Win64; x64) AppleWebKit/537.36 (KHTML, like Gecko) Chrome/87.0.4280.141 Safari/537.36" etag="YUBnF0iHBXVeut8dZfRT" version="13.7.9" type="embed"><diagram id="lMCECdiOliHJ0kIxP1SO" name="Page-1"><mxGraphModel dx="1838" dy="-14585" grid="0" gridSize="10" guides="1" tooltips="1" connect="1" arrows="1" fold="1" page="0" pageScale="1" pageWidth="850" pageHeight="1100" background="#ffffff" math="0" shadow="0"><root><mxCell id="0"/><mxCell id="1" parent="0"/><mxCell id="26" value="" style="group;direction=east;rotation=0;fillColor=#dae8fc;strokeColor=#6c8ebf;fontColor=#1A1A1A;sketch=1;shadow=0;" parent="1" vertex="1" connectable="0"><mxGeometry x="181.5" y="16588" width="56.5" height="53" as="geometry"/></mxCell><mxCell id="15" value="5" style="rounded=0;whiteSpace=wrap;html=1;sketch=1;fillColor=#dae8fc;strokeColor=#6c8ebf;fontSize=20;fontStyle=1;direction=east;rotation=0;fontColor=#1A1A1A;shadow=0;" parent="26" vertex="1"><mxGeometry width="56.49999999999998" height="53" as="geometry"/></mxCell><mxCell id="38" value="" style="group;direction=east;rotation=0;fillColor=#dae8fc;strokeColor=#6c8ebf;fontColor=#1A1A1A;sketch=1;shadow=0;" parent="1" vertex="1" connectable="0"><mxGeometry x="238" y="16588" width="56.5" height="53" as="geometry"/></mxCell><mxCell id="39" value="4" style="rounded=0;whiteSpace=wrap;html=1;sketch=1;fillColor=#dae8fc;strokeColor=#6c8ebf;fontSize=20;fontStyle=1;direction=east;rotation=0;fontColor=#1A1A1A;shadow=0;" parent="38" vertex="1"><mxGeometry width="56.49999999999998" height="53" as="geometry"/></mxCell><mxCell id="40" value="" style="group;direction=east;rotation=0;fillColor=#dae8fc;strokeColor=#6c8ebf;fontColor=#1A1A1A;sketch=1;shadow=0;" parent="1" vertex="1" connectable="0"><mxGeometry x="294.5" y="16588" width="56.5" height="53" as="geometry"/></mxCell><mxCell id="41" value="7" style="rounded=0;whiteSpace=wrap;html=1;sketch=1;fillColor=#dae8fc;strokeColor=#6c8ebf;fontSize=20;fontStyle=1;direction=east;rotation=0;fontColor=#1A1A1A;shadow=0;" parent="40" vertex="1"><mxGeometry width="56.49999999999998" height="53" as="geometry"/></mxCell><mxCell id="42" value="" style="group;direction=east;rotation=0;fillColor=#dae8fc;strokeColor=#6c8ebf;fontColor=#1A1A1A;sketch=1;shadow=0;" parent="1" vertex="1" connectable="0"><mxGeometry x="351" y="16588" width="56.5" height="53" as="geometry"/></mxCell><mxCell id="43" value="1" style="rounded=0;whiteSpace=wrap;html=1;sketch=1;fillColor=#dae8fc;strokeColor=#6c8ebf;fontSize=20;fontStyle=1;direction=east;rotation=0;fontColor=#1A1A1A;shadow=0;" parent="42" vertex="1"><mxGeometry width="56.49999999999998" height="53" as="geometry"/></mxCell><mxCell id="46" value="" style="group;direction=east;rotation=0;fillColor=#dae8fc;strokeColor=#6c8ebf;fontColor=#1A1A1A;sketch=1;shadow=0;" parent="1" vertex="1" connectable="0"><mxGeometry x="464" y="16588" width="56.5" height="53" as="geometry"/></mxCell><mxCell id="47" value="2" style="rounded=0;whiteSpace=wrap;html=1;sketch=1;fillColor=#dae8fc;strokeColor=#6c8ebf;fontSize=20;fontStyle=1;direction=east;rotation=0;fontColor=#1A1A1A;shadow=0;" parent="46" vertex="1"><mxGeometry width="56.49999999999998" height="53" as="geometry"/></mxCell><mxCell id="50" value="" style="group;direction=east;rotation=0;fillColor=#dae8fc;strokeColor=#6c8ebf;fontColor=#1A1A1A;sketch=1;shadow=0;" parent="1" vertex="1" connectable="0"><mxGeometry x="577" y="16588" width="56.5" height="53" as="geometry"/></mxCell><mxCell id="51" value="6" style="rounded=0;whiteSpace=wrap;html=1;sketch=1;fillColor=#dae8fc;strokeColor=#6c8ebf;fontSize=20;fontStyle=1;direction=east;rotation=0;fontColor=#1A1A1A;shadow=0;" parent="50" vertex="1"><mxGeometry width="56.49999999999998" height="53" as="geometry"/></mxCell><mxCell id="52" value="" style="group;direction=east;rotation=0;fillColor=#dae8fc;strokeColor=#6c8ebf;fontColor=#1A1A1A;sketch=1;shadow=0;" parent="1" vertex="1" connectable="0"><mxGeometry x="407.5" y="16588" width="56.5" height="53" as="geometry"/></mxCell><mxCell id="53" value="3" style="rounded=0;whiteSpace=wrap;html=1;sketch=1;fillColor=#dae8fc;strokeColor=#6c8ebf;fontSize=20;fontStyle=1;direction=east;rotation=0;fontColor=#1A1A1A;shadow=0;" parent="52" vertex="1"><mxGeometry width="56.49999999999998" height="53" as="geometry"/></mxCell><mxCell id="54" value="" style="group;direction=east;rotation=0;fillColor=#dae8fc;strokeColor=#6c8ebf;fontColor=#1A1A1A;sketch=1;shadow=0;" parent="1" vertex="1" connectable="0"><mxGeometry x="520.5" y="16588" width="56.5" height="53" as="geometry"/></mxCell><mxCell id="55" value="8" style="rounded=0;whiteSpace=wrap;html=1;sketch=1;fillColor=#dae8fc;strokeColor=#6c8ebf;fontSize=20;fontStyle=1;direction=east;rotation=0;fontColor=#1A1A1A;shadow=0;" parent="54" vertex="1"><mxGeometry width="56.49999999999998" height="53" as="geometry"/></mxCell><mxCell id="56" value="" style="group;direction=east;rotation=0;fillColor=#dae8fc;strokeColor=#6c8ebf;fontColor=#1A1A1A;sketch=1;shadow=0;" parent="1" vertex="1" connectable="0"><mxGeometry x="102.5" y="16683" width="56.5" height="53" as="geometry"/></mxCell><mxCell id="57" value="5" style="rounded=0;whiteSpace=wrap;html=1;sketch=1;fillColor=#dae8fc;strokeColor=#6c8ebf;fontSize=20;fontStyle=1;direction=east;rotation=0;fontColor=#1A1A1A;shadow=0;" parent="56" vertex="1"><mxGeometry width="56.49999999999998" height="53" as="geometry"/></mxCell><mxCell id="58" value="" style="group;direction=east;rotation=0;fillColor=#dae8fc;strokeColor=#6c8ebf;fontColor=#1A1A1A;sketch=1;shadow=0;" parent="1" vertex="1" connectable="0"><mxGeometry x="159" y="16683" width="56.5" height="53" as="geometry"/></mxCell><mxCell id="59" value="4" style="rounded=0;whiteSpace=wrap;html=1;sketch=1;fillColor=#dae8fc;strokeColor=#6c8ebf;fontSize=20;fontStyle=1;direction=east;rotation=0;fontColor=#1A1A1A;shadow=0;" parent="58" vertex="1"><mxGeometry width="56.49999999999998" height="53" as="geometry"/></mxCell><mxCell id="60" value="" style="group;direction=east;rotation=0;fillColor=#dae8fc;strokeColor=#6c8ebf;fontColor=#1A1A1A;sketch=1;shadow=0;" parent="1" vertex="1" connectable="0"><mxGeometry x="215.5" y="16683" width="56.5" height="53" as="geometry"/></mxCell><mxCell id="61" value="7" style="rounded=0;whiteSpace=wrap;html=1;sketch=1;fillColor=#dae8fc;strokeColor=#6c8ebf;fontSize=20;fontStyle=1;direction=east;rotation=0;fontColor=#1A1A1A;shadow=0;" parent="60" vertex="1"><mxGeometry width="56.49999999999998" height="53" as="geometry"/></mxCell><mxCell id="62" value="" style="group;direction=east;rotation=0;fillColor=#dae8fc;strokeColor=#6c8ebf;fontColor=#1A1A1A;sketch=1;shadow=0;" parent="1" vertex="1" connectable="0"><mxGeometry x="272" y="16683" width="56.5" height="53" as="geometry"/></mxCell><mxCell id="63" value="1" style="rounded=0;whiteSpace=wrap;html=1;sketch=1;fillColor=#dae8fc;strokeColor=#6c8ebf;fontSize=20;fontStyle=1;direction=east;rotation=0;fontColor=#1A1A1A;shadow=0;" parent="62" vertex="1"><mxGeometry width="56.49999999999998" height="53" as="geometry"/></mxCell><mxCell id="72" value="" style="group;direction=east;rotation=0;fillColor=#dae8fc;strokeColor=#6c8ebf;fontColor=#1A1A1A;sketch=1;shadow=0;" parent="1" vertex="1" connectable="0"><mxGeometry x="68.5" y="16779" width="56.5" height="53" as="geometry"/></mxCell><mxCell id="73" value="5" style="rounded=0;whiteSpace=wrap;html=1;sketch=1;fillColor=#dae8fc;strokeColor=#6c8ebf;fontSize=20;fontStyle=1;direction=east;rotation=0;fontColor=#1A1A1A;shadow=0;" parent="72" vertex="1"><mxGeometry width="56.49999999999998" height="53" as="geometry"/></mxCell><mxCell id="74" value="" style="group;direction=east;rotation=0;fillColor=#dae8fc;strokeColor=#6c8ebf;fontColor=#1A1A1A;sketch=1;shadow=0;" parent="1" vertex="1" connectable="0"><mxGeometry x="125" y="16779" width="56.5" height="53" as="geometry"/></mxCell><mxCell id="75" value="4" style="rounded=0;whiteSpace=wrap;html=1;sketch=1;fillColor=#dae8fc;strokeColor=#6c8ebf;fontSize=20;fontStyle=1;direction=east;rotation=0;fontColor=#1A1A1A;shadow=0;" parent="74" vertex="1"><mxGeometry width="56.49999999999998" height="53" as="geometry"/></mxCell><mxCell id="76" value="" style="group;direction=east;rotation=0;fillColor=#dae8fc;strokeColor=#6c8ebf;fontColor=#1A1A1A;sketch=1;shadow=0;" parent="1" vertex="1" connectable="0"><mxGeometry x="243.75" y="16779" width="56.5" height="53" as="geometry"/></mxCell><mxCell id="77" value="7" style="rounded=0;whiteSpace=wrap;html=1;sketch=1;fillColor=#dae8fc;strokeColor=#6c8ebf;fontSize=20;fontStyle=1;direction=east;rotation=0;fontColor=#1A1A1A;shadow=0;" parent="76" vertex="1"><mxGeometry width="56.49999999999998" height="53" as="geometry"/></mxCell><mxCell id="78" value="" style="group;direction=east;rotation=0;fillColor=#dae8fc;strokeColor=#6c8ebf;fontColor=#1A1A1A;sketch=1;shadow=0;" parent="1" vertex="1" connectable="0"><mxGeometry x="300.25" y="16779" width="56.5" height="53" as="geometry"/></mxCell><mxCell id="79" value="1" style="rounded=0;whiteSpace=wrap;html=1;sketch=1;fillColor=#dae8fc;strokeColor=#6c8ebf;fontSize=20;fontStyle=1;direction=east;rotation=0;fontColor=#1A1A1A;shadow=0;" parent="78" vertex="1"><mxGeometry width="56.49999999999998" height="53" as="geometry"/></mxCell><mxCell id="80" value="" style="group;direction=east;rotation=0;fillColor=#ffe6cc;strokeColor=#d79b00;fontColor=#1A1A1A;fontStyle=1;fontFamily=Helvetica;sketch=1;shadow=0;" parent="1" vertex="1" connectable="0"><mxGeometry x="39" y="16860" width="56.5" height="53" as="geometry"/></mxCell><mxCell id="81" value="5" style="rounded=0;whiteSpace=wrap;html=1;sketch=1;fillColor=#ffe6cc;strokeColor=#d79b00;fontSize=20;fontStyle=1;direction=east;rotation=0;fontColor=#1A1A1A;fontFamily=Helvetica;shadow=0;" parent="80" vertex="1"><mxGeometry width="56.49999999999998" height="53" as="geometry"/></mxCell><mxCell id="82" value="" style="group;direction=east;rotation=0;fillColor=#ffe6cc;strokeColor=#d79b00;fontColor=#1A1A1A;fontStyle=1;fontFamily=Helvetica;sketch=1;shadow=0;" parent="1" vertex="1" connectable="0"><mxGeometry x="142" y="16860" width="56.5" height="53" as="geometry"/></mxCell><mxCell id="83" value="4" style="rounded=0;whiteSpace=wrap;html=1;sketch=1;fillColor=#ffe6cc;strokeColor=#d79b00;fontSize=20;fontStyle=1;direction=east;rotation=0;fontColor=#1A1A1A;fontFamily=Helvetica;shadow=0;" parent="82" vertex="1"><mxGeometry width="56.49999999999998" height="53" as="geometry"/></mxCell><mxCell id="84" value="" style="group;direction=east;rotation=0;fillColor=#ffe6cc;strokeColor=#d79b00;fontColor=#1A1A1A;fontStyle=1;fontFamily=Helvetica;sketch=1;shadow=0;" parent="1" vertex="1" connectable="0"><mxGeometry x="215.5" y="16862" width="56.5" height="53" as="geometry"/></mxCell><mxCell id="85" value="7" style="rounded=0;whiteSpace=wrap;html=1;sketch=1;fillColor=#ffe6cc;strokeColor=#d79b00;fontSize=20;fontStyle=1;direction=east;rotation=0;fontColor=#1A1A1A;fontFamily=Helvetica;shadow=0;" parent="84" vertex="1"><mxGeometry width="56.49999999999998" height="53" as="geometry"/></mxCell><mxCell id="86" value="" style="group;direction=east;rotation=0;fillColor=#ffe6cc;strokeColor=#d79b00;fontColor=#1A1A1A;fontStyle=1;fontFamily=Helvetica;sketch=1;shadow=0;" parent="1" vertex="1" connectable="0"><mxGeometry x="323" y="16862" width="56.5" height="53" as="geometry"/></mxCell><mxCell id="87" value="1" style="rounded=0;whiteSpace=wrap;html=1;sketch=1;fillColor=#ffe6cc;strokeColor=#d79b00;fontSize=20;fontStyle=1;direction=east;rotation=0;fontColor=#1A1A1A;fontFamily=Helvetica;shadow=0;" parent="86" vertex="1"><mxGeometry width="56.49999999999998" height="53" as="geometry"/></mxCell><mxCell id="104" style="edgeStyle=orthogonalEdgeStyle;rounded=0;orthogonalLoop=1;jettySize=auto;html=1;entryX=1;entryY=0;entryDx=0;entryDy=0;fontFamily=Helvetica;fontColor=#1A1A1A;elbow=vertical;strokeColor=#1A1A1A;exitX=0;exitY=1;exitDx=0;exitDy=0;sketch=1;curved=1;shadow=0;" parent="1" source="53" target="59" edge="1"><mxGeometry relative="1" as="geometry"><Array as="points"><mxPoint x="408" y="16654"/><mxPoint x="216" y="16654"/></Array></mxGeometry></mxCell><mxCell id="105" style="edgeStyle=orthogonalEdgeStyle;rounded=0;orthogonalLoop=1;jettySize=auto;html=1;entryX=0;entryY=0;entryDx=0;entryDy=0;fontFamily=Helvetica;fontColor=#1A1A1A;elbow=vertical;strokeColor=#1A1A1A;exitX=1;exitY=1;exitDx=0;exitDy=0;sketch=1;curved=1;shadow=0;" parent="1" source="43" edge="1"><mxGeometry relative="1" as="geometry"><mxPoint x="304.5" y="16651" as="sourcePoint"/><mxPoint x="605.25" y="16683" as="targetPoint"/><Array as="points"><mxPoint x="407" y="16656"/><mxPoint x="605" y="16656"/></Array></mxGeometry></mxCell><mxCell id="106" style="edgeStyle=orthogonalEdgeStyle;rounded=0;orthogonalLoop=1;jettySize=auto;html=1;entryX=0;entryY=0;entryDx=0;entryDy=0;fontFamily=Helvetica;fontColor=#1A1A1A;elbow=vertical;strokeColor=#1A1A1A;exitX=1;exitY=1;exitDx=0;exitDy=0;sketch=1;curved=1;shadow=0;" parent="1" source="59" target="75" edge="1"><mxGeometry relative="1" as="geometry"><mxPoint x="304.5" y="16651" as="sourcePoint"/><mxPoint x="225.5" y="16693" as="targetPoint"/></mxGeometry></mxCell><mxCell id="107" style="edgeStyle=orthogonalEdgeStyle;rounded=0;orthogonalLoop=1;jettySize=auto;html=1;entryX=0;entryY=0;entryDx=0;entryDy=0;fontFamily=Helvetica;fontColor=#1A1A1A;elbow=vertical;strokeColor=#1A1A1A;exitX=0;exitY=1;exitDx=0;exitDy=0;sketch=1;curved=1;shadow=0;" parent="1" source="61" target="79" edge="1"><mxGeometry relative="1" as="geometry"><mxPoint x="169" y="16746" as="sourcePoint"/><mxPoint x="135" y="16789" as="targetPoint"/></mxGeometry></mxCell><mxCell id="108" style="edgeStyle=orthogonalEdgeStyle;rounded=0;orthogonalLoop=1;jettySize=auto;html=1;entryX=0.5;entryY=0;entryDx=0;entryDy=0;fontFamily=Helvetica;fontColor=#1A1A1A;elbow=vertical;strokeColor=#1A1A1A;exitX=0;exitY=1;exitDx=0;exitDy=0;sketch=1;curved=1;shadow=0;" parent="1" source="75" target="81" edge="1"><mxGeometry relative="1" as="geometry"><mxPoint x="225.5" y="16746" as="sourcePoint"/><mxPoint x="135" y="16789" as="targetPoint"/><Array as="points"><mxPoint x="125" y="16846"/><mxPoint x="67" y="16846"/></Array></mxGeometry></mxCell><mxCell id="109" style="edgeStyle=orthogonalEdgeStyle;rounded=0;orthogonalLoop=1;jettySize=auto;html=1;entryX=0.5;entryY=0;entryDx=0;entryDy=0;fontFamily=Helvetica;fontColor=#1A1A1A;elbow=vertical;strokeColor=#1A1A1A;exitX=0;exitY=1;exitDx=0;exitDy=0;sketch=1;curved=1;shadow=0;" parent="1" source="75" target="83" edge="1"><mxGeometry relative="1" as="geometry"><mxPoint x="135" y="16842" as="sourcePoint"/><mxPoint x="77.25" y="16870" as="targetPoint"/><Array as="points"><mxPoint x="125" y="16846"/><mxPoint x="170" y="16846"/></Array></mxGeometry></mxCell><mxCell id="110" style="edgeStyle=orthogonalEdgeStyle;rounded=0;orthogonalLoop=1;jettySize=auto;html=1;entryX=0.5;entryY=0;entryDx=0;entryDy=0;fontFamily=Helvetica;fontColor=#1A1A1A;elbow=vertical;strokeColor=#1A1A1A;exitX=0;exitY=1;exitDx=0;exitDy=0;sketch=1;curved=1;shadow=0;" parent="1" source="79" target="85" edge="1"><mxGeometry relative="1" as="geometry"><mxPoint x="135" y="16842" as="sourcePoint"/><mxPoint x="77.25" y="16870" as="targetPoint"/><Array as="points"><mxPoint x="300" y="16847"/><mxPoint x="244" y="16847"/></Array></mxGeometry></mxCell><mxCell id="111" style="edgeStyle=orthogonalEdgeStyle;rounded=0;orthogonalLoop=1;jettySize=auto;html=1;entryX=0.5;entryY=0;entryDx=0;entryDy=0;fontFamily=Helvetica;fontColor=#1A1A1A;elbow=vertical;strokeColor=#1A1A1A;exitX=1;exitY=1;exitDx=0;exitDy=0;sketch=1;curved=1;shadow=0;" parent="1" source="77" target="87" edge="1"><mxGeometry relative="1" as="geometry"><mxPoint x="310.25" y="16842" as="sourcePoint"/><mxPoint x="253.75" y="16872" as="targetPoint"/><Array as="points"><mxPoint x="300" y="16844"/><mxPoint x="351" y="16844"/></Array></mxGeometry></mxCell><mxCell id="112" value="" style="group;direction=east;rotation=0;fillColor=#dae8fc;strokeColor=#6c8ebf;fontColor=#1A1A1A;sketch=1;shadow=0;" parent="1" vertex="1" connectable="0"><mxGeometry x="491.5" y="16683" width="56.5" height="53" as="geometry"/></mxCell><mxCell id="113" value="3" style="rounded=0;whiteSpace=wrap;html=1;sketch=1;fillColor=#dae8fc;strokeColor=#6c8ebf;fontSize=20;fontStyle=1;direction=east;rotation=0;fontColor=#1A1A1A;shadow=0;" parent="112" vertex="1"><mxGeometry width="56.49999999999998" height="53" as="geometry"/></mxCell><mxCell id="114" value="" style="group;direction=east;rotation=0;fillColor=#dae8fc;strokeColor=#6c8ebf;fontColor=#1A1A1A;sketch=1;shadow=0;" parent="1" vertex="1" connectable="0"><mxGeometry x="548" y="16683" width="56.5" height="53" as="geometry"/></mxCell><mxCell id="115" value="2" style="rounded=0;whiteSpace=wrap;html=1;sketch=1;fillColor=#dae8fc;strokeColor=#6c8ebf;fontSize=20;fontStyle=1;direction=east;rotation=0;fontColor=#1A1A1A;shadow=0;" parent="114" vertex="1"><mxGeometry width="56.49999999999998" height="53" as="geometry"/></mxCell><mxCell id="116" value="" style="group;direction=east;rotation=0;fillColor=#dae8fc;strokeColor=#6c8ebf;fontColor=#1A1A1A;sketch=1;shadow=0;" parent="1" vertex="1" connectable="0"><mxGeometry x="604.5" y="16683" width="56.5" height="53" as="geometry"/></mxCell><mxCell id="117" value="8" style="rounded=0;whiteSpace=wrap;html=1;sketch=1;fillColor=#dae8fc;strokeColor=#6c8ebf;fontSize=20;fontStyle=1;direction=east;rotation=0;fontColor=#1A1A1A;shadow=0;" parent="116" vertex="1"><mxGeometry width="56.49999999999998" height="53" as="geometry"/></mxCell><mxCell id="118" value="" style="group;direction=east;rotation=0;fillColor=#dae8fc;strokeColor=#6c8ebf;fontColor=#1A1A1A;sketch=1;shadow=0;" parent="1" vertex="1" connectable="0"><mxGeometry x="661" y="16683" width="56.5" height="53" as="geometry"/></mxCell><mxCell id="119" value="6" style="rounded=0;whiteSpace=wrap;html=1;sketch=1;fillColor=#dae8fc;strokeColor=#6c8ebf;fontSize=20;fontStyle=1;direction=east;rotation=0;fontColor=#1A1A1A;shadow=0;" parent="118" vertex="1"><mxGeometry width="56.49999999999998" height="53" as="geometry"/></mxCell><mxCell id="120" value="" style="group;direction=east;rotation=0;fillColor=#dae8fc;strokeColor=#6c8ebf;fontColor=#1A1A1A;sketch=1;shadow=0;" parent="1" vertex="1" connectable="0"><mxGeometry x="457.5" y="16779" width="56.5" height="53" as="geometry"/></mxCell><mxCell id="121" value="3" style="rounded=0;whiteSpace=wrap;html=1;sketch=1;fillColor=#dae8fc;strokeColor=#6c8ebf;fontSize=20;fontStyle=1;direction=east;rotation=0;fontColor=#1A1A1A;shadow=0;" parent="120" vertex="1"><mxGeometry width="56.49999999999998" height="53" as="geometry"/></mxCell><mxCell id="122" value="" style="group;direction=east;rotation=0;fillColor=#dae8fc;strokeColor=#6c8ebf;fontColor=#1A1A1A;sketch=1;shadow=0;" parent="1" vertex="1" connectable="0"><mxGeometry x="514" y="16779" width="56.5" height="53" as="geometry"/></mxCell><mxCell id="123" value="2" style="rounded=0;whiteSpace=wrap;html=1;sketch=1;fillColor=#dae8fc;strokeColor=#6c8ebf;fontSize=20;fontStyle=1;direction=east;rotation=0;fontColor=#1A1A1A;shadow=0;" parent="122" vertex="1"><mxGeometry width="56.49999999999998" height="53" as="geometry"/></mxCell><mxCell id="124" value="" style="group;direction=east;rotation=0;fillColor=#dae8fc;strokeColor=#6c8ebf;fontColor=#1A1A1A;sketch=1;shadow=0;" parent="1" vertex="1" connectable="0"><mxGeometry x="632.75" y="16779" width="56.5" height="53" as="geometry"/></mxCell><mxCell id="125" value="8" style="rounded=0;whiteSpace=wrap;html=1;sketch=1;fillColor=#dae8fc;strokeColor=#6c8ebf;fontSize=20;fontStyle=1;direction=east;rotation=0;fontColor=#1A1A1A;shadow=0;" parent="124" vertex="1"><mxGeometry width="56.49999999999998" height="53" as="geometry"/></mxCell><mxCell id="126" value="" style="group;direction=east;rotation=0;fillColor=#dae8fc;strokeColor=#6c8ebf;fontColor=#1A1A1A;sketch=1;shadow=0;" parent="1" vertex="1" connectable="0"><mxGeometry x="689.25" y="16779" width="56.5" height="53" as="geometry"/></mxCell><mxCell id="127" value="6" style="rounded=0;whiteSpace=wrap;html=1;sketch=1;fillColor=#dae8fc;strokeColor=#6c8ebf;fontSize=20;fontStyle=1;direction=east;rotation=0;fontColor=#1A1A1A;shadow=0;" parent="126" vertex="1"><mxGeometry width="56.49999999999998" height="53" as="geometry"/></mxCell><mxCell id="128" value="" style="group;direction=east;rotation=0;fillColor=#ffe6cc;strokeColor=#d79b00;fontColor=#1A1A1A;fontStyle=1;fontFamily=Helvetica;sketch=1;shadow=0;" parent="1" vertex="1" connectable="0"><mxGeometry x="428" y="16860" width="56.5" height="53" as="geometry"/></mxCell><mxCell id="129" value="3" style="rounded=0;whiteSpace=wrap;html=1;sketch=1;fillColor=#ffe6cc;strokeColor=#d79b00;fontSize=20;fontStyle=1;direction=east;rotation=0;fontColor=#1A1A1A;fontFamily=Helvetica;shadow=0;" parent="128" vertex="1"><mxGeometry width="56.49999999999998" height="53" as="geometry"/></mxCell><mxCell id="130" value="" style="group;direction=east;rotation=0;fillColor=#ffe6cc;strokeColor=#d79b00;fontColor=#1A1A1A;fontStyle=1;fontFamily=Helvetica;sketch=1;shadow=0;" parent="1" vertex="1" connectable="0"><mxGeometry x="531" y="16860" width="56.5" height="53" as="geometry"/></mxCell><mxCell id="131" value="2" style="rounded=0;whiteSpace=wrap;html=1;sketch=1;fillColor=#ffe6cc;strokeColor=#d79b00;fontSize=20;fontStyle=1;direction=east;rotation=0;fontColor=#1A1A1A;fontFamily=Helvetica;shadow=0;" parent="130" vertex="1"><mxGeometry width="56.49999999999998" height="53" as="geometry"/></mxCell><mxCell id="132" value="" style="group;direction=east;rotation=0;fillColor=#ffe6cc;strokeColor=#d79b00;fontColor=#1A1A1A;fontStyle=1;fontFamily=Helvetica;sketch=1;shadow=0;" parent="1" vertex="1" connectable="0"><mxGeometry x="604.5" y="16862" width="56.5" height="53" as="geometry"/></mxCell><mxCell id="133" value="8" style="rounded=0;whiteSpace=wrap;html=1;sketch=1;fillColor=#ffe6cc;strokeColor=#d79b00;fontSize=20;fontStyle=1;direction=east;rotation=0;fontColor=#1A1A1A;fontFamily=Helvetica;shadow=0;" parent="132" vertex="1"><mxGeometry width="56.49999999999998" height="53" as="geometry"/></mxCell><mxCell id="134" value="" style="group;direction=east;rotation=0;fillColor=#ffe6cc;strokeColor=#d79b00;fontColor=#1A1A1A;fontStyle=1;fontFamily=Helvetica;sketch=1;shadow=0;" parent="1" vertex="1" connectable="0"><mxGeometry x="712" y="16862" width="56.5" height="53" as="geometry"/></mxCell><mxCell id="135" value="6" style="rounded=0;whiteSpace=wrap;html=1;sketch=1;fillColor=#ffe6cc;strokeColor=#d79b00;fontSize=20;fontStyle=1;direction=east;rotation=0;fontColor=#1A1A1A;fontFamily=Helvetica;shadow=0;" parent="134" vertex="1"><mxGeometry width="56.49999999999998" height="53" as="geometry"/></mxCell><mxCell id="136" style="edgeStyle=orthogonalEdgeStyle;rounded=0;orthogonalLoop=1;jettySize=auto;html=1;entryX=0;entryY=0;entryDx=0;entryDy=0;fontFamily=Helvetica;fontColor=#1A1A1A;elbow=vertical;strokeColor=#1A1A1A;exitX=1;exitY=1;exitDx=0;exitDy=0;sketch=1;curved=1;shadow=0;" parent="1" source="115" target="123" edge="1"><mxGeometry relative="1" as="geometry"><mxPoint x="693.5" y="16651" as="sourcePoint"/><mxPoint x="614.5" y="16693" as="targetPoint"/></mxGeometry></mxCell><mxCell id="137" style="edgeStyle=orthogonalEdgeStyle;rounded=0;orthogonalLoop=1;jettySize=auto;html=1;entryX=0;entryY=0;entryDx=0;entryDy=0;fontFamily=Helvetica;fontColor=#1A1A1A;elbow=vertical;strokeColor=#1A1A1A;exitX=0;exitY=1;exitDx=0;exitDy=0;sketch=1;curved=1;shadow=0;" parent="1" source="117" target="127" edge="1"><mxGeometry relative="1" as="geometry"><mxPoint x="558" y="16746" as="sourcePoint"/><mxPoint x="524" y="16789" as="targetPoint"/></mxGeometry></mxCell><mxCell id="138" style="edgeStyle=orthogonalEdgeStyle;rounded=0;orthogonalLoop=1;jettySize=auto;html=1;entryX=0.5;entryY=0;entryDx=0;entryDy=0;fontFamily=Helvetica;fontColor=#1A1A1A;elbow=vertical;strokeColor=#1A1A1A;exitX=0;exitY=1;exitDx=0;exitDy=0;sketch=1;curved=1;shadow=0;" parent="1" source="123" target="129" edge="1"><mxGeometry relative="1" as="geometry"><mxPoint x="614.5" y="16746" as="sourcePoint"/><mxPoint x="524" y="16789" as="targetPoint"/><Array as="points"><mxPoint x="514" y="16846"/><mxPoint x="456" y="16846"/></Array></mxGeometry></mxCell><mxCell id="139" style="edgeStyle=orthogonalEdgeStyle;rounded=0;orthogonalLoop=1;jettySize=auto;html=1;entryX=0.5;entryY=0;entryDx=0;entryDy=0;fontFamily=Helvetica;fontColor=#1A1A1A;elbow=vertical;strokeColor=#1A1A1A;exitX=0;exitY=1;exitDx=0;exitDy=0;sketch=1;curved=1;shadow=0;" parent="1" source="123" target="131" edge="1"><mxGeometry relative="1" as="geometry"><mxPoint x="524" y="16842" as="sourcePoint"/><mxPoint x="466.25" y="16870" as="targetPoint"/><Array as="points"><mxPoint x="514" y="16846"/><mxPoint x="559" y="16846"/></Array></mxGeometry></mxCell><mxCell id="140" style="edgeStyle=orthogonalEdgeStyle;rounded=0;orthogonalLoop=1;jettySize=auto;html=1;entryX=0.5;entryY=0;entryDx=0;entryDy=0;fontFamily=Helvetica;fontColor=#1A1A1A;elbow=vertical;strokeColor=#1A1A1A;exitX=0;exitY=1;exitDx=0;exitDy=0;sketch=1;curved=1;shadow=0;" parent="1" source="127" target="133" edge="1"><mxGeometry relative="1" as="geometry"><mxPoint x="524" y="16842" as="sourcePoint"/><mxPoint x="466.25" y="16870" as="targetPoint"/><Array as="points"><mxPoint x="689" y="16847"/><mxPoint x="633" y="16847"/></Array></mxGeometry></mxCell><mxCell id="141" style="edgeStyle=orthogonalEdgeStyle;rounded=0;orthogonalLoop=1;jettySize=auto;html=1;entryX=0.5;entryY=0;entryDx=0;entryDy=0;fontFamily=Helvetica;fontColor=#1A1A1A;elbow=vertical;strokeColor=#1A1A1A;exitX=1;exitY=1;exitDx=0;exitDy=0;sketch=1;curved=1;shadow=0;" parent="1" source="125" target="135" edge="1"><mxGeometry relative="1" as="geometry"><mxPoint x="699.25" y="16842" as="sourcePoint"/><mxPoint x="642.75" y="16872" as="targetPoint"/><Array as="points"><mxPoint x="689" y="16844"/><mxPoint x="740" y="16844"/></Array></mxGeometry></mxCell><mxCell id="142" value="" style="group;direction=east;rotation=0;fillColor=#ffe6cc;strokeColor=#d79b00;fontColor=#1A1A1A;fontStyle=1;fontFamily=Helvetica;sketch=1;" parent="1" vertex="1" connectable="0"><mxGeometry x="37.75" y="16986" width="56.5" height="53" as="geometry"/></mxCell><mxCell id="143" value="5" style="rounded=0;whiteSpace=wrap;html=1;sketch=1;fillColor=#ffe6cc;strokeColor=#d79b00;fontSize=20;fontStyle=1;direction=east;rotation=0;fontColor=#1A1A1A;fontFamily=Helvetica;" parent="142" vertex="1"><mxGeometry width="56.49999999999998" height="53" as="geometry"/></mxCell><mxCell id="144" value="" style="group;direction=east;rotation=0;fillColor=#ffe6cc;strokeColor=#d79b00;fontColor=#1A1A1A;fontStyle=1;fontFamily=Helvetica;sketch=1;" parent="1" vertex="1" connectable="0"><mxGeometry x="122.25" y="16986" width="56.5" height="53" as="geometry"/></mxCell><mxCell id="145" value="4" style="rounded=0;whiteSpace=wrap;html=1;sketch=1;fillColor=#ffe6cc;strokeColor=#d79b00;fontSize=20;fontStyle=1;direction=east;rotation=0;fontColor=#1A1A1A;fontFamily=Helvetica;" parent="144" vertex="1"><mxGeometry width="56.49999999999998" height="53" as="geometry"/></mxCell><mxCell id="146" value="" style="group;direction=east;rotation=0;fillColor=#ffe6cc;strokeColor=#d79b00;fontStyle=1;fontFamily=Helvetica;sketch=1;fontColor=#1A1A1A;" parent="1" vertex="1" connectable="0"><mxGeometry x="207.25" y="16986" width="56.5" height="53" as="geometry"/></mxCell><mxCell id="147" value="7" style="rounded=0;whiteSpace=wrap;html=1;sketch=1;fillColor=#ffe6cc;strokeColor=#d79b00;fontSize=20;fontStyle=1;direction=east;rotation=0;fontFamily=Helvetica;fontColor=#1A1A1A;" parent="146" vertex="1"><mxGeometry width="56.49999999999998" height="53" as="geometry"/></mxCell><mxCell id="148" value="" style="group;direction=east;rotation=0;fillColor=#ffe6cc;strokeColor=#d79b00;fontStyle=1;fontFamily=Helvetica;sketch=1;fontColor=#1A1A1A;" parent="1" vertex="1" connectable="0"><mxGeometry x="299.25" y="16986" width="56.5" height="53" as="geometry"/></mxCell><mxCell id="149" value="1" style="rounded=0;whiteSpace=wrap;html=1;sketch=1;fillColor=#ffe6cc;strokeColor=#d79b00;fontSize=20;fontStyle=1;direction=east;rotation=0;fontFamily=Helvetica;fontColor=#1A1A1A;" parent="148" vertex="1"><mxGeometry width="56.49999999999998" height="53" as="geometry"/></mxCell><mxCell id="150" value="" style="group;direction=east;rotation=0;fillColor=#ffe6cc;strokeColor=#d79b00;fontStyle=1;fontFamily=Helvetica;sketch=1;fontColor=#1A1A1A;" parent="1" vertex="1" connectable="0"><mxGeometry x="394.25" y="16986" width="56.5" height="53" as="geometry"/></mxCell><mxCell id="151" value="3" style="rounded=0;whiteSpace=wrap;html=1;sketch=1;fillColor=#ffe6cc;strokeColor=#d79b00;fontSize=20;fontStyle=1;direction=east;rotation=0;fontFamily=Helvetica;fontColor=#1A1A1A;" parent="150" vertex="1"><mxGeometry width="56.49999999999998" height="53" as="geometry"/></mxCell><mxCell id="152" value="" style="group;direction=east;rotation=0;fillColor=#ffe6cc;strokeColor=#d79b00;fontStyle=1;fontFamily=Helvetica;sketch=1;fontColor=#1A1A1A;" parent="1" vertex="1" connectable="0"><mxGeometry x="483.25" y="16986" width="56.5" height="53" as="geometry"/></mxCell><mxCell id="153" value="2" style="rounded=0;whiteSpace=wrap;html=1;sketch=1;fillColor=#ffe6cc;strokeColor=#d79b00;fontSize=20;fontStyle=1;direction=east;rotation=0;fontFamily=Helvetica;fontColor=#1A1A1A;" parent="152" vertex="1"><mxGeometry width="56.49999999999998" height="53" as="geometry"/></mxCell><mxCell id="154" value="" style="group;direction=east;rotation=0;fillColor=#ffe6cc;strokeColor=#d79b00;fontStyle=1;fontFamily=Helvetica;sketch=1;fontColor=#1A1A1A;" parent="1" vertex="1" connectable="0"><mxGeometry x="574.25" y="16988" width="56.5" height="53" as="geometry"/></mxCell><mxCell id="155" value="8" style="rounded=0;whiteSpace=wrap;html=1;sketch=1;fillColor=#ffe6cc;strokeColor=#d79b00;fontSize=20;fontStyle=1;direction=east;rotation=0;fontFamily=Helvetica;fontColor=#1A1A1A;" parent="154" vertex="1"><mxGeometry width="56.49999999999998" height="53" as="geometry"/></mxCell><mxCell id="156" value="" style="group;direction=east;rotation=0;fillColor=#ffe6cc;strokeColor=#d79b00;fontStyle=1;fontFamily=Helvetica;sketch=1;fontColor=#1A1A1A;" parent="1" vertex="1" connectable="0"><mxGeometry x="664.25" y="16988" width="56.5" height="53" as="geometry"/></mxCell><mxCell id="157" value="6" style="rounded=0;whiteSpace=wrap;html=1;sketch=1;fillColor=#ffe6cc;strokeColor=#d79b00;fontSize=20;fontStyle=1;direction=east;rotation=0;fontFamily=Helvetica;fontColor=#1A1A1A;" parent="156" vertex="1"><mxGeometry width="56.49999999999998" height="53" as="geometry"/></mxCell><mxCell id="158" value="" style="group;direction=east;rotation=0;fillColor=#dae8fc;strokeColor=#6c8ebf;fontColor=#1A1A1A;sketch=1;shadow=0;" parent="1" vertex="1" connectable="0"><mxGeometry x="51" y="17078" width="56.5" height="53" as="geometry"/></mxCell><mxCell id="159" value="4" style="rounded=0;whiteSpace=wrap;html=1;sketch=1;fillColor=#dae8fc;strokeColor=#6c8ebf;fontSize=20;fontStyle=1;direction=east;rotation=0;fontColor=#1A1A1A;shadow=0;" parent="158" vertex="1"><mxGeometry width="56.49999999999998" height="53" as="geometry"/></mxCell><mxCell id="160" value="" style="group;direction=east;rotation=0;fillColor=#dae8fc;strokeColor=#6c8ebf;fontColor=#1A1A1A;sketch=1;shadow=0;" parent="1" vertex="1" connectable="0"><mxGeometry x="107.5" y="17078" width="56.5" height="53" as="geometry"/></mxCell><mxCell id="161" value="5" style="rounded=0;whiteSpace=wrap;html=1;sketch=1;fillColor=#dae8fc;strokeColor=#6c8ebf;fontSize=20;fontStyle=1;direction=east;rotation=0;fontColor=#1A1A1A;shadow=0;" parent="160" vertex="1"><mxGeometry width="56.49999999999998" height="53" as="geometry"/></mxCell><mxCell id="162" style="edgeStyle=orthogonalEdgeStyle;curved=1;rounded=0;sketch=1;orthogonalLoop=1;jettySize=auto;html=1;entryX=1;entryY=0;entryDx=0;entryDy=0;shadow=0;strokeColor=#1A1A1A;fontFamily=Helvetica;fontColor=#1A1A1A;" parent="1" source="143" target="159" edge="1"><mxGeometry relative="1" as="geometry"/></mxCell><mxCell id="163" style="edgeStyle=orthogonalEdgeStyle;curved=1;rounded=0;sketch=1;orthogonalLoop=1;jettySize=auto;html=1;entryX=0;entryY=0;entryDx=0;entryDy=0;shadow=0;strokeColor=#1A1A1A;fontFamily=Helvetica;fontColor=#1A1A1A;" parent="1" source="145" target="161" edge="1"><mxGeometry relative="1" as="geometry"/></mxCell><mxCell id="164" value="" style="group;direction=east;rotation=0;fillColor=#dae8fc;strokeColor=#6c8ebf;fontColor=#1A1A1A;sketch=1;shadow=0;" parent="1" vertex="1" connectable="0"><mxGeometry x="225" y="17080" width="56.5" height="53" as="geometry"/></mxCell><mxCell id="165" value="1" style="rounded=0;whiteSpace=wrap;html=1;sketch=1;fillColor=#dae8fc;strokeColor=#6c8ebf;fontSize=20;fontStyle=1;direction=east;rotation=0;fontColor=#1A1A1A;shadow=0;" parent="164" vertex="1"><mxGeometry width="56.49999999999998" height="53" as="geometry"/></mxCell><mxCell id="166" value="" style="group;direction=east;rotation=0;fillColor=#dae8fc;strokeColor=#6c8ebf;fontColor=#1A1A1A;sketch=1;shadow=0;" parent="1" vertex="1" connectable="0"><mxGeometry x="281.5" y="17080" width="56.5" height="53" as="geometry"/></mxCell><mxCell id="167" value="7" style="rounded=0;whiteSpace=wrap;html=1;sketch=1;fillColor=#dae8fc;strokeColor=#6c8ebf;fontSize=20;fontStyle=1;direction=east;rotation=0;fontColor=#1A1A1A;shadow=0;" parent="166" vertex="1"><mxGeometry width="56.49999999999998" height="53" as="geometry"/></mxCell><mxCell id="168" style="edgeStyle=orthogonalEdgeStyle;curved=1;rounded=0;sketch=1;orthogonalLoop=1;jettySize=auto;html=1;entryX=1;entryY=0;entryDx=0;entryDy=0;shadow=0;strokeColor=#1A1A1A;fontFamily=Helvetica;fontColor=#1A1A1A;" parent="1" target="165" edge="1"><mxGeometry relative="1" as="geometry"><mxPoint x="240" y="17041" as="sourcePoint"/></mxGeometry></mxCell><mxCell id="169" style="edgeStyle=orthogonalEdgeStyle;curved=1;rounded=0;sketch=1;orthogonalLoop=1;jettySize=auto;html=1;entryX=0;entryY=0;entryDx=0;entryDy=0;shadow=0;strokeColor=#1A1A1A;fontFamily=Helvetica;fontColor=#1A1A1A;" parent="1" target="167" edge="1"><mxGeometry relative="1" as="geometry"><mxPoint x="324.57142857142867" y="17041" as="sourcePoint"/></mxGeometry></mxCell><mxCell id="170" value="" style="group;direction=east;rotation=0;fillColor=#dae8fc;strokeColor=#6c8ebf;fontColor=#1A1A1A;sketch=1;shadow=0;" parent="1" vertex="1" connectable="0"><mxGeometry x="407.5" y="17080" width="56.5" height="53" as="geometry"/></mxCell><mxCell id="171" value="2" style="rounded=0;whiteSpace=wrap;html=1;sketch=1;fillColor=#dae8fc;strokeColor=#6c8ebf;fontSize=20;fontStyle=1;direction=east;rotation=0;fontColor=#1A1A1A;shadow=0;" parent="170" vertex="1"><mxGeometry width="56.49999999999998" height="53" as="geometry"/></mxCell><mxCell id="172" value="" style="group;direction=east;rotation=0;fillColor=#dae8fc;strokeColor=#6c8ebf;fontColor=#1A1A1A;sketch=1;shadow=0;" parent="1" vertex="1" connectable="0"><mxGeometry x="464" y="17080" width="56.5" height="53" as="geometry"/></mxCell><mxCell id="173" value="3" style="rounded=0;whiteSpace=wrap;html=1;sketch=1;fillColor=#dae8fc;strokeColor=#6c8ebf;fontSize=20;fontStyle=1;direction=east;rotation=0;fontColor=#1A1A1A;shadow=0;" parent="172" vertex="1"><mxGeometry width="56.49999999999998" height="53" as="geometry"/></mxCell><mxCell id="174" style="edgeStyle=orthogonalEdgeStyle;curved=1;rounded=0;sketch=1;orthogonalLoop=1;jettySize=auto;html=1;entryX=1;entryY=0;entryDx=0;entryDy=0;shadow=0;strokeColor=#1A1A1A;fontFamily=Helvetica;fontColor=#1A1A1A;" parent="1" target="171" edge="1"><mxGeometry relative="1" as="geometry"><mxPoint x="422.5" y="17041" as="sourcePoint"/></mxGeometry></mxCell><mxCell id="175" style="edgeStyle=orthogonalEdgeStyle;curved=1;rounded=0;sketch=1;orthogonalLoop=1;jettySize=auto;html=1;entryX=0;entryY=0;entryDx=0;entryDy=0;shadow=0;strokeColor=#1A1A1A;fontFamily=Helvetica;fontColor=#1A1A1A;" parent="1" target="173" edge="1"><mxGeometry relative="1" as="geometry"><mxPoint x="507.07142857142867" y="17041" as="sourcePoint"/></mxGeometry></mxCell><mxCell id="176" value="" style="group;direction=east;rotation=0;fillColor=#dae8fc;strokeColor=#6c8ebf;fontColor=#1A1A1A;sketch=1;shadow=0;" parent="1" vertex="1" connectable="0"><mxGeometry x="587.5" y="17080" width="56.5" height="53" as="geometry"/></mxCell><mxCell id="177" value="6" style="rounded=0;whiteSpace=wrap;html=1;sketch=1;fillColor=#dae8fc;strokeColor=#6c8ebf;fontSize=20;fontStyle=1;direction=east;rotation=0;fontColor=#1A1A1A;shadow=0;" parent="176" vertex="1"><mxGeometry width="56.49999999999998" height="53" as="geometry"/></mxCell><mxCell id="178" value="" style="group;direction=east;rotation=0;fillColor=#dae8fc;strokeColor=#6c8ebf;fontColor=#1A1A1A;sketch=1;shadow=0;" parent="1" vertex="1" connectable="0"><mxGeometry x="644" y="17080" width="56.5" height="53" as="geometry"/></mxCell><mxCell id="179" value="8" style="rounded=0;whiteSpace=wrap;html=1;sketch=1;fillColor=#dae8fc;strokeColor=#6c8ebf;fontSize=20;fontStyle=1;direction=east;rotation=0;fontColor=#1A1A1A;shadow=0;" parent="178" vertex="1"><mxGeometry width="56.49999999999998" height="53" as="geometry"/></mxCell><mxCell id="182" style="edgeStyle=orthogonalEdgeStyle;curved=1;rounded=0;sketch=1;orthogonalLoop=1;jettySize=auto;html=1;entryX=0;entryY=0;entryDx=0;entryDy=0;shadow=0;strokeColor=#1A1A1A;fontFamily=Helvetica;fontColor=#1A1A1A;exitX=0.5;exitY=1;exitDx=0;exitDy=0;" parent="1" source="155" target="179" edge="1"><mxGeometry relative="1" as="geometry"/></mxCell><mxCell id="183" style="edgeStyle=orthogonalEdgeStyle;curved=1;rounded=0;sketch=1;orthogonalLoop=1;jettySize=auto;html=1;shadow=0;strokeColor=#1A1A1A;fontFamily=Helvetica;fontColor=#1A1A1A;exitX=0.5;exitY=1;exitDx=0;exitDy=0;" parent="1" source="157" edge="1"><mxGeometry relative="1" as="geometry"><mxPoint x="646" y="17084" as="targetPoint"/></mxGeometry></mxCell><mxCell id="184" value="" style="group;direction=east;rotation=0;fillColor=#dae8fc;strokeColor=#6c8ebf;fontStyle=1;fontFamily=Helvetica;sketch=1;fontColor=#1A1A1A;" parent="1" vertex="1" connectable="0"><mxGeometry x="194" y="17303" width="56.5" height="53" as="geometry"/></mxCell><mxCell id="185" value="5" style="rounded=0;whiteSpace=wrap;html=1;sketch=1;fillColor=#dae8fc;strokeColor=#6c8ebf;fontSize=20;fontStyle=1;direction=east;rotation=0;fontFamily=Helvetica;fontColor=#1A1A1A;" parent="184" vertex="1"><mxGeometry width="56.49999999999998" height="53" as="geometry"/></mxCell><mxCell id="186" value="" style="group;direction=east;rotation=0;fillColor=#dae8fc;strokeColor=#6c8ebf;fontStyle=1;fontFamily=Helvetica;sketch=1;fontColor=#1A1A1A;" parent="1" vertex="1" connectable="0"><mxGeometry x="137.5" y="17303" width="56.5" height="53" as="geometry"/></mxCell><mxCell id="187" value="4" style="rounded=0;whiteSpace=wrap;html=1;sketch=1;fillColor=#dae8fc;strokeColor=#6c8ebf;fontSize=20;fontStyle=1;direction=east;rotation=0;fontFamily=Helvetica;fontColor=#1A1A1A;" parent="186" vertex="1"><mxGeometry width="56.49999999999998" height="53" as="geometry"/></mxCell><mxCell id="190" value="" style="group;direction=east;rotation=0;fillColor=#dae8fc;strokeColor=#6c8ebf;fontStyle=1;fontFamily=Helvetica;sketch=1;fontColor=#1A1A1A;" parent="1" vertex="1" connectable="0"><mxGeometry x="81" y="17303" width="56.5" height="53" as="geometry"/></mxCell><mxCell id="191" value="1" style="rounded=0;whiteSpace=wrap;html=1;sketch=1;fillColor=#dae8fc;strokeColor=#6c8ebf;fontSize=20;fontStyle=1;direction=east;rotation=0;fontFamily=Helvetica;fontColor=#1A1A1A;" parent="190" vertex="1"><mxGeometry width="56.49999999999998" height="53" as="geometry"/></mxCell><mxCell id="200" value="" style="group;direction=east;rotation=0;fillColor=#ffe6cc;strokeColor=#d79b00;sketch=1;shadow=0;fontColor=#1A1A1A;" parent="1" vertex="1" connectable="0"><mxGeometry x="51" y="17183" width="56.5" height="53" as="geometry"/></mxCell><mxCell id="201" value="4" style="rounded=0;whiteSpace=wrap;html=1;sketch=1;fillColor=#ffe6cc;strokeColor=#d79b00;fontSize=20;fontStyle=1;direction=east;rotation=0;shadow=0;fontColor=#1A1A1A;" parent="200" vertex="1"><mxGeometry width="56.49999999999998" height="53" as="geometry"/></mxCell><mxCell id="202" value="" style="group;direction=east;rotation=0;fillColor=#ffe6cc;strokeColor=#d79b00;sketch=1;shadow=0;fontColor=#1A1A1A;" parent="1" vertex="1" connectable="0"><mxGeometry x="107.5" y="17183" width="56.5" height="53" as="geometry"/></mxCell><mxCell id="203" value="5" style="rounded=0;whiteSpace=wrap;html=1;sketch=1;fillColor=#ffe6cc;strokeColor=#d79b00;fontSize=20;fontStyle=1;direction=east;rotation=0;shadow=0;fontColor=#1A1A1A;" parent="202" vertex="1"><mxGeometry width="56.49999999999998" height="53" as="geometry"/></mxCell><mxCell id="206" value="" style="group;direction=east;rotation=0;fillColor=#ffe6cc;strokeColor=#d79b00;sketch=1;shadow=0;fontColor=#1A1A1A;" parent="1" vertex="1" connectable="0"><mxGeometry x="225" y="17185" width="56.5" height="53" as="geometry"/></mxCell><mxCell id="207" value="1" style="rounded=0;whiteSpace=wrap;html=1;sketch=1;fillColor=#ffe6cc;strokeColor=#d79b00;fontSize=20;fontStyle=1;direction=east;rotation=0;shadow=0;fontColor=#1A1A1A;" parent="206" vertex="1"><mxGeometry width="56.49999999999998" height="53" as="geometry"/></mxCell><mxCell id="208" value="" style="group;direction=east;rotation=0;fillColor=#ffe6cc;strokeColor=#d79b00;sketch=1;shadow=0;fontColor=#1A1A1A;" parent="1" vertex="1" connectable="0"><mxGeometry x="281.5" y="17185" width="56.5" height="53" as="geometry"/></mxCell><mxCell id="209" value="7" style="rounded=0;whiteSpace=wrap;html=1;sketch=1;fillColor=#ffe6cc;strokeColor=#d79b00;fontSize=20;fontStyle=1;direction=east;rotation=0;shadow=0;fontColor=#1A1A1A;" parent="208" vertex="1"><mxGeometry width="56.49999999999998" height="53" as="geometry"/></mxCell><mxCell id="212" value="" style="group;direction=east;rotation=0;fillColor=#ffe6cc;strokeColor=#d79b00;sketch=1;shadow=0;fontColor=#1A1A1A;" parent="1" vertex="1" connectable="0"><mxGeometry x="407.5" y="17185" width="56.5" height="53" as="geometry"/></mxCell><mxCell id="213" value="2" style="rounded=0;whiteSpace=wrap;html=1;sketch=1;fillColor=#ffe6cc;strokeColor=#d79b00;fontSize=20;fontStyle=1;direction=east;rotation=0;shadow=0;fontColor=#1A1A1A;" parent="212" vertex="1"><mxGeometry width="56.49999999999998" height="53" as="geometry"/></mxCell><mxCell id="214" value="" style="group;direction=east;rotation=0;fillColor=#ffe6cc;strokeColor=#d79b00;sketch=1;shadow=0;fontColor=#1A1A1A;" parent="1" vertex="1" connectable="0"><mxGeometry x="464" y="17185" width="56.5" height="53" as="geometry"/></mxCell><mxCell id="215" value="3" style="rounded=0;whiteSpace=wrap;html=1;sketch=1;fillColor=#ffe6cc;strokeColor=#d79b00;fontSize=20;fontStyle=1;direction=east;rotation=0;shadow=0;fontColor=#1A1A1A;" parent="214" vertex="1"><mxGeometry width="56.49999999999998" height="53" as="geometry"/></mxCell><mxCell id="218" value="" style="group;direction=east;rotation=0;fillColor=#ffe6cc;strokeColor=#d79b00;sketch=1;shadow=0;fontColor=#1A1A1A;" parent="1" vertex="1" connectable="0"><mxGeometry x="587.5" y="17185" width="56.5" height="53" as="geometry"/></mxCell><mxCell id="219" value="6" style="rounded=0;whiteSpace=wrap;html=1;sketch=1;fillColor=#ffe6cc;strokeColor=#d79b00;fontSize=20;fontStyle=1;direction=east;rotation=0;shadow=0;fontColor=#1A1A1A;" parent="218" vertex="1"><mxGeometry width="56.49999999999998" height="53" as="geometry"/></mxCell><mxCell id="220" value="" style="group;direction=east;rotation=0;fillColor=#ffe6cc;strokeColor=#d79b00;sketch=1;shadow=0;fontColor=#1A1A1A;" parent="1" vertex="1" connectable="0"><mxGeometry x="644" y="17185" width="56.5" height="53" as="geometry"/></mxCell><mxCell id="221" value="8" style="rounded=0;whiteSpace=wrap;html=1;sketch=1;fillColor=#ffe6cc;strokeColor=#d79b00;fontSize=20;fontStyle=1;direction=east;rotation=0;shadow=0;fontColor=#1A1A1A;" parent="220" vertex="1"><mxGeometry width="56.49999999999998" height="53" as="geometry"/></mxCell><mxCell id="189" value="7" style="rounded=0;whiteSpace=wrap;html=1;sketch=1;fillColor=#dae8fc;strokeColor=#6c8ebf;fontSize=20;fontStyle=1;direction=east;rotation=0;fontFamily=Helvetica;fontColor=#1A1A1A;" parent="1" vertex="1"><mxGeometry x="250.5" y="17303" width="56.49999999999998" height="53" as="geometry"/></mxCell><mxCell id="224" style="edgeStyle=orthogonalEdgeStyle;curved=1;rounded=0;sketch=1;orthogonalLoop=1;jettySize=auto;html=1;entryX=1;entryY=0;entryDx=0;entryDy=0;shadow=0;strokeColor=#1A1A1A;fontFamily=Helvetica;fontColor=#1A1A1A;exitX=0;exitY=1;exitDx=0;exitDy=0;" parent="1" source="203" target="187" edge="1"><mxGeometry relative="1" as="geometry"/></mxCell><mxCell id="225" style="edgeStyle=orthogonalEdgeStyle;curved=1;rounded=0;sketch=1;orthogonalLoop=1;jettySize=auto;html=1;entryX=1;entryY=0;entryDx=0;entryDy=0;shadow=0;strokeColor=#1A1A1A;fontFamily=Helvetica;fontColor=#1A1A1A;exitX=0;exitY=1;exitDx=0;exitDy=0;" parent="1" source="209" target="187" edge="1"><mxGeometry relative="1" as="geometry"><Array as="points"><mxPoint x="282" y="17268"/><mxPoint x="194" y="17268"/></Array></mxGeometry></mxCell><mxCell id="226" value="" style="group;direction=east;rotation=0;fillColor=#dae8fc;strokeColor=#6c8ebf;fontStyle=1;fontFamily=Helvetica;sketch=1;fontColor=#1A1A1A;" parent="1" vertex="1" connectable="0"><mxGeometry x="548.75" y="17303" width="56.5" height="53" as="geometry"/></mxCell><mxCell id="227" value="6" style="rounded=0;whiteSpace=wrap;html=1;sketch=1;fillColor=#dae8fc;strokeColor=#6c8ebf;fontSize=20;fontStyle=1;direction=east;rotation=0;fontFamily=Helvetica;fontColor=#1A1A1A;" parent="226" vertex="1"><mxGeometry width="56.49999999999998" height="53" as="geometry"/></mxCell><mxCell id="228" value="" style="group;direction=east;rotation=0;fillColor=#dae8fc;strokeColor=#6c8ebf;fontStyle=1;fontFamily=Helvetica;sketch=1;fontColor=#1A1A1A;" parent="1" vertex="1" connectable="0"><mxGeometry x="492.25" y="17303" width="56.5" height="53" as="geometry"/></mxCell><mxCell id="229" value="3" style="rounded=0;whiteSpace=wrap;html=1;sketch=1;fillColor=#dae8fc;strokeColor=#6c8ebf;fontSize=20;fontStyle=1;direction=east;rotation=0;fontFamily=Helvetica;fontColor=#1A1A1A;" parent="228" vertex="1"><mxGeometry width="56.49999999999998" height="53" as="geometry"/></mxCell><mxCell id="230" value="" style="group;direction=east;rotation=0;fillColor=#dae8fc;strokeColor=#6c8ebf;fontStyle=1;fontFamily=Helvetica;sketch=1;fontColor=#1A1A1A;" parent="1" vertex="1" connectable="0"><mxGeometry x="435.75" y="17303" width="56.5" height="53" as="geometry"/></mxCell><mxCell id="231" value="2" style="rounded=0;whiteSpace=wrap;html=1;sketch=1;fillColor=#dae8fc;strokeColor=#6c8ebf;fontSize=20;fontStyle=1;direction=east;rotation=0;fontFamily=Helvetica;fontColor=#1A1A1A;" parent="230" vertex="1"><mxGeometry width="56.49999999999998" height="53" as="geometry"/></mxCell><mxCell id="232" value="8" style="rounded=0;whiteSpace=wrap;html=1;sketch=1;fillColor=#dae8fc;strokeColor=#6c8ebf;fontSize=20;fontStyle=1;direction=east;rotation=0;fontFamily=Helvetica;fontColor=#1A1A1A;" parent="1" vertex="1"><mxGeometry x="605.25" y="17303" width="56.49999999999998" height="53" as="geometry"/></mxCell><mxCell id="233" style="edgeStyle=orthogonalEdgeStyle;curved=1;rounded=0;sketch=1;orthogonalLoop=1;jettySize=auto;html=1;entryX=0;entryY=0;entryDx=0;entryDy=0;shadow=0;strokeColor=#1A1A1A;fontFamily=Helvetica;fontColor=#1A1A1A;exitX=0;exitY=1;exitDx=0;exitDy=0;" parent="1" source="215" target="227" edge="1"><mxGeometry relative="1" as="geometry"/></mxCell><mxCell id="234" style="edgeStyle=orthogonalEdgeStyle;curved=1;rounded=0;sketch=1;orthogonalLoop=1;jettySize=auto;html=1;entryX=0;entryY=0;entryDx=0;entryDy=0;shadow=0;strokeColor=#1A1A1A;fontFamily=Helvetica;fontColor=#1A1A1A;exitX=0;exitY=1;exitDx=0;exitDy=0;" parent="1" source="221" target="227" edge="1"><mxGeometry relative="1" as="geometry"><mxPoint x="474" y="17248" as="sourcePoint"/><mxPoint x="558.75" y="17313" as="targetPoint"/></mxGeometry></mxCell><mxCell id="235" value="" style="group;direction=east;rotation=0;fillColor=#ffe6cc;strokeColor=#d79b00;fontStyle=1;fontFamily=Helvetica;sketch=1;fontColor=#1A1A1A;" parent="1" vertex="1" connectable="0"><mxGeometry x="201.88" y="17482" width="56.5" height="53" as="geometry"/></mxCell><mxCell id="236" value="5" style="rounded=0;whiteSpace=wrap;html=1;sketch=1;fillColor=#ffe6cc;strokeColor=#d79b00;fontSize=20;fontStyle=1;direction=east;rotation=0;fontFamily=Helvetica;fontColor=#1A1A1A;" parent="235" vertex="1"><mxGeometry width="56.49999999999998" height="53" as="geometry"/></mxCell><mxCell id="237" value="" style="group;direction=east;rotation=0;fillColor=#ffe6cc;strokeColor=#d79b00;fontStyle=1;fontFamily=Helvetica;sketch=1;fontColor=#1A1A1A;" parent="1" vertex="1" connectable="0"><mxGeometry x="145.38" y="17482" width="56.5" height="53" as="geometry"/></mxCell><mxCell id="238" value="4" style="rounded=0;whiteSpace=wrap;html=1;sketch=1;fillColor=#ffe6cc;strokeColor=#d79b00;fontSize=20;fontStyle=1;direction=east;rotation=0;fontFamily=Helvetica;fontColor=#1A1A1A;" parent="237" vertex="1"><mxGeometry width="56.49999999999998" height="53" as="geometry"/></mxCell><mxCell id="239" value="" style="group;direction=east;rotation=0;fillColor=#ffe6cc;strokeColor=#d79b00;fontStyle=1;fontFamily=Helvetica;sketch=1;fontColor=#1A1A1A;" parent="1" vertex="1" connectable="0"><mxGeometry x="88.88" y="17482" width="56.5" height="53" as="geometry"/></mxCell><mxCell id="240" value="1" style="rounded=0;whiteSpace=wrap;html=1;sketch=1;fillColor=#ffe6cc;strokeColor=#d79b00;fontSize=20;fontStyle=1;direction=east;rotation=0;fontFamily=Helvetica;fontColor=#1A1A1A;" parent="239" vertex="1"><mxGeometry width="56.49999999999998" height="53" as="geometry"/></mxCell><mxCell id="257" value="7" style="rounded=0;whiteSpace=wrap;html=1;sketch=1;fillColor=#ffe6cc;strokeColor=#d79b00;fontSize=20;fontStyle=1;direction=east;rotation=0;fontFamily=Helvetica;fontColor=#1A1A1A;" parent="1" vertex="1"><mxGeometry x="258.38" y="17482" width="56.49999999999998" height="53" as="geometry"/></mxCell><mxCell id="260" value="" style="group;direction=east;rotation=0;fillColor=#ffe6cc;strokeColor=#d79b00;fontStyle=1;fontFamily=Helvetica;sketch=1;fontColor=#1A1A1A;" parent="1" vertex="1" connectable="0"><mxGeometry x="556.63" y="17482" width="56.5" height="53" as="geometry"/></mxCell><mxCell id="261" value="6" style="rounded=0;whiteSpace=wrap;html=1;sketch=1;fillColor=#ffe6cc;strokeColor=#d79b00;fontSize=20;fontStyle=1;direction=east;rotation=0;fontFamily=Helvetica;fontColor=#1A1A1A;" parent="260" vertex="1"><mxGeometry width="56.49999999999998" height="53" as="geometry"/></mxCell><mxCell id="262" value="" style="group;direction=east;rotation=0;fillColor=#ffe6cc;strokeColor=#d79b00;fontStyle=1;fontFamily=Helvetica;sketch=1;fontColor=#1A1A1A;" parent="1" vertex="1" connectable="0"><mxGeometry x="500.13" y="17482" width="56.5" height="53" as="geometry"/></mxCell><mxCell id="263" value="3" style="rounded=0;whiteSpace=wrap;html=1;sketch=1;fillColor=#ffe6cc;strokeColor=#d79b00;fontSize=20;fontStyle=1;direction=east;rotation=0;fontFamily=Helvetica;fontColor=#1A1A1A;" parent="262" vertex="1"><mxGeometry width="56.49999999999998" height="53" as="geometry"/></mxCell><mxCell id="264" value="" style="group;direction=east;rotation=0;fillColor=#ffe6cc;strokeColor=#d79b00;fontStyle=1;fontFamily=Helvetica;sketch=1;fontColor=#1A1A1A;" parent="1" vertex="1" connectable="0"><mxGeometry x="443.63" y="17482" width="56.5" height="53" as="geometry"/></mxCell><mxCell id="265" value="2" style="rounded=0;whiteSpace=wrap;html=1;sketch=1;fillColor=#ffe6cc;strokeColor=#d79b00;fontSize=20;fontStyle=1;direction=east;rotation=0;fontFamily=Helvetica;fontColor=#1A1A1A;" parent="264" vertex="1"><mxGeometry width="56.49999999999998" height="53" as="geometry"/></mxCell><mxCell id="266" value="8" style="rounded=0;whiteSpace=wrap;html=1;sketch=1;fillColor=#ffe6cc;strokeColor=#d79b00;fontSize=20;fontStyle=1;direction=east;rotation=0;fontFamily=Helvetica;fontColor=#1A1A1A;" parent="1" vertex="1"><mxGeometry x="613.13" y="17482" width="56.49999999999998" height="53" as="geometry"/></mxCell><mxCell id="269" value="" style="group;direction=east;rotation=0;fillColor=#dae8fc;strokeColor=#6c8ebf;fontStyle=1;fontFamily=Helvetica;sketch=1;fontColor=#1A1A1A;" parent="1" vertex="1" connectable="0"><mxGeometry x="281.25" y="17607" width="56.5" height="53" as="geometry"/></mxCell><mxCell id="270" value="3" style="rounded=0;whiteSpace=wrap;html=1;sketch=1;fillColor=#dae8fc;strokeColor=#6c8ebf;fontSize=20;fontStyle=1;direction=east;rotation=0;fontFamily=Helvetica;fontColor=#1A1A1A;" parent="269" vertex="1"><mxGeometry width="56.49999999999998" height="53" as="geometry"/></mxCell><mxCell id="271" value="" style="group;direction=east;rotation=0;fillColor=#dae8fc;strokeColor=#6c8ebf;fontStyle=1;fontFamily=Helvetica;sketch=1;fontColor=#1A1A1A;" parent="1" vertex="1" connectable="0"><mxGeometry x="224.75" y="17607" width="56.5" height="53" as="geometry"/></mxCell><mxCell id="272" value="2" style="rounded=0;whiteSpace=wrap;html=1;sketch=1;fillColor=#dae8fc;strokeColor=#6c8ebf;fontSize=20;fontStyle=1;direction=east;rotation=0;fontFamily=Helvetica;fontColor=#1A1A1A;" parent="271" vertex="1"><mxGeometry width="56.49999999999998" height="53" as="geometry"/></mxCell><mxCell id="273" value="" style="group;direction=east;rotation=0;fillColor=#dae8fc;strokeColor=#6c8ebf;fontStyle=1;fontFamily=Helvetica;sketch=1;fontColor=#1A1A1A;" parent="1" vertex="1" connectable="0"><mxGeometry x="168.25" y="17607" width="56.5" height="53" as="geometry"/></mxCell><mxCell id="274" value="1" style="rounded=0;whiteSpace=wrap;html=1;sketch=1;fillColor=#dae8fc;strokeColor=#6c8ebf;fontSize=20;fontStyle=1;direction=east;rotation=0;fontFamily=Helvetica;fontColor=#1A1A1A;" parent="273" vertex="1"><mxGeometry width="56.49999999999998" height="53" as="geometry"/></mxCell><mxCell id="275" value="4" style="rounded=0;whiteSpace=wrap;html=1;sketch=1;fillColor=#dae8fc;strokeColor=#6c8ebf;fontSize=20;fontStyle=1;direction=east;rotation=0;fontFamily=Helvetica;fontColor=#1A1A1A;" parent="1" vertex="1"><mxGeometry x="337.75" y="17607" width="56.49999999999998" height="53" as="geometry"/></mxCell><mxCell id="276" value="" style="group;direction=east;rotation=0;fillColor=#dae8fc;strokeColor=#6c8ebf;fontStyle=1;fontFamily=Helvetica;sketch=1;fontColor=#1A1A1A;" parent="1" vertex="1" connectable="0"><mxGeometry x="507.25" y="17607" width="56.5" height="53" as="geometry"/></mxCell><mxCell id="277" value="7" style="rounded=0;whiteSpace=wrap;html=1;sketch=1;fillColor=#dae8fc;strokeColor=#6c8ebf;fontSize=20;fontStyle=1;direction=east;rotation=0;fontFamily=Helvetica;fontColor=#1A1A1A;" parent="276" vertex="1"><mxGeometry width="56.49999999999998" height="53" as="geometry"/></mxCell><mxCell id="278" value="" style="group;direction=east;rotation=0;fillColor=#dae8fc;strokeColor=#6c8ebf;fontStyle=1;fontFamily=Helvetica;sketch=1;fontColor=#1A1A1A;" parent="1" vertex="1" connectable="0"><mxGeometry x="450.75" y="17607" width="56.5" height="53" as="geometry"/></mxCell><mxCell id="279" value="6" style="rounded=0;whiteSpace=wrap;html=1;sketch=1;fillColor=#dae8fc;strokeColor=#6c8ebf;fontSize=20;fontStyle=1;direction=east;rotation=0;fontFamily=Helvetica;fontColor=#1A1A1A;" parent="278" vertex="1"><mxGeometry width="56.49999999999998" height="53" as="geometry"/></mxCell><mxCell id="280" value="" style="group;direction=east;rotation=0;fillColor=#dae8fc;strokeColor=#6c8ebf;fontStyle=1;fontFamily=Helvetica;sketch=1;fontColor=#1A1A1A;" parent="1" vertex="1" connectable="0"><mxGeometry x="394.25" y="17607" width="56.5" height="53" as="geometry"/></mxCell><mxCell id="281" value="5" style="rounded=0;whiteSpace=wrap;html=1;sketch=1;fillColor=#dae8fc;strokeColor=#6c8ebf;fontSize=20;fontStyle=1;direction=east;rotation=0;fontFamily=Helvetica;fontColor=#1A1A1A;" parent="280" vertex="1"><mxGeometry width="56.49999999999998" height="53" as="geometry"/></mxCell><mxCell id="282" value="8" style="rounded=0;whiteSpace=wrap;html=1;sketch=1;fillColor=#dae8fc;strokeColor=#6c8ebf;fontSize=20;fontStyle=1;direction=east;rotation=0;fontFamily=Helvetica;fontColor=#1A1A1A;" parent="1" vertex="1"><mxGeometry x="563.75" y="17607" width="56.49999999999998" height="53" as="geometry"/></mxCell><mxCell id="283" style="edgeStyle=orthogonalEdgeStyle;curved=1;rounded=0;sketch=1;orthogonalLoop=1;jettySize=auto;html=1;exitX=0;exitY=1;exitDx=0;exitDy=0;entryX=1;entryY=0;entryDx=0;entryDy=0;shadow=0;strokeColor=#1A1A1A;fontFamily=Helvetica;fontColor=#1A1A1A;" parent="1" source="236" target="275" edge="1"><mxGeometry relative="1" as="geometry"/></mxCell><mxCell id="284" style="edgeStyle=orthogonalEdgeStyle;curved=1;rounded=0;sketch=1;orthogonalLoop=1;jettySize=auto;html=1;exitX=0;exitY=1;exitDx=0;exitDy=0;shadow=0;strokeColor=#1A1A1A;fontFamily=Helvetica;fontColor=#1A1A1A;entryX=0;entryY=0;entryDx=0;entryDy=0;" parent="1" source="261" target="281" edge="1"><mxGeometry relative="1" as="geometry"><mxPoint x="431.28571428571445" y="17583.14285714286" as="targetPoint"/></mxGeometry></mxCell><mxCell id="285" value="" style="group;direction=east;rotation=0;fillColor=#dae8fc;strokeColor=#6c8ebf;fontStyle=1;fontFamily=Helvetica;sketch=1;fontColor=#1A1A1A;" parent="1" vertex="1" connectable="0"><mxGeometry x="225.06" y="17823" width="56.5" height="53" as="geometry"/></mxCell><mxCell id="286" value="7" style="rounded=0;whiteSpace=wrap;html=1;sketch=1;fillColor=#dae8fc;strokeColor=#6c8ebf;fontSize=20;fontStyle=1;direction=east;rotation=0;fontFamily=Helvetica;fontColor=#1A1A1A;" parent="285" vertex="1"><mxGeometry width="56.49999999999998" height="53" as="geometry"/></mxCell><mxCell id="289" value="" style="group;direction=east;rotation=0;fillColor=#fff2cc;strokeColor=#d6b656;fontStyle=1;fontFamily=Helvetica;sketch=1;" parent="1" vertex="1" connectable="0"><mxGeometry x="12" y="17812" width="56.5" height="53" as="geometry"/></mxCell><mxCell id="290" value="3" style="rounded=0;whiteSpace=wrap;html=1;sketch=1;fillColor=#fff2cc;strokeColor=#d6b656;fontSize=20;fontStyle=1;direction=east;rotation=0;fontFamily=Helvetica;fontColor=#1A1A1A;" parent="289" vertex="1"><mxGeometry width="56.49999999999998" height="53" as="geometry"/></mxCell><mxCell id="291" value="8" style="rounded=0;whiteSpace=wrap;html=1;sketch=1;fillColor=#dae8fc;strokeColor=#6c8ebf;fontSize=20;fontStyle=1;direction=east;rotation=0;fontFamily=Helvetica;fontColor=#1A1A1A;" parent="1" vertex="1"><mxGeometry x="281.56" y="17823" width="56.49999999999998" height="53" as="geometry"/></mxCell><mxCell id="292" value="" style="group;direction=east;rotation=0;fillColor=#dae8fc;strokeColor=#6c8ebf;fontStyle=1;fontFamily=Helvetica;sketch=1;fontColor=#1A1A1A;" parent="1" vertex="1" connectable="0"><mxGeometry x="533.44" y="17823" width="56.5" height="53" as="geometry"/></mxCell><mxCell id="293" value="5" style="rounded=0;whiteSpace=wrap;html=1;sketch=1;fillColor=#dae8fc;strokeColor=#6c8ebf;fontSize=20;fontStyle=1;direction=east;rotation=0;fontFamily=Helvetica;fontColor=#1A1A1A;" parent="292" vertex="1"><mxGeometry width="56.49999999999998" height="53" as="geometry"/></mxCell><mxCell id="294" value="" style="group;direction=east;rotation=0;fillColor=#dae8fc;strokeColor=#6c8ebf;fontStyle=1;fontFamily=Helvetica;sketch=1;fontColor=#1A1A1A;" parent="1" vertex="1" connectable="0"><mxGeometry x="476.94" y="17823" width="56.5" height="53" as="geometry"/></mxCell><mxCell id="295" value="4" style="rounded=0;whiteSpace=wrap;html=1;sketch=1;fillColor=#dae8fc;strokeColor=#6c8ebf;fontSize=20;fontStyle=1;direction=east;rotation=0;fontFamily=Helvetica;fontColor=#1A1A1A;" parent="294" vertex="1"><mxGeometry width="56.49999999999998" height="53" as="geometry"/></mxCell><mxCell id="296" value="" style="group;direction=east;rotation=0;fillColor=#fff2cc;strokeColor=#d6b656;fontStyle=1;fontFamily=Helvetica;sketch=1;" parent="1" vertex="1" connectable="0"><mxGeometry x="12" y="17744" width="56.5" height="53" as="geometry"/></mxCell><mxCell id="297" value="4" style="rounded=0;whiteSpace=wrap;html=1;sketch=1;fillColor=#fff2cc;strokeColor=#d6b656;fontSize=20;fontStyle=1;direction=east;rotation=0;fontFamily=Helvetica;fontColor=#1A1A1A;" parent="296" vertex="1"><mxGeometry width="56.49999999999998" height="53" as="geometry"/></mxCell><mxCell id="298" value="6" style="rounded=0;whiteSpace=wrap;html=1;sketch=1;fillColor=#dae8fc;strokeColor=#6c8ebf;fontSize=20;fontStyle=1;direction=east;rotation=0;fontFamily=Helvetica;fontColor=#1A1A1A;" parent="1" vertex="1"><mxGeometry x="589.94" y="17823" width="56.49999999999998" height="53" as="geometry"/></mxCell><mxCell id="299" value="&lt;b&gt;Merge method:&lt;/b&gt;" style="text;html=1;align=center;verticalAlign=middle;resizable=0;points=[];autosize=1;fontFamily=Helvetica;fontColor=#1A1A1A;fontSize=17;" parent="1" vertex="1"><mxGeometry x="24.38" y="17692" width="128" height="24" as="geometry"/></mxCell><mxCell id="310" value="" style="group;rotation=-180;" parent="1" vertex="1" connectable="0"><mxGeometry x="187.5" y="17731" width="15" height="74" as="geometry"/></mxCell><mxCell id="301" value="&lt;font style=&quot;font-size: 21px&quot;&gt;i&lt;/font&gt;" style="text;html=1;align=center;verticalAlign=middle;resizable=0;points=[];autosize=1;fontSize=17;fontFamily=Helvetica;fontColor=#1A1A1A;fontStyle=1;rotation=0;" parent="310" vertex="1"><mxGeometry y="17" width="15" height="26" as="geometry"/></mxCell><mxCell id="300" value="" style="shape=flexArrow;endArrow=classic;html=1;shadow=0;strokeColor=#1A1A1A;fontFamily=Helvetica;fontSize=17;fontColor=#1A1A1A;endWidth=27.142857142857146;endSize=8;width=24.28571428571429;sketch=1;" parent="310" edge="1"><mxGeometry width="50" height="50" relative="1" as="geometry"><mxPoint x="8" as="sourcePoint"/><mxPoint x="8" y="74" as="targetPoint"/></mxGeometry></mxCell><mxCell id="311" value="" style="group;rotation=-180;" parent="1" vertex="1" connectable="0"><mxGeometry x="499" y="17731" width="15" height="74" as="geometry"/></mxCell><mxCell id="305" value="" style="shape=flexArrow;endArrow=classic;html=1;shadow=0;strokeColor=#1A1A1A;fontFamily=Helvetica;fontSize=17;fontColor=#1A1A1A;endWidth=27.142857142857146;endSize=8;width=24.28571428571429;sketch=1;" parent="311" edge="1"><mxGeometry width="50" height="50" relative="1" as="geometry"><mxPoint x="8" as="sourcePoint"/><mxPoint x="8" y="74" as="targetPoint"/></mxGeometry></mxCell><mxCell id="308" value="&lt;b&gt;&lt;font style=&quot;font-size: 20px&quot;&gt;j&lt;/font&gt;&lt;/b&gt;" style="text;html=1;align=center;verticalAlign=middle;resizable=0;points=[];autosize=1;fontSize=17;fontFamily=Helvetica;fontColor=#1A1A1A;rotation=0;" parent="311" vertex="1"><mxGeometry y="19" width="15" height="26" as="geometry"/></mxCell><mxCell id="312" value="" style="group;direction=east;rotation=0;fillColor=#d5e8d4;strokeColor=#82b366;fontStyle=1;fontFamily=Helvetica;sketch=1;" parent="1" vertex="1" connectable="0"><mxGeometry x="283" y="17964" width="56.5" height="53" as="geometry"/></mxCell><mxCell id="313" value="1" style="rounded=0;whiteSpace=wrap;html=1;sketch=1;fillColor=#d5e8d4;strokeColor=#82b366;fontSize=20;fontStyle=1;direction=east;rotation=0;fontFamily=Helvetica;fontColor=#1A1A1A;" parent="312" vertex="1"><mxGeometry width="56.49999999999998" height="53" as="geometry"/></mxCell><mxCell id="314" value="" style="group;direction=east;rotation=0;fillColor=#bac8d3;strokeColor=#23445d;fontStyle=1;fontFamily=Helvetica;sketch=1;textOpacity=50;opacity=10;fontColor=#1A1A1A;" parent="1" vertex="1" connectable="0"><mxGeometry x="420.44" y="17823" width="56.5" height="53" as="geometry"/></mxCell><mxCell id="315" value="&lt;font color=&quot;#1a1a1a&quot;&gt;2&lt;/font&gt;" style="rounded=0;whiteSpace=wrap;html=1;sketch=1;fontSize=20;fontStyle=1;direction=east;rotation=0;fontFamily=Helvetica;fillColor=none;dashed=1;strokeColor=#4E97CF;opacity=10;textOpacity=10;" parent="314" vertex="1"><mxGeometry width="56.49999999999998" height="53" as="geometry"/></mxCell><mxCell id="316" style="edgeStyle=orthogonalEdgeStyle;curved=1;rounded=0;sketch=1;orthogonalLoop=1;jettySize=auto;html=1;entryX=0.5;entryY=0;entryDx=0;entryDy=0;shadow=0;strokeColor=#1A1A1A;fontFamily=Helvetica;fontSize=20;fontColor=#1A1A1A;exitX=0.5;exitY=1;exitDx=0;exitDy=0;endArrow=none;endFill=0;dashed=1;opacity=10;" parent="1" source="315" target="319" edge="1"><mxGeometry relative="1" as="geometry"/></mxCell><mxCell id="318" value="" style="group;direction=east;rotation=0;fillColor=#d5e8d4;strokeColor=#82b366;fontStyle=1;fontFamily=Helvetica;sketch=1;" parent="1" vertex="1" connectable="0"><mxGeometry x="339.56" y="17964" width="56.5" height="53" as="geometry"/></mxCell><mxCell id="319" value="2" style="rounded=0;whiteSpace=wrap;html=1;sketch=1;fillColor=#d5e8d4;strokeColor=#82b366;fontSize=20;fontStyle=1;direction=east;rotation=0;fontFamily=Helvetica;fontColor=#1A1A1A;" parent="318" vertex="1"><mxGeometry width="56.49999999999998" height="53" as="geometry"/></mxCell><mxCell id="320" value="" style="group;direction=east;rotation=0;fillColor=#dae8fc;strokeColor=#6c8ebf;fontStyle=1;fontFamily=Helvetica;sketch=1;" parent="1" vertex="1" connectable="0"><mxGeometry x="168.56" y="17823" width="56.5" height="53" as="geometry"/></mxCell><mxCell id="321" value="3" style="rounded=0;whiteSpace=wrap;html=1;sketch=1;fillColor=#dae8fc;strokeColor=#6c8ebf;fontSize=20;fontStyle=1;direction=east;rotation=0;fontFamily=Helvetica;fontColor=#1A1A1A;" parent="320" vertex="1"><mxGeometry width="56.49999999999998" height="53" as="geometry"/></mxCell><mxCell id="401" value="" style="group;rotation=-180;" parent="1" vertex="1" connectable="0"><mxGeometry x="347" y="18043" width="15" height="74" as="geometry"/></mxCell><mxCell id="402" value="&lt;font style=&quot;font-size: 21px&quot;&gt;i&lt;/font&gt;" style="text;html=1;align=center;verticalAlign=middle;resizable=0;points=[];autosize=1;fontSize=17;fontFamily=Helvetica;fontColor=#1A1A1A;fontStyle=1;rotation=0;" parent="401" vertex="1"><mxGeometry y="17" width="15" height="26" as="geometry"/></mxCell><mxCell id="403" value="" style="shape=flexArrow;endArrow=classic;html=1;shadow=0;strokeColor=#1A1A1A;fontFamily=Helvetica;fontSize=17;fontColor=#1A1A1A;endWidth=27.142857142857146;endSize=8;width=24.28571428571429;sketch=1;" parent="401" edge="1"><mxGeometry width="50" height="50" relative="1" as="geometry"><mxPoint x="8" as="sourcePoint"/><mxPoint x="8" y="74" as="targetPoint"/><Array as="points"><mxPoint x="7.689999999999998" y="50"/></Array></mxGeometry></mxCell><mxCell id="407" value="" style="group;direction=east;rotation=0;fillColor=#d5e8d4;strokeColor=#82b366;fontStyle=1;fontFamily=Helvetica;sketch=1;" parent="1" vertex="1" connectable="0"><mxGeometry x="179.69" y="18266" width="56.5" height="53" as="geometry"/></mxCell><mxCell id="408" value="1" style="rounded=0;whiteSpace=wrap;html=1;sketch=1;fillColor=#d5e8d4;strokeColor=#82b366;fontSize=20;fontStyle=1;direction=east;rotation=0;fontFamily=Helvetica;fontColor=#1A1A1A;" parent="407" vertex="1"><mxGeometry width="56.49999999999998" height="53" as="geometry"/></mxCell><mxCell id="409" value="" style="group;direction=east;rotation=0;fillColor=#bac8d3;strokeColor=#23445d;fontStyle=1;fontFamily=Helvetica;sketch=1;textOpacity=50;opacity=10;fontColor=#1A1A1A;" parent="1" vertex="1" connectable="0"><mxGeometry x="271.9999999999999" y="18128" width="56.5" height="53" as="geometry"/></mxCell><mxCell id="410" value="&lt;font color=&quot;#1a1a1a&quot;&gt;7&lt;/font&gt;" style="rounded=0;whiteSpace=wrap;html=1;sketch=1;fontSize=20;fontStyle=1;direction=east;rotation=0;fontFamily=Helvetica;fillColor=none;dashed=1;strokeColor=#4E97CF;opacity=10;textOpacity=10;" parent="409" vertex="1"><mxGeometry width="56.49999999999998" height="53" as="geometry"/></mxCell><mxCell id="411" style="edgeStyle=orthogonalEdgeStyle;curved=1;rounded=0;sketch=1;orthogonalLoop=1;jettySize=auto;html=1;entryX=0.5;entryY=0;entryDx=0;entryDy=0;shadow=0;strokeColor=#1A1A1A;fontFamily=Helvetica;fontSize=20;fontColor=#1A1A1A;exitX=0.5;exitY=1;exitDx=0;exitDy=0;endArrow=none;endFill=0;dashed=1;opacity=10;" parent="1" source="410" target="425" edge="1"><mxGeometry relative="1" as="geometry"><mxPoint x="599.7300000000002" y="18123" as="targetPoint"/></mxGeometry></mxCell><mxCell id="412" value="" style="group;direction=east;rotation=0;fillColor=#d5e8d4;strokeColor=#82b366;fontStyle=1;fontFamily=Helvetica;sketch=1;" parent="1" vertex="1" connectable="0"><mxGeometry x="236.25" y="18266" width="56.5" height="53" as="geometry"/></mxCell><mxCell id="413" value="2" style="rounded=0;whiteSpace=wrap;html=1;sketch=1;fillColor=#d5e8d4;strokeColor=#82b366;fontSize=20;fontStyle=1;direction=east;rotation=0;fontFamily=Helvetica;fontColor=#1A1A1A;" parent="412" vertex="1"><mxGeometry width="56.49999999999998" height="53" as="geometry"/></mxCell><mxCell id="416" value="" style="group;direction=east;rotation=0;fillColor=#d5e8d4;strokeColor=#82b366;fontStyle=1;fontFamily=Helvetica;sketch=1;" parent="1" vertex="1" connectable="0"><mxGeometry x="292.44" y="18266" width="56.5" height="53" as="geometry"/></mxCell><mxCell id="417" value="3" style="rounded=0;whiteSpace=wrap;html=1;sketch=1;fillColor=#d5e8d4;strokeColor=#82b366;fontSize=20;fontStyle=1;direction=east;rotation=0;fontFamily=Helvetica;fontColor=#1A1A1A;" parent="416" vertex="1"><mxGeometry width="56.49999999999998" height="53" as="geometry"/></mxCell><mxCell id="418" value="" style="group;direction=east;rotation=0;fillColor=#d5e8d4;strokeColor=#82b366;fontStyle=1;fontFamily=Helvetica;sketch=1;" parent="1" vertex="1" connectable="0"><mxGeometry x="348.94" y="18266" width="56.5" height="53" as="geometry"/></mxCell><mxCell id="419" value="4" style="rounded=0;whiteSpace=wrap;html=1;sketch=1;fillColor=#d5e8d4;strokeColor=#82b366;fontSize=20;fontStyle=1;direction=east;rotation=0;fontFamily=Helvetica;fontColor=#1A1A1A;" parent="418" vertex="1"><mxGeometry width="56.49999999999998" height="53" as="geometry"/></mxCell><mxCell id="420" value="" style="group;direction=east;rotation=0;fillColor=#d5e8d4;strokeColor=#82b366;fontStyle=1;fontFamily=Helvetica;sketch=1;" parent="1" vertex="1" connectable="0"><mxGeometry x="405.44" y="18266" width="56.5" height="53" as="geometry"/></mxCell><mxCell id="421" value="5" style="rounded=0;whiteSpace=wrap;html=1;sketch=1;fillColor=#d5e8d4;strokeColor=#82b366;fontSize=20;fontStyle=1;direction=east;rotation=0;fontFamily=Helvetica;fontColor=#1A1A1A;" parent="420" vertex="1"><mxGeometry width="56.49999999999998" height="53" as="geometry"/></mxCell><mxCell id="422" value="" style="group;direction=east;rotation=0;fillColor=#d5e8d4;strokeColor=#82b366;fontStyle=1;fontFamily=Helvetica;sketch=1;" parent="1" vertex="1" connectable="0"><mxGeometry x="461.94" y="18266" width="56.5" height="53" as="geometry"/></mxCell><mxCell id="423" value="6" style="rounded=0;whiteSpace=wrap;html=1;sketch=1;fillColor=#d5e8d4;strokeColor=#82b366;fontSize=20;fontStyle=1;direction=east;rotation=0;fontFamily=Helvetica;fontColor=#1A1A1A;" parent="422" vertex="1"><mxGeometry width="56.49999999999998" height="53" as="geometry"/></mxCell><mxCell id="424" value="" style="group;direction=east;rotation=0;fillColor=#d5e8d4;strokeColor=#82b366;fontStyle=1;fontFamily=Helvetica;sketch=1;" parent="1" vertex="1" connectable="0"><mxGeometry x="517.75" y="18266" width="56.5" height="53" as="geometry"/></mxCell><mxCell id="425" value="7" style="rounded=0;whiteSpace=wrap;html=1;sketch=1;fillColor=#d5e8d4;strokeColor=#82b366;fontSize=20;fontStyle=1;direction=east;rotation=0;fontFamily=Helvetica;fontColor=#1A1A1A;" parent="424" vertex="1"><mxGeometry width="56.49999999999998" height="53" as="geometry"/></mxCell><mxCell id="426" value="" style="group;direction=east;rotation=0;fillColor=#d5e8d4;strokeColor=#82b366;fontStyle=1;fontFamily=Helvetica;sketch=1;" parent="1" vertex="1" connectable="0"><mxGeometry x="574.25" y="18266" width="56.5" height="53" as="geometry"/></mxCell><mxCell id="427" value="8" style="rounded=0;whiteSpace=wrap;html=1;sketch=1;fillColor=#d5e8d4;strokeColor=#82b366;fontSize=20;fontStyle=1;direction=east;rotation=0;fontFamily=Helvetica;fontColor=#1A1A1A;" parent="426" vertex="1"><mxGeometry width="56.49999999999998" height="53" as="geometry"/></mxCell><mxCell id="428" value="" style="group;direction=east;rotation=0;fillColor=#bac8d3;strokeColor=#23445d;fontStyle=1;fontFamily=Helvetica;sketch=1;textOpacity=50;opacity=10;fontColor=#1A1A1A;" parent="1" vertex="1" connectable="0"><mxGeometry x="328.4999999999999" y="18128" width="56.5" height="53" as="geometry"/></mxCell><mxCell id="429" value="&lt;font color=&quot;#1a1a1a&quot;&gt;8&lt;/font&gt;" style="rounded=0;whiteSpace=wrap;html=1;sketch=1;fontSize=20;fontStyle=1;direction=east;rotation=0;fontFamily=Helvetica;fillColor=none;dashed=1;strokeColor=#4E97CF;opacity=10;textOpacity=10;" parent="428" vertex="1"><mxGeometry width="56.49999999999998" height="53" as="geometry"/></mxCell><mxCell id="430" style="edgeStyle=orthogonalEdgeStyle;curved=1;rounded=0;sketch=1;orthogonalLoop=1;jettySize=auto;html=1;entryX=0.5;entryY=0;entryDx=0;entryDy=0;shadow=0;dashed=1;endArrow=none;endFill=0;strokeColor=#1A1A1A;fontFamily=Helvetica;fontSize=20;fontColor=#1A1A1A;opacity=10;exitX=0.5;exitY=1;exitDx=0;exitDy=0;" parent="1" source="429" target="427" edge="1"><mxGeometry relative="1" as="geometry"><Array as="points"><mxPoint x="357" y="18205"/><mxPoint x="603" y="18205"/></Array></mxGeometry></mxCell><mxCell id="431" value="&lt;b&gt;&lt;font style=&quot;font-size: 25px&quot;&gt;Call stack during mergeSort execution:&lt;/font&gt;&lt;br&gt;&lt;/b&gt;" style="text;html=1;align=center;verticalAlign=middle;resizable=0;points=[];autosize=1;fontFamily=Helvetica;fontColor=#1A1A1A;fontSize=17;" parent="1" vertex="1"><mxGeometry x="17" y="18349" width="472" height="28" as="geometry"/></mxCell><mxCell id="439" value="" style="shape=cylinder3;whiteSpace=wrap;html=1;boundedLbl=1;backgroundOutline=1;size=15;lid=0;sketch=1;strokeColor=#1A1A1A;strokeWidth=3;fillColor=none;gradientColor=none;fontFamily=Verdana;fontSize=10;" parent="1" vertex="1"><mxGeometry x="160.7" y="18772" width="115.5" height="294" as="geometry"/></mxCell><mxCell id="440" value="&lt;pre&gt;&lt;font color=&quot;#1a1a1a&quot; style=&quot;font-size: 15px&quot;&gt;mergeSort&lt;/font&gt;&lt;/pre&gt;" style="shape=cylinder3;whiteSpace=wrap;html=1;boundedLbl=1;backgroundOutline=1;size=15;sketch=0;strokeColor=#b46504;strokeWidth=3;fillColor=#fad7ac;fontFamily=Verdana;fontSize=10;spacingTop=-30;" parent="1" vertex="1"><mxGeometry x="168.7" y="18979" width="96.5" height="80" as="geometry"/></mxCell><mxCell id="449" value="" style="group" parent="1" vertex="1" connectable="0"><mxGeometry x="178.45" y="19028" width="80" height="20" as="geometry"/></mxCell><mxCell id="448" value="" style="group" parent="449" vertex="1" connectable="0"><mxGeometry width="80" height="20" as="geometry"/></mxCell><mxCell id="444" value="3" style="rounded=0;whiteSpace=wrap;html=1;sketch=0;fontSize=13;fontStyle=0;direction=east;rotation=0;fontFamily=Helvetica;verticalAlign=middle;fillColor=none;fontColor=#1A1A1A;strokeColor=#4D4D4D;" parent="448" vertex="1"><mxGeometry width="20" height="20" as="geometry"/></mxCell><mxCell id="445" value="1" style="rounded=0;whiteSpace=wrap;html=1;sketch=0;fontSize=13;fontStyle=0;direction=east;rotation=0;fontFamily=Helvetica;verticalAlign=middle;fillColor=none;fontColor=#1A1A1A;strokeColor=#4D4D4D;" parent="448" vertex="1"><mxGeometry x="20" width="20" height="20" as="geometry"/></mxCell><mxCell id="446" value="4" style="rounded=0;whiteSpace=wrap;html=1;sketch=0;fontSize=13;fontStyle=0;direction=east;rotation=0;fontFamily=Helvetica;verticalAlign=middle;fillColor=none;fontColor=#1A1A1A;strokeColor=#4D4D4D;" parent="448" vertex="1"><mxGeometry x="40" width="20" height="20" as="geometry"/></mxCell><mxCell id="447" value="2" style="rounded=0;whiteSpace=wrap;html=1;sketch=0;fontSize=13;fontStyle=0;direction=east;rotation=0;fontFamily=Helvetica;verticalAlign=middle;fillColor=none;fontColor=#1A1A1A;strokeColor=#4D4D4D;" parent="448" vertex="1"><mxGeometry x="60" width="20" height="20" as="geometry"/></mxCell><mxCell id="461" value="" style="shape=cylinder3;whiteSpace=wrap;html=1;boundedLbl=1;backgroundOutline=1;size=15;lid=0;sketch=1;strokeColor=#1A1A1A;strokeWidth=3;fillColor=none;gradientColor=none;fontFamily=Verdana;fontSize=10;" parent="1" vertex="1"><mxGeometry x="519.2500000000001" y="19442" width="115.5" height="294" as="geometry"/></mxCell><mxCell id="462" value="&lt;pre&gt;&lt;font color=&quot;#1a1a1a&quot; style=&quot;font-size: 15px&quot;&gt;mergeSort&lt;/font&gt;&lt;/pre&gt;" style="shape=cylinder3;whiteSpace=wrap;html=1;boundedLbl=1;backgroundOutline=1;size=15;sketch=0;strokeColor=#b46504;strokeWidth=3;fillColor=#fad7ac;fontFamily=Verdana;fontSize=10;spacingTop=-30;" parent="1" vertex="1"><mxGeometry x="527.2500000000001" y="19649" width="96.5" height="80" as="geometry"/></mxCell><mxCell id="463" value="&lt;pre&gt;&lt;font color=&quot;#1a1a1a&quot; style=&quot;font-size: 15px&quot;&gt;mergeSort&lt;/font&gt;&lt;/pre&gt;" style="shape=cylinder3;whiteSpace=wrap;html=1;boundedLbl=1;backgroundOutline=1;size=15;sketch=0;strokeColor=#23445d;strokeWidth=3;fillColor=#bac8d3;fontFamily=Verdana;fontSize=10;spacingTop=-30;" parent="1" vertex="1"><mxGeometry x="527.2500000000001" y="19588" width="96.5" height="80" as="geometry"/></mxCell><mxCell id="464" value="&lt;pre&gt;&lt;font color=&quot;#1a1a1a&quot; style=&quot;font-size: 15px&quot;&gt;mergeSort&lt;/font&gt;&lt;/pre&gt;" style="shape=cylinder3;whiteSpace=wrap;html=1;boundedLbl=1;backgroundOutline=1;size=15;sketch=0;strokeColor=#ae4132;strokeWidth=3;fillColor=#fad9d5;fontFamily=Verdana;fontSize=10;spacingTop=-30;" parent="1" vertex="1"><mxGeometry x="527.2500000000001" y="19528" width="96.5" height="80" as="geometry"/></mxCell><mxCell id="466" value="" style="group" parent="1" vertex="1" connectable="0"><mxGeometry x="537.0000000000001" y="19698" width="80" height="20" as="geometry"/></mxCell><mxCell id="467" value="" style="group" parent="466" vertex="1" connectable="0"><mxGeometry width="80" height="20" as="geometry"/></mxCell><mxCell id="468" value="3" style="rounded=0;whiteSpace=wrap;html=1;sketch=0;fontSize=13;fontStyle=0;direction=east;rotation=0;fontFamily=Helvetica;verticalAlign=middle;fillColor=none;fontColor=#1A1A1A;strokeColor=#4D4D4D;" parent="467" vertex="1"><mxGeometry width="20" height="20" as="geometry"/></mxCell><mxCell id="469" value="1" style="rounded=0;whiteSpace=wrap;html=1;sketch=0;fontSize=13;fontStyle=0;direction=east;rotation=0;fontFamily=Helvetica;verticalAlign=middle;fillColor=none;fontColor=#1A1A1A;strokeColor=#4D4D4D;" parent="467" vertex="1"><mxGeometry x="20" width="20" height="20" as="geometry"/></mxCell><mxCell id="470" value="4" style="rounded=0;whiteSpace=wrap;html=1;sketch=0;fontSize=13;fontStyle=0;direction=east;rotation=0;fontFamily=Helvetica;verticalAlign=middle;fillColor=none;fontColor=#1A1A1A;strokeColor=#4D4D4D;" parent="467" vertex="1"><mxGeometry x="40" width="20" height="20" as="geometry"/></mxCell><mxCell id="471" value="2" style="rounded=0;whiteSpace=wrap;html=1;sketch=0;fontSize=13;fontStyle=0;direction=east;rotation=0;fontFamily=Helvetica;verticalAlign=middle;fillColor=none;fontColor=#1A1A1A;strokeColor=#4D4D4D;" parent="467" vertex="1"><mxGeometry x="60" width="20" height="20" as="geometry"/></mxCell><mxCell id="472" value="3" style="rounded=0;whiteSpace=wrap;html=1;sketch=0;fontSize=13;fontStyle=0;direction=east;rotation=0;fontFamily=Helvetica;verticalAlign=middle;fillColor=none;fontColor=#1A1A1A;strokeColor=#4D4D4D;" parent="1" vertex="1"><mxGeometry x="557.0000000000001" y="19640" width="20" height="20" as="geometry"/></mxCell><mxCell id="473" value="1" style="rounded=0;whiteSpace=wrap;html=1;sketch=0;fontSize=13;fontStyle=0;direction=east;rotation=0;fontFamily=Helvetica;verticalAlign=middle;fillColor=none;fontColor=#1A1A1A;strokeColor=#4D4D4D;" parent="1" vertex="1"><mxGeometry x="577.0000000000001" y="19640" width="20" height="20" as="geometry"/></mxCell><mxCell id="474" value="3" style="rounded=0;whiteSpace=wrap;html=1;sketch=0;fontSize=13;fontStyle=0;direction=east;rotation=0;fontFamily=Helvetica;verticalAlign=middle;fillColor=none;fontColor=#1A1A1A;strokeColor=#4D4D4D;" parent="1" vertex="1"><mxGeometry x="567.0000000000001" y="19581" width="20" height="20" as="geometry"/></mxCell><mxCell id="476" value="" style="shape=cylinder3;whiteSpace=wrap;html=1;boundedLbl=1;backgroundOutline=1;size=15;lid=0;sketch=1;strokeColor=#1A1A1A;strokeWidth=3;fillColor=none;gradientColor=none;fontFamily=Verdana;fontSize=10;" parent="1" vertex="1"><mxGeometry x="892.25" y="19431" width="115.5" height="294" as="geometry"/></mxCell><mxCell id="477" value="&lt;pre&gt;&lt;font color=&quot;#1a1a1a&quot; style=&quot;font-size: 15px&quot;&gt;mergeSort&lt;/font&gt;&lt;/pre&gt;" style="shape=cylinder3;whiteSpace=wrap;html=1;boundedLbl=1;backgroundOutline=1;size=15;sketch=0;strokeColor=#b46504;strokeWidth=3;fillColor=#fad7ac;fontFamily=Verdana;fontSize=10;spacingTop=-30;" parent="1" vertex="1"><mxGeometry x="900.25" y="19638" width="96.5" height="80" as="geometry"/></mxCell><mxCell id="478" value="&lt;pre&gt;&lt;font color=&quot;#1a1a1a&quot; style=&quot;font-size: 15px&quot;&gt;mergeSort&lt;/font&gt;&lt;/pre&gt;" style="shape=cylinder3;whiteSpace=wrap;html=1;boundedLbl=1;backgroundOutline=1;size=15;sketch=0;strokeColor=#23445d;strokeWidth=3;fillColor=#bac8d3;fontFamily=Verdana;fontSize=10;spacingTop=-30;" parent="1" vertex="1"><mxGeometry x="900.25" y="19577" width="96.5" height="80" as="geometry"/></mxCell><mxCell id="479" style="edgeStyle=orthogonalEdgeStyle;curved=1;rounded=0;sketch=1;orthogonalLoop=1;jettySize=auto;html=1;entryX=1;entryY=0.5;entryDx=0;entryDy=0;entryPerimeter=0;shadow=0;endArrow=classic;endFill=1;fontFamily=Helvetica;fontSize=13;fontColor=#1A1A1A;fillColor=#d5e8d4;strokeWidth=3;strokeColor=#3DC94A;" parent="1" source="480" target="478" edge="1"><mxGeometry relative="1" as="geometry"><Array as="points"><mxPoint x="1053.19" y="19557"/><mxPoint x="1053.19" y="19617"/></Array></mxGeometry></mxCell><mxCell id="480" value="&lt;pre&gt;&lt;font color=&quot;#1a1a1a&quot; style=&quot;font-size: 15px&quot;&gt;mergeSort&lt;/font&gt;&lt;/pre&gt;" style="shape=cylinder3;whiteSpace=wrap;html=1;boundedLbl=1;backgroundOutline=1;size=15;sketch=0;strokeColor=#ae4132;strokeWidth=3;fillColor=#fad9d5;fontFamily=Verdana;fontSize=10;spacingTop=-30;shadow=0;" parent="1" vertex="1"><mxGeometry x="900.25" y="19517" width="96.5" height="80" as="geometry"/></mxCell><mxCell id="481" value="" style="group" parent="1" vertex="1" connectable="0"><mxGeometry x="910" y="19687" width="80" height="20" as="geometry"/></mxCell><mxCell id="482" value="" style="group" parent="481" vertex="1" connectable="0"><mxGeometry width="80" height="20" as="geometry"/></mxCell><mxCell id="483" value="3" style="rounded=0;whiteSpace=wrap;html=1;sketch=0;fontSize=13;fontStyle=0;direction=east;rotation=0;fontFamily=Helvetica;verticalAlign=middle;fillColor=none;fontColor=#1A1A1A;strokeColor=#4D4D4D;" parent="482" vertex="1"><mxGeometry width="20" height="20" as="geometry"/></mxCell><mxCell id="484" value="1" style="rounded=0;whiteSpace=wrap;html=1;sketch=0;fontSize=13;fontStyle=0;direction=east;rotation=0;fontFamily=Helvetica;verticalAlign=middle;fillColor=none;fontColor=#1A1A1A;strokeColor=#4D4D4D;" parent="482" vertex="1"><mxGeometry x="20" width="20" height="20" as="geometry"/></mxCell><mxCell id="485" value="4" style="rounded=0;whiteSpace=wrap;html=1;sketch=0;fontSize=13;fontStyle=0;direction=east;rotation=0;fontFamily=Helvetica;verticalAlign=middle;fillColor=none;fontColor=#1A1A1A;strokeColor=#4D4D4D;" parent="482" vertex="1"><mxGeometry x="40" width="20" height="20" as="geometry"/></mxCell><mxCell id="486" value="2" style="rounded=0;whiteSpace=wrap;html=1;sketch=0;fontSize=13;fontStyle=0;direction=east;rotation=0;fontFamily=Helvetica;verticalAlign=middle;fillColor=none;fontColor=#1A1A1A;strokeColor=#4D4D4D;" parent="482" vertex="1"><mxGeometry x="60" width="20" height="20" as="geometry"/></mxCell><mxCell id="487" value="3" style="rounded=0;whiteSpace=wrap;html=1;sketch=0;fontSize=13;fontStyle=0;direction=east;rotation=0;fontFamily=Helvetica;verticalAlign=middle;fillColor=none;fontColor=#1A1A1A;strokeColor=#4D4D4D;" parent="1" vertex="1"><mxGeometry x="930" y="19629" width="20" height="20" as="geometry"/></mxCell><mxCell id="488" value="1" style="rounded=0;whiteSpace=wrap;html=1;sketch=0;fontSize=13;fontStyle=0;direction=east;rotation=0;fontFamily=Helvetica;verticalAlign=middle;fillColor=none;fontColor=#1A1A1A;strokeColor=#4D4D4D;" parent="1" vertex="1"><mxGeometry x="950" y="19629" width="20" height="20" as="geometry"/></mxCell><mxCell id="489" value="3" style="rounded=0;whiteSpace=wrap;html=1;sketch=0;fontSize=13;fontStyle=0;direction=east;rotation=0;fontFamily=Helvetica;verticalAlign=middle;fillColor=none;fontColor=#1A1A1A;strokeColor=#4D4D4D;" parent="1" vertex="1"><mxGeometry x="940" y="19570" width="20" height="20" as="geometry"/></mxCell><mxCell id="493" value="" style="shape=cylinder3;whiteSpace=wrap;html=1;boundedLbl=1;backgroundOutline=1;size=15;lid=0;sketch=1;strokeColor=#1A1A1A;strokeWidth=3;fillColor=none;gradientColor=none;fontFamily=Verdana;fontSize=10;" parent="1" vertex="1"><mxGeometry x="511.5000000000001" y="19817" width="115.5" height="294" as="geometry"/></mxCell><mxCell id="494" value="&lt;pre&gt;&lt;font color=&quot;#1a1a1a&quot; style=&quot;font-size: 15px&quot;&gt;mergeSort&lt;/font&gt;&lt;/pre&gt;" style="shape=cylinder3;whiteSpace=wrap;html=1;boundedLbl=1;backgroundOutline=1;size=15;sketch=0;strokeColor=#b46504;strokeWidth=3;fillColor=#fad7ac;fontFamily=Verdana;fontSize=10;spacingTop=-30;" parent="1" vertex="1"><mxGeometry x="519.5000000000001" y="20024" width="96.5" height="80" as="geometry"/></mxCell><mxCell id="495" value="&lt;pre&gt;&lt;font color=&quot;#1a1a1a&quot; style=&quot;font-size: 15px&quot;&gt;mergeSort&lt;/font&gt;&lt;/pre&gt;" style="shape=cylinder3;whiteSpace=wrap;html=1;boundedLbl=1;backgroundOutline=1;size=15;sketch=0;strokeColor=#23445d;strokeWidth=3;fillColor=#bac8d3;fontFamily=Verdana;fontSize=10;spacingTop=-30;" parent="1" vertex="1"><mxGeometry x="519.5000000000001" y="19963" width="96.5" height="80" as="geometry"/></mxCell><mxCell id="498" value="" style="group" parent="1" vertex="1" connectable="0"><mxGeometry x="529.2500000000001" y="20073" width="80" height="20" as="geometry"/></mxCell><mxCell id="499" value="" style="group" parent="498" vertex="1" connectable="0"><mxGeometry width="80" height="20" as="geometry"/></mxCell><mxCell id="500" value="3" style="rounded=0;whiteSpace=wrap;html=1;sketch=0;fontSize=13;fontStyle=0;direction=east;rotation=0;fontFamily=Helvetica;verticalAlign=middle;fillColor=none;fontColor=#1A1A1A;strokeColor=#4D4D4D;" parent="499" vertex="1"><mxGeometry width="20" height="20" as="geometry"/></mxCell><mxCell id="501" value="1" style="rounded=0;whiteSpace=wrap;html=1;sketch=0;fontSize=13;fontStyle=0;direction=east;rotation=0;fontFamily=Helvetica;verticalAlign=middle;fillColor=none;fontColor=#1A1A1A;strokeColor=#4D4D4D;" parent="499" vertex="1"><mxGeometry x="20" width="20" height="20" as="geometry"/></mxCell><mxCell id="502" value="4" style="rounded=0;whiteSpace=wrap;html=1;sketch=0;fontSize=13;fontStyle=0;direction=east;rotation=0;fontFamily=Helvetica;verticalAlign=middle;fillColor=none;fontColor=#1A1A1A;strokeColor=#4D4D4D;" parent="499" vertex="1"><mxGeometry x="40" width="20" height="20" as="geometry"/></mxCell><mxCell id="503" value="2" style="rounded=0;whiteSpace=wrap;html=1;sketch=0;fontSize=13;fontStyle=0;direction=east;rotation=0;fontFamily=Helvetica;verticalAlign=middle;fillColor=none;fontColor=#1A1A1A;strokeColor=#4D4D4D;" parent="499" vertex="1"><mxGeometry x="60" width="20" height="20" as="geometry"/></mxCell><mxCell id="504" value="3" style="rounded=0;whiteSpace=wrap;html=1;sketch=0;fontSize=13;fontStyle=0;direction=east;rotation=0;fontFamily=Helvetica;verticalAlign=middle;fillColor=none;fontColor=#1A1A1A;strokeColor=#4D4D4D;" parent="1" vertex="1"><mxGeometry x="549.2500000000001" y="20015" width="20" height="20" as="geometry"/></mxCell><mxCell id="505" value="1" style="rounded=0;whiteSpace=wrap;html=1;sketch=0;fontSize=13;fontStyle=0;direction=east;rotation=0;fontFamily=Helvetica;verticalAlign=middle;fillColor=none;fontColor=#1A1A1A;strokeColor=#4D4D4D;" parent="1" vertex="1"><mxGeometry x="569.2500000000001" y="20015" width="20" height="20" as="geometry"/></mxCell><mxCell id="491" value="&lt;font style=&quot;font-size: 15px&quot;&gt;3&lt;/font&gt;" style="rounded=0;whiteSpace=wrap;html=1;sketch=1;fillColor=#d5e8d4;strokeColor=#82b366;fontSize=20;fontStyle=1;direction=east;rotation=0;fontFamily=Helvetica;fontColor=#1A1A1A;" parent="1" vertex="1"><mxGeometry x="1101.25" y="19532" width="24" height="22" as="geometry"/></mxCell><mxCell id="510" value="&lt;font style=&quot;font-size: 20px&quot;&gt;&lt;b&gt;left =&amp;nbsp;&lt;/b&gt;&lt;/font&gt;" style="text;html=1;align=center;verticalAlign=middle;resizable=0;points=[];autosize=1;fontSize=9;fontFamily=Courier New;fontColor=#1A1A1A;" parent="1" vertex="1"><mxGeometry x="1011" y="19534" width="94" height="18" as="geometry"/></mxCell><mxCell id="511" value="&lt;font style=&quot;font-size: 15px&quot;&gt;3&lt;/font&gt;" style="rounded=0;whiteSpace=wrap;html=1;sketch=1;fillColor=#d5e8d4;strokeColor=#82b366;fontSize=20;fontStyle=1;direction=east;rotation=0;fontFamily=Helvetica;fontColor=#1A1A1A;" parent="1" vertex="1"><mxGeometry x="478.5000000000001" y="19980" width="24" height="22" as="geometry"/></mxCell><mxCell id="512" value="&lt;font style=&quot;font-size: 20px&quot;&gt;&lt;b&gt;left =&amp;nbsp;&lt;/b&gt;&lt;/font&gt;" style="text;html=1;align=center;verticalAlign=middle;resizable=0;points=[];autosize=1;fontSize=9;fontFamily=Courier New;fontColor=#1A1A1A;" parent="1" vertex="1"><mxGeometry x="388.25" y="19982" width="94" height="18" as="geometry"/></mxCell><mxCell id="514" value="&lt;pre&gt;&lt;font color=&quot;#1a1a1a&quot; style=&quot;font-size: 15px&quot;&gt;mergeSort&lt;/font&gt;&lt;/pre&gt;" style="shape=cylinder3;whiteSpace=wrap;html=1;boundedLbl=1;backgroundOutline=1;size=15;sketch=0;strokeColor=#ae4132;strokeWidth=3;fillColor=#fad9d5;fontFamily=Verdana;fontSize=10;spacingTop=-30;shadow=0;" parent="1" vertex="1"><mxGeometry x="519.5000000000001" y="19902" width="96.5" height="80" as="geometry"/></mxCell><mxCell id="515" value="1" style="rounded=0;whiteSpace=wrap;html=1;sketch=0;fontSize=13;fontStyle=0;direction=east;rotation=0;fontFamily=Helvetica;verticalAlign=middle;fillColor=none;fontColor=#1A1A1A;strokeColor=#4D4D4D;" parent="1" vertex="1"><mxGeometry x="559.2500000000001" y="19955" width="20" height="20" as="geometry"/></mxCell><mxCell id="519" value="" style="shape=cylinder3;whiteSpace=wrap;html=1;boundedLbl=1;backgroundOutline=1;size=15;lid=0;sketch=1;strokeColor=#1A1A1A;strokeWidth=3;fillColor=none;gradientColor=none;fontFamily=Verdana;fontSize=10;" parent="1" vertex="1"><mxGeometry x="892.13" y="19827" width="115.5" height="294" as="geometry"/></mxCell><mxCell id="520" value="&lt;pre&gt;&lt;font color=&quot;#1a1a1a&quot; style=&quot;font-size: 15px&quot;&gt;mergeSort&lt;/font&gt;&lt;/pre&gt;" style="shape=cylinder3;whiteSpace=wrap;html=1;boundedLbl=1;backgroundOutline=1;size=15;sketch=0;strokeColor=#b46504;strokeWidth=3;fillColor=#fad7ac;fontFamily=Verdana;fontSize=10;spacingTop=-30;" parent="1" vertex="1"><mxGeometry x="900.13" y="20034" width="96.5" height="80" as="geometry"/></mxCell><mxCell id="521" value="&lt;pre&gt;&lt;font color=&quot;#1a1a1a&quot; style=&quot;font-size: 15px&quot;&gt;mergeSort&lt;/font&gt;&lt;/pre&gt;" style="shape=cylinder3;whiteSpace=wrap;html=1;boundedLbl=1;backgroundOutline=1;size=15;sketch=0;strokeColor=#23445d;strokeWidth=3;fillColor=#bac8d3;fontFamily=Verdana;fontSize=10;spacingTop=-30;" parent="1" vertex="1"><mxGeometry x="900.13" y="19973" width="96.5" height="80" as="geometry"/></mxCell><mxCell id="522" value="" style="group" parent="1" vertex="1" connectable="0"><mxGeometry x="909.88" y="20083" width="80" height="20" as="geometry"/></mxCell><mxCell id="523" value="" style="group" parent="522" vertex="1" connectable="0"><mxGeometry width="80" height="20" as="geometry"/></mxCell><mxCell id="524" value="3" style="rounded=0;whiteSpace=wrap;html=1;sketch=0;fontSize=13;fontStyle=0;direction=east;rotation=0;fontFamily=Helvetica;verticalAlign=middle;fillColor=none;fontColor=#1A1A1A;strokeColor=#4D4D4D;" parent="523" vertex="1"><mxGeometry width="20" height="20" as="geometry"/></mxCell><mxCell id="525" value="1" style="rounded=0;whiteSpace=wrap;html=1;sketch=0;fontSize=13;fontStyle=0;direction=east;rotation=0;fontFamily=Helvetica;verticalAlign=middle;fillColor=none;fontColor=#1A1A1A;strokeColor=#4D4D4D;" parent="523" vertex="1"><mxGeometry x="20" width="20" height="20" as="geometry"/></mxCell><mxCell id="526" value="4" style="rounded=0;whiteSpace=wrap;html=1;sketch=0;fontSize=13;fontStyle=0;direction=east;rotation=0;fontFamily=Helvetica;verticalAlign=middle;fillColor=none;fontColor=#1A1A1A;strokeColor=#4D4D4D;" parent="523" vertex="1"><mxGeometry x="40" width="20" height="20" as="geometry"/></mxCell><mxCell id="527" value="2" style="rounded=0;whiteSpace=wrap;html=1;sketch=0;fontSize=13;fontStyle=0;direction=east;rotation=0;fontFamily=Helvetica;verticalAlign=middle;fillColor=none;fontColor=#1A1A1A;strokeColor=#4D4D4D;" parent="523" vertex="1"><mxGeometry x="60" width="20" height="20" as="geometry"/></mxCell><mxCell id="528" value="3" style="rounded=0;whiteSpace=wrap;html=1;sketch=0;fontSize=13;fontStyle=0;direction=east;rotation=0;fontFamily=Helvetica;verticalAlign=middle;fillColor=none;fontColor=#1A1A1A;strokeColor=#4D4D4D;" parent="1" vertex="1"><mxGeometry x="929.88" y="20025" width="20" height="20" as="geometry"/></mxCell><mxCell id="529" value="1" style="rounded=0;whiteSpace=wrap;html=1;sketch=0;fontSize=13;fontStyle=0;direction=east;rotation=0;fontFamily=Helvetica;verticalAlign=middle;fillColor=none;fontColor=#1A1A1A;strokeColor=#4D4D4D;" parent="1" vertex="1"><mxGeometry x="949.88" y="20025" width="20" height="20" as="geometry"/></mxCell><mxCell id="530" value="&lt;font style=&quot;font-size: 15px&quot;&gt;3&lt;/font&gt;" style="rounded=0;whiteSpace=wrap;html=1;sketch=1;fillColor=#d5e8d4;strokeColor=#82b366;fontSize=20;fontStyle=1;direction=east;rotation=0;fontFamily=Helvetica;fontColor=#1A1A1A;" parent="1" vertex="1"><mxGeometry x="859.13" y="19990" width="24" height="22" as="geometry"/></mxCell><mxCell id="531" value="&lt;font style=&quot;font-size: 20px&quot;&gt;&lt;b&gt;left =&amp;nbsp;&lt;/b&gt;&lt;/font&gt;" style="text;html=1;align=center;verticalAlign=middle;resizable=0;points=[];autosize=1;fontSize=9;fontFamily=Courier New;fontColor=#1A1A1A;" parent="1" vertex="1"><mxGeometry x="768.88" y="19992" width="94" height="18" as="geometry"/></mxCell><mxCell id="532" value="&lt;pre&gt;&lt;font color=&quot;#1a1a1a&quot; style=&quot;font-size: 15px&quot;&gt;mergeSort&lt;/font&gt;&lt;/pre&gt;" style="shape=cylinder3;whiteSpace=wrap;html=1;boundedLbl=1;backgroundOutline=1;size=15;sketch=0;strokeColor=#ae4132;strokeWidth=3;fillColor=#fad9d5;fontFamily=Verdana;fontSize=10;spacingTop=-30;shadow=0;" parent="1" vertex="1"><mxGeometry x="900.13" y="19912" width="96.5" height="80" as="geometry"/></mxCell><mxCell id="533" value="1" style="rounded=0;whiteSpace=wrap;html=1;sketch=0;fontSize=13;fontStyle=0;direction=east;rotation=0;fontFamily=Helvetica;verticalAlign=middle;fillColor=none;fontColor=#1A1A1A;strokeColor=#4D4D4D;" parent="1" vertex="1"><mxGeometry x="939.88" y="19965" width="20" height="20" as="geometry"/></mxCell><mxCell id="534" style="edgeStyle=orthogonalEdgeStyle;curved=1;rounded=0;sketch=1;orthogonalLoop=1;jettySize=auto;html=1;entryX=1;entryY=0.5;entryDx=0;entryDy=0;entryPerimeter=0;shadow=0;endArrow=classic;endFill=1;fontFamily=Helvetica;fontSize=13;fontColor=#1A1A1A;fillColor=#d5e8d4;strokeWidth=3;strokeColor=#3DC94A;" parent="1" edge="1"><mxGeometry relative="1" as="geometry"><mxPoint x="996.63" y="19950" as="sourcePoint"/><mxPoint x="996.63" y="20010" as="targetPoint"/><Array as="points"><mxPoint x="1053.0700000000002" y="19950"/><mxPoint x="1053.0700000000002" y="20010"/></Array></mxGeometry></mxCell><mxCell id="535" value="&lt;font style=&quot;font-size: 15px&quot;&gt;1&lt;/font&gt;" style="rounded=0;whiteSpace=wrap;html=1;sketch=1;fillColor=#d5e8d4;strokeColor=#82b366;fontSize=20;fontStyle=1;direction=east;rotation=0;fontFamily=Helvetica;fontColor=#1A1A1A;" parent="1" vertex="1"><mxGeometry x="1101.13" y="19925" width="24" height="22" as="geometry"/></mxCell><mxCell id="536" value="&lt;font style=&quot;font-size: 20px&quot;&gt;&lt;b&gt;right =&amp;nbsp;&lt;/b&gt;&lt;/font&gt;" style="text;html=1;align=center;verticalAlign=middle;resizable=0;points=[];autosize=1;fontSize=9;fontFamily=Courier New;fontColor=#1A1A1A;" parent="1" vertex="1"><mxGeometry x="1004.88" y="19927" width="106" height="18" as="geometry"/></mxCell><mxCell id="553" value="" style="shape=cylinder3;whiteSpace=wrap;html=1;boundedLbl=1;backgroundOutline=1;size=15;lid=0;sketch=1;strokeColor=#1A1A1A;strokeWidth=3;fillColor=none;gradientColor=none;fontFamily=Verdana;fontSize=10;" parent="1" vertex="1"><mxGeometry x="1325.5000000000002" y="19435" width="115.5" height="294" as="geometry"/></mxCell><mxCell id="554" value="&lt;pre&gt;&lt;font color=&quot;#1a1a1a&quot; style=&quot;font-size: 15px&quot;&gt;mergeSort&lt;/font&gt;&lt;/pre&gt;" style="shape=cylinder3;whiteSpace=wrap;html=1;boundedLbl=1;backgroundOutline=1;size=15;sketch=0;strokeColor=#b46504;strokeWidth=3;fillColor=#fad7ac;fontFamily=Verdana;fontSize=10;spacingTop=-30;" parent="1" vertex="1"><mxGeometry x="1333.5000000000002" y="19642" width="96.5" height="80" as="geometry"/></mxCell><mxCell id="555" value="&lt;pre&gt;&lt;font color=&quot;#1a1a1a&quot; style=&quot;font-size: 15px&quot;&gt;mergeSort&lt;/font&gt;&lt;/pre&gt;" style="shape=cylinder3;whiteSpace=wrap;html=1;boundedLbl=1;backgroundOutline=1;size=15;sketch=0;strokeColor=#23445d;strokeWidth=3;fillColor=#bac8d3;fontFamily=Verdana;fontSize=10;spacingTop=-30;" parent="1" vertex="1"><mxGeometry x="1333.5000000000002" y="19581" width="96.5" height="80" as="geometry"/></mxCell><mxCell id="556" value="" style="group" parent="1" vertex="1" connectable="0"><mxGeometry x="1343.2500000000002" y="19691" width="80" height="20" as="geometry"/></mxCell><mxCell id="557" value="" style="group" parent="556" vertex="1" connectable="0"><mxGeometry width="80" height="20" as="geometry"/></mxCell><mxCell id="558" value="3" style="rounded=0;whiteSpace=wrap;html=1;sketch=0;fontSize=13;fontStyle=0;direction=east;rotation=0;fontFamily=Helvetica;verticalAlign=middle;fillColor=none;fontColor=#1A1A1A;strokeColor=#4D4D4D;" parent="557" vertex="1"><mxGeometry width="20" height="20" as="geometry"/></mxCell><mxCell id="559" value="1" style="rounded=0;whiteSpace=wrap;html=1;sketch=0;fontSize=13;fontStyle=0;direction=east;rotation=0;fontFamily=Helvetica;verticalAlign=middle;fillColor=none;fontColor=#1A1A1A;strokeColor=#4D4D4D;" parent="557" vertex="1"><mxGeometry x="20" width="20" height="20" as="geometry"/></mxCell><mxCell id="560" value="4" style="rounded=0;whiteSpace=wrap;html=1;sketch=0;fontSize=13;fontStyle=0;direction=east;rotation=0;fontFamily=Helvetica;verticalAlign=middle;fillColor=none;fontColor=#1A1A1A;strokeColor=#4D4D4D;" parent="557" vertex="1"><mxGeometry x="40" width="20" height="20" as="geometry"/></mxCell><mxCell id="561" value="2" style="rounded=0;whiteSpace=wrap;html=1;sketch=0;fontSize=13;fontStyle=0;direction=east;rotation=0;fontFamily=Helvetica;verticalAlign=middle;fillColor=none;fontColor=#1A1A1A;strokeColor=#4D4D4D;" parent="557" vertex="1"><mxGeometry x="60" width="20" height="20" as="geometry"/></mxCell><mxCell id="562" value="3" style="rounded=0;whiteSpace=wrap;html=1;sketch=0;fontSize=13;fontStyle=0;direction=east;rotation=0;fontFamily=Helvetica;verticalAlign=middle;fillColor=none;fontColor=#1A1A1A;strokeColor=#4D4D4D;" parent="1" vertex="1"><mxGeometry x="1363.2500000000002" y="19633" width="20" height="20" as="geometry"/></mxCell><mxCell id="563" value="1" style="rounded=0;whiteSpace=wrap;html=1;sketch=0;fontSize=13;fontStyle=0;direction=east;rotation=0;fontFamily=Helvetica;verticalAlign=middle;fillColor=none;fontColor=#1A1A1A;strokeColor=#4D4D4D;" parent="1" vertex="1"><mxGeometry x="1383.2500000000002" y="19633" width="20" height="20" as="geometry"/></mxCell><mxCell id="564" value="&lt;font style=&quot;font-size: 15px&quot;&gt;3&lt;/font&gt;" style="rounded=0;whiteSpace=wrap;html=1;sketch=1;fillColor=#d5e8d4;strokeColor=#82b366;fontSize=20;fontStyle=1;direction=east;rotation=0;fontFamily=Helvetica;fontColor=#1A1A1A;" parent="1" vertex="1"><mxGeometry x="1292.5000000000002" y="19598" width="24" height="22" as="geometry"/></mxCell><mxCell id="565" value="&lt;font style=&quot;font-size: 20px&quot;&gt;&lt;b&gt;left =&amp;nbsp;&lt;/b&gt;&lt;/font&gt;" style="text;html=1;align=center;verticalAlign=middle;resizable=0;points=[];autosize=1;fontSize=9;fontFamily=Courier New;fontColor=#1A1A1A;" parent="1" vertex="1"><mxGeometry x="1202.25" y="19600" width="94" height="18" as="geometry"/></mxCell><mxCell id="568" value="" style="shape=cylinder3;whiteSpace=wrap;html=1;boundedLbl=1;backgroundOutline=1;size=15;lid=0;sketch=1;strokeColor=#1A1A1A;strokeWidth=3;fillColor=none;gradientColor=none;fontFamily=Verdana;fontSize=10;" parent="1" vertex="1"><mxGeometry x="325.1300000000001" y="20187" width="115.5" height="294" as="geometry"/></mxCell><mxCell id="569" value="&lt;pre&gt;&lt;font color=&quot;#1a1a1a&quot; style=&quot;font-size: 15px&quot;&gt;mergeSort&lt;/font&gt;&lt;/pre&gt;" style="shape=cylinder3;whiteSpace=wrap;html=1;boundedLbl=1;backgroundOutline=1;size=15;sketch=0;strokeColor=#b46504;strokeWidth=3;fillColor=#fad7ac;fontFamily=Verdana;fontSize=10;spacingTop=-30;" parent="1" vertex="1"><mxGeometry x="333.1300000000001" y="20394" width="96.5" height="80" as="geometry"/></mxCell><mxCell id="570" value="&lt;pre&gt;&lt;font color=&quot;#1a1a1a&quot; style=&quot;font-size: 15px&quot;&gt;mergeSort&lt;/font&gt;&lt;/pre&gt;" style="shape=cylinder3;whiteSpace=wrap;html=1;boundedLbl=1;backgroundOutline=1;size=15;sketch=0;strokeColor=#23445d;strokeWidth=3;fillColor=#bac8d3;fontFamily=Verdana;fontSize=10;spacingTop=-30;" parent="1" vertex="1"><mxGeometry x="333.1300000000001" y="20333" width="96.5" height="80" as="geometry"/></mxCell><mxCell id="571" value="" style="group" parent="1" vertex="1" connectable="0"><mxGeometry x="342.8800000000001" y="20443" width="80" height="20" as="geometry"/></mxCell><mxCell id="572" value="" style="group" parent="571" vertex="1" connectable="0"><mxGeometry width="80" height="20" as="geometry"/></mxCell><mxCell id="573" value="3" style="rounded=0;whiteSpace=wrap;html=1;sketch=0;fontSize=13;fontStyle=0;direction=east;rotation=0;fontFamily=Helvetica;verticalAlign=middle;fillColor=none;fontColor=#1A1A1A;strokeColor=#4D4D4D;" parent="572" vertex="1"><mxGeometry width="20" height="20" as="geometry"/></mxCell><mxCell id="574" value="1" style="rounded=0;whiteSpace=wrap;html=1;sketch=0;fontSize=13;fontStyle=0;direction=east;rotation=0;fontFamily=Helvetica;verticalAlign=middle;fillColor=none;fontColor=#1A1A1A;strokeColor=#4D4D4D;" parent="572" vertex="1"><mxGeometry x="20" width="20" height="20" as="geometry"/></mxCell><mxCell id="575" value="4" style="rounded=0;whiteSpace=wrap;html=1;sketch=0;fontSize=13;fontStyle=0;direction=east;rotation=0;fontFamily=Helvetica;verticalAlign=middle;fillColor=none;fontColor=#1A1A1A;strokeColor=#4D4D4D;" parent="572" vertex="1"><mxGeometry x="40" width="20" height="20" as="geometry"/></mxCell><mxCell id="576" value="2" style="rounded=0;whiteSpace=wrap;html=1;sketch=0;fontSize=13;fontStyle=0;direction=east;rotation=0;fontFamily=Helvetica;verticalAlign=middle;fillColor=none;fontColor=#1A1A1A;strokeColor=#4D4D4D;" parent="572" vertex="1"><mxGeometry x="60" width="20" height="20" as="geometry"/></mxCell><mxCell id="577" value="3" style="rounded=0;whiteSpace=wrap;html=1;sketch=0;fontSize=13;fontStyle=0;direction=east;rotation=0;fontFamily=Helvetica;verticalAlign=middle;fillColor=none;fontColor=#1A1A1A;strokeColor=#4D4D4D;" parent="1" vertex="1"><mxGeometry x="362.8800000000001" y="20385" width="20" height="20" as="geometry"/></mxCell><mxCell id="578" value="1" style="rounded=0;whiteSpace=wrap;html=1;sketch=0;fontSize=13;fontStyle=0;direction=east;rotation=0;fontFamily=Helvetica;verticalAlign=middle;fillColor=none;fontColor=#1A1A1A;strokeColor=#4D4D4D;" parent="1" vertex="1"><mxGeometry x="382.8800000000001" y="20385" width="20" height="20" as="geometry"/></mxCell><mxCell id="579" value="&lt;font style=&quot;font-size: 15px&quot;&gt;3&lt;/font&gt;" style="rounded=0;whiteSpace=wrap;html=1;sketch=1;fillColor=#d5e8d4;strokeColor=#82b366;fontSize=20;fontStyle=1;direction=east;rotation=0;fontFamily=Helvetica;fontColor=#1A1A1A;" parent="1" vertex="1"><mxGeometry x="292.1300000000001" y="20350" width="24" height="22" as="geometry"/></mxCell><mxCell id="580" value="&lt;font style=&quot;font-size: 20px&quot;&gt;&lt;b&gt;left =&amp;nbsp;&lt;/b&gt;&lt;/font&gt;" style="text;html=1;align=right;verticalAlign=middle;resizable=0;points=[];autosize=1;fontSize=9;fontFamily=Courier New;fontColor=#1A1A1A;" parent="1" vertex="1"><mxGeometry x="193.5" y="20352" width="94" height="18" as="geometry"/></mxCell><mxCell id="581" value="&lt;font style=&quot;font-size: 20px&quot;&gt;&lt;b&gt;right =&amp;nbsp;&lt;/b&gt;&lt;/font&gt;" style="text;html=1;align=right;verticalAlign=middle;resizable=0;points=[];autosize=1;fontSize=9;fontFamily=Courier New;fontColor=#1A1A1A;" parent="1" vertex="1"><mxGeometry x="181.5" y="20384" width="106" height="18" as="geometry"/></mxCell><mxCell id="582" value="&lt;font style=&quot;font-size: 15px&quot;&gt;1&lt;/font&gt;" style="rounded=0;whiteSpace=wrap;html=1;sketch=1;fillColor=#d5e8d4;strokeColor=#82b366;fontSize=20;fontStyle=1;direction=east;rotation=0;fontFamily=Helvetica;fontColor=#1A1A1A;" parent="1" vertex="1"><mxGeometry x="290" y="20384" width="24" height="22" as="geometry"/></mxCell><mxCell id="583" style="edgeStyle=orthogonalEdgeStyle;curved=1;rounded=0;sketch=1;orthogonalLoop=1;jettySize=auto;html=1;entryX=1;entryY=0.5;entryDx=0;entryDy=0;entryPerimeter=0;shadow=0;endArrow=classic;endFill=1;fontFamily=Helvetica;fontSize=13;fontColor=#1A1A1A;fillColor=#d5e8d4;strokeWidth=3;strokeColor=#3DC94A;" parent="1" edge="1"><mxGeometry relative="1" as="geometry"><mxPoint x="431" y="20370" as="sourcePoint"/><mxPoint x="431" y="20430" as="targetPoint"/><Array as="points"><mxPoint x="487.8699999999999" y="20370"/><mxPoint x="487.8699999999999" y="20430"/></Array></mxGeometry></mxCell><mxCell id="584" value="&lt;font style=&quot;font-size: 20px&quot;&gt;&lt;b&gt;merge(left, right)=&amp;nbsp;&lt;/b&gt;&lt;/font&gt;" style="text;html=1;align=center;verticalAlign=middle;resizable=0;points=[];autosize=1;fontSize=9;fontFamily=Courier New;fontColor=#1A1A1A;" parent="1" vertex="1"><mxGeometry x="446.70000000000005" y="20346" width="250" height="18" as="geometry"/></mxCell><mxCell id="585" value="&lt;font style=&quot;font-size: 15px&quot;&gt;1&lt;/font&gt;" style="rounded=0;whiteSpace=wrap;html=1;sketch=1;fillColor=#d5e8d4;strokeColor=#82b366;fontSize=20;fontStyle=1;direction=east;rotation=0;fontFamily=Helvetica;fontColor=#1A1A1A;" parent="1" vertex="1"><mxGeometry x="688.7" y="20344" width="24" height="22" as="geometry"/></mxCell><mxCell id="586" value="&lt;font style=&quot;font-size: 15px&quot;&gt;3&lt;/font&gt;" style="rounded=0;whiteSpace=wrap;html=1;sketch=1;fillColor=#d5e8d4;strokeColor=#82b366;fontSize=20;fontStyle=1;direction=east;rotation=0;fontFamily=Helvetica;fontColor=#1A1A1A;" parent="1" vertex="1"><mxGeometry x="713.1300000000001" y="20344" width="24" height="22" as="geometry"/></mxCell><mxCell id="590" value="" style="shape=cylinder3;whiteSpace=wrap;html=1;boundedLbl=1;backgroundOutline=1;size=15;lid=0;sketch=1;strokeColor=#1A1A1A;strokeWidth=3;fillColor=none;gradientColor=none;fontFamily=Verdana;fontSize=10;" parent="1" vertex="1"><mxGeometry x="160.7" y="20578" width="115.5" height="294" as="geometry"/></mxCell><mxCell id="591" value="&lt;pre&gt;&lt;font color=&quot;#1a1a1a&quot; style=&quot;font-size: 15px&quot;&gt;mergeSort&lt;/font&gt;&lt;/pre&gt;" style="shape=cylinder3;whiteSpace=wrap;html=1;boundedLbl=1;backgroundOutline=1;size=15;sketch=0;strokeColor=#b46504;strokeWidth=3;fillColor=#fad7ac;fontFamily=Verdana;fontSize=10;spacingTop=-30;" parent="1" vertex="1"><mxGeometry x="168.7" y="20785" width="96.5" height="80" as="geometry"/></mxCell><mxCell id="593" value="" style="group" parent="1" vertex="1" connectable="0"><mxGeometry x="178.45" y="20834" width="80" height="20" as="geometry"/></mxCell><mxCell id="594" value="" style="group" parent="593" vertex="1" connectable="0"><mxGeometry width="80" height="20" as="geometry"/></mxCell><mxCell id="595" value="3" style="rounded=0;whiteSpace=wrap;html=1;sketch=0;fontSize=13;fontStyle=0;direction=east;rotation=0;fontFamily=Helvetica;verticalAlign=middle;fillColor=none;fontColor=#1A1A1A;strokeColor=#4D4D4D;" parent="594" vertex="1"><mxGeometry width="20" height="20" as="geometry"/></mxCell><mxCell id="596" value="1" style="rounded=0;whiteSpace=wrap;html=1;sketch=0;fontSize=13;fontStyle=0;direction=east;rotation=0;fontFamily=Helvetica;verticalAlign=middle;fillColor=none;fontColor=#1A1A1A;strokeColor=#4D4D4D;" parent="594" vertex="1"><mxGeometry x="20" width="20" height="20" as="geometry"/></mxCell><mxCell id="597" value="4" style="rounded=0;whiteSpace=wrap;html=1;sketch=0;fontSize=13;fontStyle=0;direction=east;rotation=0;fontFamily=Helvetica;verticalAlign=middle;fillColor=none;fontColor=#1A1A1A;strokeColor=#4D4D4D;" parent="594" vertex="1"><mxGeometry x="40" width="20" height="20" as="geometry"/></mxCell><mxCell id="598" value="2" style="rounded=0;whiteSpace=wrap;html=1;sketch=0;fontSize=13;fontStyle=0;direction=east;rotation=0;fontFamily=Helvetica;verticalAlign=middle;fillColor=none;fontColor=#1A1A1A;strokeColor=#4D4D4D;" parent="594" vertex="1"><mxGeometry x="60" width="20" height="20" as="geometry"/></mxCell><mxCell id="602" value="&lt;font style=&quot;font-size: 20px&quot;&gt;&lt;b&gt;left =&amp;nbsp;&lt;/b&gt;&lt;/font&gt;" style="text;html=1;align=right;verticalAlign=middle;resizable=0;points=[];autosize=1;fontSize=9;fontFamily=Courier New;fontColor=#1A1A1A;" parent="1" vertex="1"><mxGeometry x="17.990000000000006" y="20802" width="94" height="18" as="geometry"/></mxCell><mxCell id="609" value="&lt;font style=&quot;font-size: 15px&quot;&gt;1&lt;/font&gt;" style="rounded=0;whiteSpace=wrap;html=1;sketch=1;fillColor=#d5e8d4;strokeColor=#82b366;fontSize=20;fontStyle=1;direction=east;rotation=0;fontFamily=Helvetica;fontColor=#1A1A1A;" parent="1" vertex="1"><mxGeometry x="106.15000000000006" y="20800" width="24" height="22" as="geometry"/></mxCell><mxCell id="610" value="&lt;font style=&quot;font-size: 15px&quot;&gt;3&lt;/font&gt;" style="rounded=0;whiteSpace=wrap;html=1;sketch=1;fillColor=#d5e8d4;strokeColor=#82b366;fontSize=20;fontStyle=1;direction=east;rotation=0;fontFamily=Helvetica;fontColor=#1A1A1A;" parent="1" vertex="1"><mxGeometry x="130.58000000000013" y="20800" width="24" height="22" as="geometry"/></mxCell><mxCell id="611" value="" style="shape=cylinder3;whiteSpace=wrap;html=1;boundedLbl=1;backgroundOutline=1;size=15;lid=0;sketch=1;strokeColor=#1A1A1A;strokeWidth=3;fillColor=none;gradientColor=none;fontFamily=Verdana;fontSize=10;" parent="1" vertex="1"><mxGeometry x="328.5" y="19107" width="115.5" height="294" as="geometry"/></mxCell><mxCell id="612" value="&lt;pre&gt;&lt;font color=&quot;#1a1a1a&quot; style=&quot;font-size: 15px&quot;&gt;mergeSort&lt;/font&gt;&lt;/pre&gt;" style="shape=cylinder3;whiteSpace=wrap;html=1;boundedLbl=1;backgroundOutline=1;size=15;sketch=0;strokeColor=#b46504;strokeWidth=3;fillColor=#fad7ac;fontFamily=Verdana;fontSize=10;spacingTop=-30;" parent="1" vertex="1"><mxGeometry x="336.5" y="19314" width="96.5" height="80" as="geometry"/></mxCell><mxCell id="613" value="&lt;pre&gt;&lt;font color=&quot;#1a1a1a&quot; style=&quot;font-size: 15px&quot;&gt;mergeSort&lt;/font&gt;&lt;/pre&gt;" style="shape=cylinder3;whiteSpace=wrap;html=1;boundedLbl=1;backgroundOutline=1;size=15;sketch=0;strokeColor=#23445d;strokeWidth=3;fillColor=#bac8d3;fontFamily=Verdana;fontSize=10;spacingTop=-30;" parent="1" vertex="1"><mxGeometry x="336.5" y="19253" width="96.5" height="80" as="geometry"/></mxCell><mxCell id="615" value="" style="group" parent="1" vertex="1" connectable="0"><mxGeometry x="346.25" y="19363" width="80" height="20" as="geometry"/></mxCell><mxCell id="616" value="" style="group" parent="615" vertex="1" connectable="0"><mxGeometry width="80" height="20" as="geometry"/></mxCell><mxCell id="617" value="3" style="rounded=0;whiteSpace=wrap;html=1;sketch=0;fontSize=13;fontStyle=0;direction=east;rotation=0;fontFamily=Helvetica;verticalAlign=middle;fillColor=none;fontColor=#1A1A1A;strokeColor=#4D4D4D;" parent="616" vertex="1"><mxGeometry width="20" height="20" as="geometry"/></mxCell><mxCell id="618" value="1" style="rounded=0;whiteSpace=wrap;html=1;sketch=0;fontSize=13;fontStyle=0;direction=east;rotation=0;fontFamily=Helvetica;verticalAlign=middle;fillColor=none;fontColor=#1A1A1A;strokeColor=#4D4D4D;" parent="616" vertex="1"><mxGeometry x="20" width="20" height="20" as="geometry"/></mxCell><mxCell id="619" value="4" style="rounded=0;whiteSpace=wrap;html=1;sketch=0;fontSize=13;fontStyle=0;direction=east;rotation=0;fontFamily=Helvetica;verticalAlign=middle;fillColor=none;fontColor=#1A1A1A;strokeColor=#4D4D4D;" parent="616" vertex="1"><mxGeometry x="40" width="20" height="20" as="geometry"/></mxCell><mxCell id="620" value="2" style="rounded=0;whiteSpace=wrap;html=1;sketch=0;fontSize=13;fontStyle=0;direction=east;rotation=0;fontFamily=Helvetica;verticalAlign=middle;fillColor=none;fontColor=#1A1A1A;strokeColor=#4D4D4D;" parent="616" vertex="1"><mxGeometry x="60" width="20" height="20" as="geometry"/></mxCell><mxCell id="621" value="3" style="rounded=0;whiteSpace=wrap;html=1;sketch=0;fontSize=13;fontStyle=0;direction=east;rotation=0;fontFamily=Helvetica;verticalAlign=middle;fillColor=none;fontColor=#1A1A1A;strokeColor=#4D4D4D;" parent="1" vertex="1"><mxGeometry x="366.25" y="19305" width="20" height="20" as="geometry"/></mxCell><mxCell id="622" value="1" style="rounded=0;whiteSpace=wrap;html=1;sketch=0;fontSize=13;fontStyle=0;direction=east;rotation=0;fontFamily=Helvetica;verticalAlign=middle;fillColor=none;fontColor=#1A1A1A;strokeColor=#4D4D4D;" parent="1" vertex="1"><mxGeometry x="386.24999999999994" y="19305" width="20" height="20" as="geometry"/></mxCell><mxCell id="624" style="edgeStyle=orthogonalEdgeStyle;curved=1;rounded=0;sketch=1;orthogonalLoop=1;jettySize=auto;html=1;entryX=1;entryY=0.5;entryDx=0;entryDy=0;entryPerimeter=0;shadow=0;endArrow=classic;endFill=1;fontFamily=Helvetica;fontSize=13;fontColor=#1A1A1A;fillColor=#d5e8d4;strokeWidth=3;exitX=1;exitY=0.5;exitDx=0;exitDy=0;exitPerimeter=0;strokeColor=#C9B744;" parent="1" source="612" target="613" edge="1"><mxGeometry relative="1" as="geometry"><mxPoint x="438.94" y="19918" as="sourcePoint"/><mxPoint x="438.94" y="19978" as="targetPoint"/><Array as="points"><mxPoint x="496.73999999999995" y="19354"/><mxPoint x="496.73999999999995" y="19293"/></Array></mxGeometry></mxCell><mxCell id="625" value="&lt;font style=&quot;font-size: 20px&quot;&gt;&lt;b&gt;mergeSort(&amp;nbsp; &amp;nbsp; &amp;nbsp;)&amp;nbsp;&lt;/b&gt;&lt;/font&gt;" style="text;html=1;align=left;verticalAlign=middle;resizable=0;points=[];autosize=1;fontSize=9;fontFamily=Courier New;fontColor=#1A1A1A;" parent="1" vertex="1"><mxGeometry x="475.18" y="19268" width="214" height="18" as="geometry"/></mxCell><mxCell id="626" value="&lt;font style=&quot;font-size: 15px&quot;&gt;3&lt;/font&gt;" style="rounded=0;whiteSpace=wrap;html=1;sketch=1;fillColor=#d5e8d4;strokeColor=#82b366;fontSize=20;fontStyle=1;direction=east;rotation=0;fontFamily=Helvetica;fontColor=#1A1A1A;" parent="1" vertex="1"><mxGeometry x="602.25" y="19268" width="24" height="22" as="geometry"/></mxCell><mxCell id="627" value="&lt;font style=&quot;font-size: 15px&quot;&gt;1&lt;/font&gt;" style="rounded=0;whiteSpace=wrap;html=1;sketch=1;fillColor=#d5e8d4;strokeColor=#82b366;fontSize=20;fontStyle=1;direction=east;rotation=0;fontFamily=Helvetica;fontColor=#1A1A1A;" parent="1" vertex="1"><mxGeometry x="626.6800000000001" y="19268" width="24" height="22" as="geometry"/></mxCell><mxCell id="628" style="edgeStyle=orthogonalEdgeStyle;curved=1;rounded=0;sketch=1;orthogonalLoop=1;jettySize=auto;html=1;entryX=1;entryY=0.5;entryDx=0;entryDy=0;entryPerimeter=0;shadow=0;endArrow=classic;endFill=1;fontFamily=Helvetica;fontSize=13;fontColor=#1A1A1A;fillColor=#d5e8d4;strokeWidth=3;exitX=1;exitY=0.5;exitDx=0;exitDy=0;exitPerimeter=0;strokeColor=#C9B744;" parent="1" edge="1"><mxGeometry relative="1" as="geometry"><mxPoint x="621.6900000000002" y="19628" as="sourcePoint"/><mxPoint x="621.6900000000002" y="19567" as="targetPoint"/><Array as="points"><mxPoint x="685.4300000000001" y="19628"/><mxPoint x="685.4300000000001" y="19567"/></Array></mxGeometry></mxCell><mxCell id="629" value="&lt;font style=&quot;font-size: 20px&quot;&gt;&lt;b&gt;mergeSort(&amp;nbsp; &amp;nbsp;)&amp;nbsp;&lt;/b&gt;&lt;/font&gt;" style="text;html=1;align=left;verticalAlign=middle;resizable=0;points=[];autosize=1;fontSize=9;fontFamily=Courier New;fontColor=#1A1A1A;" parent="1" vertex="1"><mxGeometry x="663.87" y="19542" width="190" height="18" as="geometry"/></mxCell><mxCell id="630" value="&lt;font style=&quot;font-size: 15px&quot;&gt;3&lt;/font&gt;" style="rounded=0;whiteSpace=wrap;html=1;sketch=1;fillColor=#d5e8d4;strokeColor=#82b366;fontSize=20;fontStyle=1;direction=east;rotation=0;fontFamily=Helvetica;fontColor=#1A1A1A;" parent="1" vertex="1"><mxGeometry x="790.94" y="19542" width="24" height="22" as="geometry"/></mxCell><mxCell id="633" style="edgeStyle=orthogonalEdgeStyle;curved=1;rounded=0;sketch=1;orthogonalLoop=1;jettySize=auto;html=1;entryX=1;entryY=0.5;entryDx=0;entryDy=0;entryPerimeter=0;shadow=0;endArrow=classic;endFill=1;fontFamily=Helvetica;fontSize=13;fontColor=#1A1A1A;fillColor=#d5e8d4;strokeWidth=3;exitX=1;exitY=0.5;exitDx=0;exitDy=0;exitPerimeter=0;strokeColor=#C9B744;" parent="1" edge="1"><mxGeometry relative="1" as="geometry"><mxPoint x="617.1200000000002" y="20000" as="sourcePoint"/><mxPoint x="617.1200000000002" y="19939" as="targetPoint"/><Array as="points"><mxPoint x="680.8599999999998" y="20000"/><mxPoint x="680.8599999999998" y="19939"/></Array></mxGeometry></mxCell><mxCell id="634" value="&lt;font style=&quot;font-size: 20px&quot;&gt;&lt;b&gt;mergeSort(&amp;nbsp; &amp;nbsp;)&amp;nbsp;&lt;/b&gt;&lt;/font&gt;" style="text;html=1;align=left;verticalAlign=middle;resizable=0;points=[];autosize=1;fontSize=9;fontFamily=Courier New;fontColor=#1A1A1A;" parent="1" vertex="1"><mxGeometry x="659.3000000000001" y="19914" width="190" height="18" as="geometry"/></mxCell><mxCell id="635" value="&lt;font style=&quot;font-size: 15px&quot;&gt;1&lt;/font&gt;" style="rounded=0;whiteSpace=wrap;html=1;sketch=1;fillColor=#d5e8d4;strokeColor=#82b366;fontSize=20;fontStyle=1;direction=east;rotation=0;fontFamily=Helvetica;fontColor=#1A1A1A;" parent="1" vertex="1"><mxGeometry x="786.3700000000001" y="19914" width="24" height="22" as="geometry"/></mxCell><mxCell id="640" value="" style="shape=cylinder3;whiteSpace=wrap;html=1;boundedLbl=1;backgroundOutline=1;size=15;lid=0;sketch=1;strokeColor=#1A1A1A;strokeWidth=3;fillColor=none;gradientColor=none;fontFamily=Verdana;fontSize=10;" parent="1" vertex="1"><mxGeometry x="315.40999999999997" y="20917" width="115.5" height="294" as="geometry"/></mxCell><mxCell id="641" value="&lt;pre&gt;&lt;font color=&quot;#1a1a1a&quot; style=&quot;font-size: 15px&quot;&gt;mergeSort&lt;/font&gt;&lt;/pre&gt;" style="shape=cylinder3;whiteSpace=wrap;html=1;boundedLbl=1;backgroundOutline=1;size=15;sketch=0;strokeColor=#b46504;strokeWidth=3;fillColor=#fad7ac;fontFamily=Verdana;fontSize=10;spacingTop=-30;" parent="1" vertex="1"><mxGeometry x="323.40999999999997" y="21124" width="96.5" height="80" as="geometry"/></mxCell><mxCell id="642" value="&lt;pre&gt;&lt;font color=&quot;#1a1a1a&quot; style=&quot;font-size: 15px&quot;&gt;mergeSort&lt;/font&gt;&lt;/pre&gt;" style="shape=cylinder3;whiteSpace=wrap;html=1;boundedLbl=1;backgroundOutline=1;size=15;sketch=0;strokeColor=#23445d;strokeWidth=3;fillColor=#bac8d3;fontFamily=Verdana;fontSize=10;spacingTop=-30;" parent="1" vertex="1"><mxGeometry x="323.40999999999997" y="21063" width="96.5" height="80" as="geometry"/></mxCell><mxCell id="643" value="" style="group" parent="1" vertex="1" connectable="0"><mxGeometry x="333.15999999999997" y="21173" width="80" height="20" as="geometry"/></mxCell><mxCell id="644" value="" style="group" parent="643" vertex="1" connectable="0"><mxGeometry width="80" height="20" as="geometry"/></mxCell><mxCell id="645" value="3" style="rounded=0;whiteSpace=wrap;html=1;sketch=0;fontSize=13;fontStyle=0;direction=east;rotation=0;fontFamily=Helvetica;verticalAlign=middle;fillColor=none;fontColor=#1A1A1A;strokeColor=#4D4D4D;" parent="644" vertex="1"><mxGeometry width="20" height="20" as="geometry"/></mxCell><mxCell id="646" value="1" style="rounded=0;whiteSpace=wrap;html=1;sketch=0;fontSize=13;fontStyle=0;direction=east;rotation=0;fontFamily=Helvetica;verticalAlign=middle;fillColor=none;fontColor=#1A1A1A;strokeColor=#4D4D4D;" parent="644" vertex="1"><mxGeometry x="20" width="20" height="20" as="geometry"/></mxCell><mxCell id="647" value="4" style="rounded=0;whiteSpace=wrap;html=1;sketch=0;fontSize=13;fontStyle=0;direction=east;rotation=0;fontFamily=Helvetica;verticalAlign=middle;fillColor=none;fontColor=#1A1A1A;strokeColor=#4D4D4D;" parent="644" vertex="1"><mxGeometry x="40" width="20" height="20" as="geometry"/></mxCell><mxCell id="648" value="2" style="rounded=0;whiteSpace=wrap;html=1;sketch=0;fontSize=13;fontStyle=0;direction=east;rotation=0;fontFamily=Helvetica;verticalAlign=middle;fillColor=none;fontColor=#1A1A1A;strokeColor=#4D4D4D;" parent="644" vertex="1"><mxGeometry x="60" width="20" height="20" as="geometry"/></mxCell><mxCell id="649" value="4" style="rounded=0;whiteSpace=wrap;html=1;sketch=0;fontSize=13;fontStyle=0;direction=east;rotation=0;fontFamily=Helvetica;verticalAlign=middle;fillColor=none;fontColor=#1A1A1A;strokeColor=#4D4D4D;" parent="1" vertex="1"><mxGeometry x="353.15999999999997" y="21115" width="20" height="20" as="geometry"/></mxCell><mxCell id="650" value="2" style="rounded=0;whiteSpace=wrap;html=1;sketch=0;fontSize=13;fontStyle=0;direction=east;rotation=0;fontFamily=Helvetica;verticalAlign=middle;fillColor=none;fontColor=#1A1A1A;strokeColor=#4D4D4D;" parent="1" vertex="1"><mxGeometry x="373.15999999999997" y="21115" width="20" height="20" as="geometry"/></mxCell><mxCell id="651" style="edgeStyle=orthogonalEdgeStyle;curved=1;rounded=0;sketch=1;orthogonalLoop=1;jettySize=auto;html=1;entryX=1;entryY=0.5;entryDx=0;entryDy=0;entryPerimeter=0;shadow=0;endArrow=classic;endFill=1;fontFamily=Helvetica;fontSize=13;fontColor=#1A1A1A;fillColor=#d5e8d4;strokeWidth=3;exitX=1;exitY=0.5;exitDx=0;exitDy=0;exitPerimeter=0;strokeColor=#C9B744;" parent="1" source="641" target="642" edge="1"><mxGeometry relative="1" as="geometry"><mxPoint x="425.85" y="21728" as="sourcePoint"/><mxPoint x="425.85" y="21788" as="targetPoint"/><Array as="points"><mxPoint x="483.65" y="21164"/><mxPoint x="483.65" y="21103"/></Array></mxGeometry></mxCell><mxCell id="652" value="&lt;font style=&quot;font-size: 20px&quot;&gt;&lt;b&gt;mergeSort(&amp;nbsp; &amp;nbsp; &amp;nbsp;)&amp;nbsp;&lt;/b&gt;&lt;/font&gt;" style="text;html=1;align=left;verticalAlign=middle;resizable=0;points=[];autosize=1;fontSize=9;fontFamily=Courier New;fontColor=#1A1A1A;" parent="1" vertex="1"><mxGeometry x="462.0899999999999" y="21078" width="214" height="18" as="geometry"/></mxCell><mxCell id="653" value="&lt;font style=&quot;font-size: 15px&quot;&gt;4&lt;/font&gt;" style="rounded=0;whiteSpace=wrap;html=1;sketch=1;fillColor=#d5e8d4;strokeColor=#82b366;fontSize=20;fontStyle=1;direction=east;rotation=0;fontFamily=Helvetica;fontColor=#1A1A1A;" parent="1" vertex="1"><mxGeometry x="589.1600000000001" y="21078" width="24" height="22" as="geometry"/></mxCell><mxCell id="654" value="&lt;font style=&quot;font-size: 15px&quot;&gt;2&lt;/font&gt;" style="rounded=0;whiteSpace=wrap;html=1;sketch=1;fillColor=#d5e8d4;strokeColor=#82b366;fontSize=20;fontStyle=1;direction=east;rotation=0;fontFamily=Helvetica;fontColor=#1A1A1A;" parent="1" vertex="1"><mxGeometry x="613.5900000000001" y="21078" width="24" height="22" as="geometry"/></mxCell><mxCell id="655" value="&lt;font style=&quot;font-size: 20px&quot;&gt;&lt;b&gt;left =&amp;nbsp;&lt;/b&gt;&lt;/font&gt;" style="text;html=1;align=right;verticalAlign=middle;resizable=0;points=[];autosize=1;fontSize=9;fontFamily=Courier New;fontColor=#1A1A1A;" parent="1" vertex="1"><mxGeometry x="172.45" y="21140" width="94" height="18" as="geometry"/></mxCell><mxCell id="656" value="&lt;font style=&quot;font-size: 15px&quot;&gt;1&lt;/font&gt;" style="rounded=0;whiteSpace=wrap;html=1;sketch=1;fillColor=#d5e8d4;strokeColor=#82b366;fontSize=20;fontStyle=1;direction=east;rotation=0;fontFamily=Helvetica;fontColor=#1A1A1A;" parent="1" vertex="1"><mxGeometry x="260.61" y="21138" width="24" height="22" as="geometry"/></mxCell><mxCell id="657" value="&lt;font style=&quot;font-size: 15px&quot;&gt;3&lt;/font&gt;" style="rounded=0;whiteSpace=wrap;html=1;sketch=1;fillColor=#d5e8d4;strokeColor=#82b366;fontSize=20;fontStyle=1;direction=east;rotation=0;fontFamily=Helvetica;fontColor=#1A1A1A;" parent="1" vertex="1"><mxGeometry x="285.0400000000001" y="21138" width="24" height="22" as="geometry"/></mxCell><mxCell id="658" value="" style="shape=cylinder3;whiteSpace=wrap;html=1;boundedLbl=1;backgroundOutline=1;size=15;lid=0;sketch=1;strokeColor=#1A1A1A;strokeWidth=3;fillColor=none;gradientColor=none;fontFamily=Verdana;fontSize=10;" parent="1" vertex="1"><mxGeometry x="500.24000000000007" y="21280" width="115.5" height="294" as="geometry"/></mxCell><mxCell id="659" value="&lt;pre&gt;&lt;font color=&quot;#1a1a1a&quot; style=&quot;font-size: 15px&quot;&gt;mergeSort&lt;/font&gt;&lt;/pre&gt;" style="shape=cylinder3;whiteSpace=wrap;html=1;boundedLbl=1;backgroundOutline=1;size=15;sketch=0;strokeColor=#b46504;strokeWidth=3;fillColor=#fad7ac;fontFamily=Verdana;fontSize=10;spacingTop=-30;" parent="1" vertex="1"><mxGeometry x="508.24000000000007" y="21487" width="96.5" height="80" as="geometry"/></mxCell><mxCell id="660" value="&lt;pre&gt;&lt;font color=&quot;#1a1a1a&quot; style=&quot;font-size: 15px&quot;&gt;mergeSort&lt;/font&gt;&lt;/pre&gt;" style="shape=cylinder3;whiteSpace=wrap;html=1;boundedLbl=1;backgroundOutline=1;size=15;sketch=0;strokeColor=#23445d;strokeWidth=3;fillColor=#bac8d3;fontFamily=Verdana;fontSize=10;spacingTop=-30;" parent="1" vertex="1"><mxGeometry x="508.24000000000007" y="21426" width="96.5" height="80" as="geometry"/></mxCell><mxCell id="661" value="&lt;pre&gt;&lt;font color=&quot;#1a1a1a&quot; style=&quot;font-size: 15px&quot;&gt;mergeSort&lt;/font&gt;&lt;/pre&gt;" style="shape=cylinder3;whiteSpace=wrap;html=1;boundedLbl=1;backgroundOutline=1;size=15;sketch=0;strokeColor=#ae4132;strokeWidth=3;fillColor=#fad9d5;fontFamily=Verdana;fontSize=10;spacingTop=-30;" parent="1" vertex="1"><mxGeometry x="508.24000000000007" y="21366" width="96.5" height="80" as="geometry"/></mxCell><mxCell id="662" value="" style="group" parent="1" vertex="1" connectable="0"><mxGeometry x="517.9900000000001" y="21536" width="80" height="20" as="geometry"/></mxCell><mxCell id="663" value="" style="group" parent="662" vertex="1" connectable="0"><mxGeometry width="80" height="20" as="geometry"/></mxCell><mxCell id="664" value="3" style="rounded=0;whiteSpace=wrap;html=1;sketch=0;fontSize=13;fontStyle=0;direction=east;rotation=0;fontFamily=Helvetica;verticalAlign=middle;fillColor=none;fontColor=#1A1A1A;strokeColor=#4D4D4D;" parent="663" vertex="1"><mxGeometry width="20" height="20" as="geometry"/></mxCell><mxCell id="665" value="1" style="rounded=0;whiteSpace=wrap;html=1;sketch=0;fontSize=13;fontStyle=0;direction=east;rotation=0;fontFamily=Helvetica;verticalAlign=middle;fillColor=none;fontColor=#1A1A1A;strokeColor=#4D4D4D;" parent="663" vertex="1"><mxGeometry x="20" width="20" height="20" as="geometry"/></mxCell><mxCell id="666" value="4" style="rounded=0;whiteSpace=wrap;html=1;sketch=0;fontSize=13;fontStyle=0;direction=east;rotation=0;fontFamily=Helvetica;verticalAlign=middle;fillColor=none;fontColor=#1A1A1A;strokeColor=#4D4D4D;" parent="663" vertex="1"><mxGeometry x="40" width="20" height="20" as="geometry"/></mxCell><mxCell id="667" value="2" style="rounded=0;whiteSpace=wrap;html=1;sketch=0;fontSize=13;fontStyle=0;direction=east;rotation=0;fontFamily=Helvetica;verticalAlign=middle;fillColor=none;fontColor=#1A1A1A;strokeColor=#4D4D4D;" parent="663" vertex="1"><mxGeometry x="60" width="20" height="20" as="geometry"/></mxCell><mxCell id="668" value="4" style="rounded=0;whiteSpace=wrap;html=1;sketch=0;fontSize=13;fontStyle=0;direction=east;rotation=0;fontFamily=Helvetica;verticalAlign=middle;fillColor=none;fontColor=#1A1A1A;strokeColor=#4D4D4D;" parent="1" vertex="1"><mxGeometry x="537.9900000000001" y="21478" width="20" height="20" as="geometry"/></mxCell><mxCell id="669" value="2" style="rounded=0;whiteSpace=wrap;html=1;sketch=0;fontSize=13;fontStyle=0;direction=east;rotation=0;fontFamily=Helvetica;verticalAlign=middle;fillColor=none;fontColor=#1A1A1A;strokeColor=#4D4D4D;" parent="1" vertex="1"><mxGeometry x="557.9900000000001" y="21478" width="20" height="20" as="geometry"/></mxCell><mxCell id="670" value="4" style="rounded=0;whiteSpace=wrap;html=1;sketch=0;fontSize=13;fontStyle=0;direction=east;rotation=0;fontFamily=Helvetica;verticalAlign=middle;fillColor=none;fontColor=#1A1A1A;strokeColor=#4D4D4D;" parent="1" vertex="1"><mxGeometry x="547.9900000000001" y="21419" width="20" height="20" as="geometry"/></mxCell><mxCell id="671" value="" style="shape=cylinder3;whiteSpace=wrap;html=1;boundedLbl=1;backgroundOutline=1;size=15;lid=0;sketch=1;strokeColor=#1A1A1A;strokeWidth=3;fillColor=none;gradientColor=none;fontFamily=Verdana;fontSize=10;" parent="1" vertex="1"><mxGeometry x="894.3399999999999" y="21282" width="115.5" height="294" as="geometry"/></mxCell><mxCell id="672" value="&lt;pre&gt;&lt;font color=&quot;#1a1a1a&quot; style=&quot;font-size: 15px&quot;&gt;mergeSort&lt;/font&gt;&lt;/pre&gt;" style="shape=cylinder3;whiteSpace=wrap;html=1;boundedLbl=1;backgroundOutline=1;size=15;sketch=0;strokeColor=#b46504;strokeWidth=3;fillColor=#fad7ac;fontFamily=Verdana;fontSize=10;spacingTop=-30;" parent="1" vertex="1"><mxGeometry x="902.3399999999999" y="21489" width="96.5" height="80" as="geometry"/></mxCell><mxCell id="673" value="&lt;pre&gt;&lt;font color=&quot;#1a1a1a&quot; style=&quot;font-size: 15px&quot;&gt;mergeSort&lt;/font&gt;&lt;/pre&gt;" style="shape=cylinder3;whiteSpace=wrap;html=1;boundedLbl=1;backgroundOutline=1;size=15;sketch=0;strokeColor=#23445d;strokeWidth=3;fillColor=#bac8d3;fontFamily=Verdana;fontSize=10;spacingTop=-30;" parent="1" vertex="1"><mxGeometry x="902.3399999999999" y="21428" width="96.5" height="80" as="geometry"/></mxCell><mxCell id="674" style="edgeStyle=orthogonalEdgeStyle;curved=1;rounded=0;sketch=1;orthogonalLoop=1;jettySize=auto;html=1;entryX=1;entryY=0.5;entryDx=0;entryDy=0;entryPerimeter=0;shadow=0;endArrow=classic;endFill=1;fontFamily=Helvetica;fontSize=13;fontColor=#1A1A1A;fillColor=#d5e8d4;strokeWidth=3;strokeColor=#3DC94A;" parent="1" source="675" target="673" edge="1"><mxGeometry relative="1" as="geometry"><Array as="points"><mxPoint x="1055.28" y="21408"/><mxPoint x="1055.28" y="21468"/></Array></mxGeometry></mxCell><mxCell id="675" value="&lt;pre&gt;&lt;font color=&quot;#1a1a1a&quot; style=&quot;font-size: 15px&quot;&gt;mergeSort&lt;/font&gt;&lt;/pre&gt;" style="shape=cylinder3;whiteSpace=wrap;html=1;boundedLbl=1;backgroundOutline=1;size=15;sketch=0;strokeColor=#ae4132;strokeWidth=3;fillColor=#fad9d5;fontFamily=Verdana;fontSize=10;spacingTop=-30;shadow=0;" parent="1" vertex="1"><mxGeometry x="902.3399999999999" y="21368" width="96.5" height="80" as="geometry"/></mxCell><mxCell id="676" value="" style="group" parent="1" vertex="1" connectable="0"><mxGeometry x="912.0899999999999" y="21538" width="80" height="20" as="geometry"/></mxCell><mxCell id="677" value="" style="group" parent="676" vertex="1" connectable="0"><mxGeometry width="80" height="20" as="geometry"/></mxCell><mxCell id="678" value="3" style="rounded=0;whiteSpace=wrap;html=1;sketch=0;fontSize=13;fontStyle=0;direction=east;rotation=0;fontFamily=Helvetica;verticalAlign=middle;fillColor=none;fontColor=#1A1A1A;strokeColor=#4D4D4D;" parent="677" vertex="1"><mxGeometry width="20" height="20" as="geometry"/></mxCell><mxCell id="679" value="1" style="rounded=0;whiteSpace=wrap;html=1;sketch=0;fontSize=13;fontStyle=0;direction=east;rotation=0;fontFamily=Helvetica;verticalAlign=middle;fillColor=none;fontColor=#1A1A1A;strokeColor=#4D4D4D;" parent="677" vertex="1"><mxGeometry x="20" width="20" height="20" as="geometry"/></mxCell><mxCell id="680" value="4" style="rounded=0;whiteSpace=wrap;html=1;sketch=0;fontSize=13;fontStyle=0;direction=east;rotation=0;fontFamily=Helvetica;verticalAlign=middle;fillColor=none;fontColor=#1A1A1A;strokeColor=#4D4D4D;" parent="677" vertex="1"><mxGeometry x="40" width="20" height="20" as="geometry"/></mxCell><mxCell id="681" value="2" style="rounded=0;whiteSpace=wrap;html=1;sketch=0;fontSize=13;fontStyle=0;direction=east;rotation=0;fontFamily=Helvetica;verticalAlign=middle;fillColor=none;fontColor=#1A1A1A;strokeColor=#4D4D4D;" parent="677" vertex="1"><mxGeometry x="60" width="20" height="20" as="geometry"/></mxCell><mxCell id="682" value="4" style="rounded=0;whiteSpace=wrap;html=1;sketch=0;fontSize=13;fontStyle=0;direction=east;rotation=0;fontFamily=Helvetica;verticalAlign=middle;fillColor=none;fontColor=#1A1A1A;strokeColor=#4D4D4D;" parent="1" vertex="1"><mxGeometry x="932.0899999999999" y="21480" width="20" height="20" as="geometry"/></mxCell><mxCell id="683" value="2" style="rounded=0;whiteSpace=wrap;html=1;sketch=0;fontSize=13;fontStyle=0;direction=east;rotation=0;fontFamily=Helvetica;verticalAlign=middle;fillColor=none;fontColor=#1A1A1A;strokeColor=#4D4D4D;" parent="1" vertex="1"><mxGeometry x="952.0899999999999" y="21480" width="20" height="20" as="geometry"/></mxCell><mxCell id="684" value="4" style="rounded=0;whiteSpace=wrap;html=1;sketch=0;fontSize=13;fontStyle=0;direction=east;rotation=0;fontFamily=Helvetica;verticalAlign=middle;fillColor=none;fontColor=#1A1A1A;strokeColor=#4D4D4D;" parent="1" vertex="1"><mxGeometry x="942.0899999999999" y="21421" width="20" height="20" as="geometry"/></mxCell><mxCell id="685" value="&lt;font style=&quot;font-size: 15px&quot;&gt;4&lt;/font&gt;" style="rounded=0;whiteSpace=wrap;html=1;sketch=1;fillColor=#d5e8d4;strokeColor=#82b366;fontSize=20;fontStyle=1;direction=east;rotation=0;fontFamily=Helvetica;fontColor=#1A1A1A;" parent="1" vertex="1"><mxGeometry x="1103.34" y="21383" width="24" height="22" as="geometry"/></mxCell><mxCell id="686" value="&lt;font style=&quot;font-size: 20px&quot;&gt;&lt;b&gt;left =&amp;nbsp;&lt;/b&gt;&lt;/font&gt;" style="text;html=1;align=center;verticalAlign=middle;resizable=0;points=[];autosize=1;fontSize=9;fontFamily=Courier New;fontColor=#1A1A1A;" parent="1" vertex="1"><mxGeometry x="1013.0899999999999" y="21385" width="94" height="18" as="geometry"/></mxCell><mxCell id="687" style="edgeStyle=orthogonalEdgeStyle;curved=1;rounded=0;sketch=1;orthogonalLoop=1;jettySize=auto;html=1;entryX=1;entryY=0.5;entryDx=0;entryDy=0;entryPerimeter=0;shadow=0;endArrow=classic;endFill=1;fontFamily=Helvetica;fontSize=13;fontColor=#1A1A1A;fillColor=#d5e8d4;strokeWidth=3;exitX=1;exitY=0.5;exitDx=0;exitDy=0;exitPerimeter=0;strokeColor=#C9B744;" parent="1" edge="1"><mxGeometry relative="1" as="geometry"><mxPoint x="602.6800000000002" y="21466" as="sourcePoint"/><mxPoint x="602.6800000000002" y="21405" as="targetPoint"/><Array as="points"><mxPoint x="666.4200000000001" y="21466"/><mxPoint x="666.4200000000001" y="21405"/></Array></mxGeometry></mxCell><mxCell id="689" value="&lt;font style=&quot;font-size: 20px&quot;&gt;&lt;b&gt;mergeSort(&amp;nbsp; &amp;nbsp;)&amp;nbsp;&lt;/b&gt;&lt;/font&gt;" style="text;html=1;align=left;verticalAlign=middle;resizable=0;points=[];autosize=1;fontSize=9;fontFamily=Courier New;fontColor=#1A1A1A;" parent="1" vertex="1"><mxGeometry x="642.9300000000001" y="21384" width="190" height="18" as="geometry"/></mxCell><mxCell id="690" value="&lt;font style=&quot;font-size: 15px&quot;&gt;4&lt;/font&gt;" style="rounded=0;whiteSpace=wrap;html=1;sketch=1;fillColor=#d5e8d4;strokeColor=#82b366;fontSize=20;fontStyle=1;direction=east;rotation=0;fontFamily=Helvetica;fontColor=#1A1A1A;" parent="1" vertex="1"><mxGeometry x="770.0000000000001" y="21384" width="24" height="22" as="geometry"/></mxCell><mxCell id="696" value="&lt;font style=&quot;font-size: 20px&quot;&gt;&lt;b&gt;left =&amp;nbsp;&lt;/b&gt;&lt;/font&gt;" style="text;html=1;align=right;verticalAlign=middle;resizable=0;points=[];autosize=1;fontSize=9;fontFamily=Courier New;fontColor=#1A1A1A;" parent="1" vertex="1"><mxGeometry x="357.49999999999994" y="21508" width="94" height="18" as="geometry"/></mxCell><mxCell id="697" value="&lt;font style=&quot;font-size: 15px&quot;&gt;1&lt;/font&gt;" style="rounded=0;whiteSpace=wrap;html=1;sketch=1;fillColor=#d5e8d4;strokeColor=#82b366;fontSize=20;fontStyle=1;direction=east;rotation=0;fontFamily=Helvetica;fontColor=#1A1A1A;" parent="1" vertex="1"><mxGeometry x="445.66000000000014" y="21506" width="24" height="22" as="geometry"/></mxCell><mxCell id="698" value="&lt;font style=&quot;font-size: 15px&quot;&gt;3&lt;/font&gt;" style="rounded=0;whiteSpace=wrap;html=1;sketch=1;fillColor=#d5e8d4;strokeColor=#82b366;fontSize=20;fontStyle=1;direction=east;rotation=0;fontFamily=Helvetica;fontColor=#1A1A1A;" parent="1" vertex="1"><mxGeometry x="470.0900000000001" y="21506" width="24" height="22" as="geometry"/></mxCell><mxCell id="699" value="&lt;font style=&quot;font-size: 20px&quot;&gt;&lt;b&gt;left =&amp;nbsp;&lt;/b&gt;&lt;/font&gt;" style="text;html=1;align=right;verticalAlign=middle;resizable=0;points=[];autosize=1;fontSize=9;fontFamily=Courier New;fontColor=#1A1A1A;" parent="1" vertex="1"><mxGeometry x="752.66" y="21510" width="94" height="18" as="geometry"/></mxCell><mxCell id="700" value="&lt;font style=&quot;font-size: 15px&quot;&gt;1&lt;/font&gt;" style="rounded=0;whiteSpace=wrap;html=1;sketch=1;fillColor=#d5e8d4;strokeColor=#82b366;fontSize=20;fontStyle=1;direction=east;rotation=0;fontFamily=Helvetica;fontColor=#1A1A1A;" parent="1" vertex="1"><mxGeometry x="840.8199999999999" y="21508" width="24" height="22" as="geometry"/></mxCell><mxCell id="701" value="&lt;font style=&quot;font-size: 15px&quot;&gt;3&lt;/font&gt;" style="rounded=0;whiteSpace=wrap;html=1;sketch=1;fillColor=#d5e8d4;strokeColor=#82b366;fontSize=20;fontStyle=1;direction=east;rotation=0;fontFamily=Helvetica;fontColor=#1A1A1A;" parent="1" vertex="1"><mxGeometry x="865.25" y="21508" width="24" height="22" as="geometry"/></mxCell><mxCell id="722" value="" style="shape=cylinder3;whiteSpace=wrap;html=1;boundedLbl=1;backgroundOutline=1;size=15;lid=0;sketch=1;strokeColor=#1A1A1A;strokeWidth=3;fillColor=none;gradientColor=none;fontFamily=Verdana;fontSize=10;" parent="1" vertex="1"><mxGeometry x="1314.5000000000002" y="21280" width="115.5" height="294" as="geometry"/></mxCell><mxCell id="723" value="&lt;pre&gt;&lt;font color=&quot;#1a1a1a&quot; style=&quot;font-size: 15px&quot;&gt;mergeSort&lt;/font&gt;&lt;/pre&gt;" style="shape=cylinder3;whiteSpace=wrap;html=1;boundedLbl=1;backgroundOutline=1;size=15;sketch=0;strokeColor=#b46504;strokeWidth=3;fillColor=#fad7ac;fontFamily=Verdana;fontSize=10;spacingTop=-30;" parent="1" vertex="1"><mxGeometry x="1322.5000000000002" y="21487" width="96.5" height="80" as="geometry"/></mxCell><mxCell id="724" value="&lt;pre&gt;&lt;font color=&quot;#1a1a1a&quot; style=&quot;font-size: 15px&quot;&gt;mergeSort&lt;/font&gt;&lt;/pre&gt;" style="shape=cylinder3;whiteSpace=wrap;html=1;boundedLbl=1;backgroundOutline=1;size=15;sketch=0;strokeColor=#23445d;strokeWidth=3;fillColor=#bac8d3;fontFamily=Verdana;fontSize=10;spacingTop=-30;" parent="1" vertex="1"><mxGeometry x="1322.5000000000002" y="21426" width="96.5" height="80" as="geometry"/></mxCell><mxCell id="727" value="" style="group" parent="1" vertex="1" connectable="0"><mxGeometry x="1332.2500000000002" y="21536" width="80" height="20" as="geometry"/></mxCell><mxCell id="728" value="" style="group" parent="727" vertex="1" connectable="0"><mxGeometry width="80" height="20" as="geometry"/></mxCell><mxCell id="729" value="3" style="rounded=0;whiteSpace=wrap;html=1;sketch=0;fontSize=13;fontStyle=0;direction=east;rotation=0;fontFamily=Helvetica;verticalAlign=middle;fillColor=none;fontColor=#1A1A1A;strokeColor=#4D4D4D;" parent="728" vertex="1"><mxGeometry width="20" height="20" as="geometry"/></mxCell><mxCell id="730" value="1" style="rounded=0;whiteSpace=wrap;html=1;sketch=0;fontSize=13;fontStyle=0;direction=east;rotation=0;fontFamily=Helvetica;verticalAlign=middle;fillColor=none;fontColor=#1A1A1A;strokeColor=#4D4D4D;" parent="728" vertex="1"><mxGeometry x="20" width="20" height="20" as="geometry"/></mxCell><mxCell id="731" value="4" style="rounded=0;whiteSpace=wrap;html=1;sketch=0;fontSize=13;fontStyle=0;direction=east;rotation=0;fontFamily=Helvetica;verticalAlign=middle;fillColor=none;fontColor=#1A1A1A;strokeColor=#4D4D4D;" parent="728" vertex="1"><mxGeometry x="40" width="20" height="20" as="geometry"/></mxCell><mxCell id="732" value="2" style="rounded=0;whiteSpace=wrap;html=1;sketch=0;fontSize=13;fontStyle=0;direction=east;rotation=0;fontFamily=Helvetica;verticalAlign=middle;fillColor=none;fontColor=#1A1A1A;strokeColor=#4D4D4D;" parent="728" vertex="1"><mxGeometry x="60" width="20" height="20" as="geometry"/></mxCell><mxCell id="733" value="4" style="rounded=0;whiteSpace=wrap;html=1;sketch=0;fontSize=13;fontStyle=0;direction=east;rotation=0;fontFamily=Helvetica;verticalAlign=middle;fillColor=none;fontColor=#1A1A1A;strokeColor=#4D4D4D;" parent="1" vertex="1"><mxGeometry x="1352.2500000000002" y="21478" width="20" height="20" as="geometry"/></mxCell><mxCell id="734" value="2" style="rounded=0;whiteSpace=wrap;html=1;sketch=0;fontSize=13;fontStyle=0;direction=east;rotation=0;fontFamily=Helvetica;verticalAlign=middle;fillColor=none;fontColor=#1A1A1A;strokeColor=#4D4D4D;" parent="1" vertex="1"><mxGeometry x="1372.2500000000002" y="21478" width="20" height="20" as="geometry"/></mxCell><mxCell id="736" value="&lt;font style=&quot;font-size: 15px&quot;&gt;4&lt;/font&gt;" style="rounded=0;whiteSpace=wrap;html=1;sketch=1;fillColor=#d5e8d4;strokeColor=#82b366;fontSize=20;fontStyle=1;direction=east;rotation=0;fontFamily=Helvetica;fontColor=#1A1A1A;" parent="1" vertex="1"><mxGeometry x="1285.5700000000002" y="21448" width="24" height="22" as="geometry"/></mxCell><mxCell id="737" value="&lt;font style=&quot;font-size: 20px&quot;&gt;&lt;b&gt;left =&amp;nbsp;&lt;/b&gt;&lt;/font&gt;" style="text;html=1;align=center;verticalAlign=middle;resizable=0;points=[];autosize=1;fontSize=9;fontFamily=Courier New;fontColor=#1A1A1A;" parent="1" vertex="1"><mxGeometry x="1195.3200000000002" y="21450" width="94" height="18" as="geometry"/></mxCell><mxCell id="738" value="&lt;font style=&quot;font-size: 20px&quot;&gt;&lt;b&gt;left =&amp;nbsp;&lt;/b&gt;&lt;/font&gt;" style="text;html=1;align=right;verticalAlign=middle;resizable=0;points=[];autosize=1;fontSize=9;fontFamily=Courier New;fontColor=#1A1A1A;" parent="1" vertex="1"><mxGeometry x="1172.8200000000002" y="21508" width="94" height="18" as="geometry"/></mxCell><mxCell id="739" value="&lt;font style=&quot;font-size: 15px&quot;&gt;1&lt;/font&gt;" style="rounded=0;whiteSpace=wrap;html=1;sketch=1;fillColor=#d5e8d4;strokeColor=#82b366;fontSize=20;fontStyle=1;direction=east;rotation=0;fontFamily=Helvetica;fontColor=#1A1A1A;" parent="1" vertex="1"><mxGeometry x="1260.9800000000002" y="21506" width="24" height="22" as="geometry"/></mxCell><mxCell id="740" value="&lt;font style=&quot;font-size: 15px&quot;&gt;3&lt;/font&gt;" style="rounded=0;whiteSpace=wrap;html=1;sketch=1;fillColor=#d5e8d4;strokeColor=#82b366;fontSize=20;fontStyle=1;direction=east;rotation=0;fontFamily=Helvetica;fontColor=#1A1A1A;" parent="1" vertex="1"><mxGeometry x="1285.4100000000003" y="21506" width="24" height="22" as="geometry"/></mxCell><mxCell id="741" value="" style="shape=cylinder3;whiteSpace=wrap;html=1;boundedLbl=1;backgroundOutline=1;size=15;lid=0;sketch=1;strokeColor=#1A1A1A;strokeWidth=3;fillColor=none;gradientColor=none;fontFamily=Verdana;fontSize=10;" parent="1" vertex="1"><mxGeometry x="500.24" y="21651" width="115.5" height="294" as="geometry"/></mxCell><mxCell id="742" value="&lt;pre&gt;&lt;font color=&quot;#1a1a1a&quot; style=&quot;font-size: 15px&quot;&gt;mergeSort&lt;/font&gt;&lt;/pre&gt;" style="shape=cylinder3;whiteSpace=wrap;html=1;boundedLbl=1;backgroundOutline=1;size=15;sketch=0;strokeColor=#b46504;strokeWidth=3;fillColor=#fad7ac;fontFamily=Verdana;fontSize=10;spacingTop=-30;" parent="1" vertex="1"><mxGeometry x="508.24" y="21858" width="96.5" height="80" as="geometry"/></mxCell><mxCell id="743" value="&lt;pre&gt;&lt;font color=&quot;#1a1a1a&quot; style=&quot;font-size: 15px&quot;&gt;mergeSort&lt;/font&gt;&lt;/pre&gt;" style="shape=cylinder3;whiteSpace=wrap;html=1;boundedLbl=1;backgroundOutline=1;size=15;sketch=0;strokeColor=#23445d;strokeWidth=3;fillColor=#bac8d3;fontFamily=Verdana;fontSize=10;spacingTop=-30;" parent="1" vertex="1"><mxGeometry x="508.24" y="21797" width="96.5" height="80" as="geometry"/></mxCell><mxCell id="744" value="&lt;pre&gt;&lt;font color=&quot;#1a1a1a&quot; style=&quot;font-size: 15px&quot;&gt;mergeSort&lt;/font&gt;&lt;/pre&gt;" style="shape=cylinder3;whiteSpace=wrap;html=1;boundedLbl=1;backgroundOutline=1;size=15;sketch=0;strokeColor=#ae4132;strokeWidth=3;fillColor=#fad9d5;fontFamily=Verdana;fontSize=10;spacingTop=-30;" parent="1" vertex="1"><mxGeometry x="508.24" y="21737" width="96.5" height="80" as="geometry"/></mxCell><mxCell id="745" value="" style="group" parent="1" vertex="1" connectable="0"><mxGeometry x="517.99" y="21907" width="80" height="20" as="geometry"/></mxCell><mxCell id="746" value="" style="group" parent="745" vertex="1" connectable="0"><mxGeometry width="80" height="20" as="geometry"/></mxCell><mxCell id="747" value="3" style="rounded=0;whiteSpace=wrap;html=1;sketch=0;fontSize=13;fontStyle=0;direction=east;rotation=0;fontFamily=Helvetica;verticalAlign=middle;fillColor=none;fontColor=#1A1A1A;strokeColor=#4D4D4D;" parent="746" vertex="1"><mxGeometry width="20" height="20" as="geometry"/></mxCell><mxCell id="748" value="1" style="rounded=0;whiteSpace=wrap;html=1;sketch=0;fontSize=13;fontStyle=0;direction=east;rotation=0;fontFamily=Helvetica;verticalAlign=middle;fillColor=none;fontColor=#1A1A1A;strokeColor=#4D4D4D;" parent="746" vertex="1"><mxGeometry x="20" width="20" height="20" as="geometry"/></mxCell><mxCell id="749" value="4" style="rounded=0;whiteSpace=wrap;html=1;sketch=0;fontSize=13;fontStyle=0;direction=east;rotation=0;fontFamily=Helvetica;verticalAlign=middle;fillColor=none;fontColor=#1A1A1A;strokeColor=#4D4D4D;" parent="746" vertex="1"><mxGeometry x="40" width="20" height="20" as="geometry"/></mxCell><mxCell id="750" value="2" style="rounded=0;whiteSpace=wrap;html=1;sketch=0;fontSize=13;fontStyle=0;direction=east;rotation=0;fontFamily=Helvetica;verticalAlign=middle;fillColor=none;fontColor=#1A1A1A;strokeColor=#4D4D4D;" parent="746" vertex="1"><mxGeometry x="60" width="20" height="20" as="geometry"/></mxCell><mxCell id="751" value="4" style="rounded=0;whiteSpace=wrap;html=1;sketch=0;fontSize=13;fontStyle=0;direction=east;rotation=0;fontFamily=Helvetica;verticalAlign=middle;fillColor=none;fontColor=#1A1A1A;strokeColor=#4D4D4D;" parent="1" vertex="1"><mxGeometry x="537.99" y="21849" width="20" height="20" as="geometry"/></mxCell><mxCell id="752" value="2" style="rounded=0;whiteSpace=wrap;html=1;sketch=0;fontSize=13;fontStyle=0;direction=east;rotation=0;fontFamily=Helvetica;verticalAlign=middle;fillColor=none;fontColor=#1A1A1A;strokeColor=#4D4D4D;" parent="1" vertex="1"><mxGeometry x="557.99" y="21849" width="20" height="20" as="geometry"/></mxCell><mxCell id="753" value="2" style="rounded=0;whiteSpace=wrap;html=1;sketch=0;fontSize=13;fontStyle=0;direction=east;rotation=0;fontFamily=Helvetica;verticalAlign=middle;fillColor=none;fontColor=#1A1A1A;strokeColor=#4D4D4D;" parent="1" vertex="1"><mxGeometry x="547.99" y="21790" width="20" height="20" as="geometry"/></mxCell><mxCell id="754" value="" style="shape=cylinder3;whiteSpace=wrap;html=1;boundedLbl=1;backgroundOutline=1;size=15;lid=0;sketch=1;strokeColor=#1A1A1A;strokeWidth=3;fillColor=none;gradientColor=none;fontFamily=Verdana;fontSize=10;" parent="1" vertex="1"><mxGeometry x="896.43" y="21681" width="115.5" height="294" as="geometry"/></mxCell><mxCell id="755" value="&lt;pre&gt;&lt;font color=&quot;#1a1a1a&quot; style=&quot;font-size: 15px&quot;&gt;mergeSort&lt;/font&gt;&lt;/pre&gt;" style="shape=cylinder3;whiteSpace=wrap;html=1;boundedLbl=1;backgroundOutline=1;size=15;sketch=0;strokeColor=#b46504;strokeWidth=3;fillColor=#fad7ac;fontFamily=Verdana;fontSize=10;spacingTop=-30;" parent="1" vertex="1"><mxGeometry x="904.43" y="21888" width="96.5" height="80" as="geometry"/></mxCell><mxCell id="756" value="&lt;pre&gt;&lt;font color=&quot;#1a1a1a&quot; style=&quot;font-size: 15px&quot;&gt;mergeSort&lt;/font&gt;&lt;/pre&gt;" style="shape=cylinder3;whiteSpace=wrap;html=1;boundedLbl=1;backgroundOutline=1;size=15;sketch=0;strokeColor=#23445d;strokeWidth=3;fillColor=#bac8d3;fontFamily=Verdana;fontSize=10;spacingTop=-30;" parent="1" vertex="1"><mxGeometry x="904.43" y="21827" width="96.5" height="80" as="geometry"/></mxCell><mxCell id="757" style="edgeStyle=orthogonalEdgeStyle;curved=1;rounded=0;sketch=1;orthogonalLoop=1;jettySize=auto;html=1;entryX=1;entryY=0.5;entryDx=0;entryDy=0;entryPerimeter=0;shadow=0;endArrow=classic;endFill=1;fontFamily=Helvetica;fontSize=13;fontColor=#1A1A1A;fillColor=#d5e8d4;strokeWidth=3;strokeColor=#3DC94A;" parent="1" source="758" target="756" edge="1"><mxGeometry relative="1" as="geometry"><Array as="points"><mxPoint x="1057.37" y="21807"/><mxPoint x="1057.37" y="21867"/></Array></mxGeometry></mxCell><mxCell id="758" value="&lt;pre&gt;&lt;font color=&quot;#1a1a1a&quot; style=&quot;font-size: 15px&quot;&gt;mergeSort&lt;/font&gt;&lt;/pre&gt;" style="shape=cylinder3;whiteSpace=wrap;html=1;boundedLbl=1;backgroundOutline=1;size=15;sketch=0;strokeColor=#ae4132;strokeWidth=3;fillColor=#fad9d5;fontFamily=Verdana;fontSize=10;spacingTop=-30;shadow=0;" parent="1" vertex="1"><mxGeometry x="904.43" y="21767" width="96.5" height="80" as="geometry"/></mxCell><mxCell id="759" value="" style="group" parent="1" vertex="1" connectable="0"><mxGeometry x="914.18" y="21937" width="80" height="20" as="geometry"/></mxCell><mxCell id="760" value="" style="group" parent="759" vertex="1" connectable="0"><mxGeometry width="80" height="20" as="geometry"/></mxCell><mxCell id="761" value="3" style="rounded=0;whiteSpace=wrap;html=1;sketch=0;fontSize=13;fontStyle=0;direction=east;rotation=0;fontFamily=Helvetica;verticalAlign=middle;fillColor=none;fontColor=#1A1A1A;strokeColor=#4D4D4D;" parent="760" vertex="1"><mxGeometry width="20" height="20" as="geometry"/></mxCell><mxCell id="762" value="1" style="rounded=0;whiteSpace=wrap;html=1;sketch=0;fontSize=13;fontStyle=0;direction=east;rotation=0;fontFamily=Helvetica;verticalAlign=middle;fillColor=none;fontColor=#1A1A1A;strokeColor=#4D4D4D;" parent="760" vertex="1"><mxGeometry x="20" width="20" height="20" as="geometry"/></mxCell><mxCell id="763" value="4" style="rounded=0;whiteSpace=wrap;html=1;sketch=0;fontSize=13;fontStyle=0;direction=east;rotation=0;fontFamily=Helvetica;verticalAlign=middle;fillColor=none;fontColor=#1A1A1A;strokeColor=#4D4D4D;" parent="760" vertex="1"><mxGeometry x="40" width="20" height="20" as="geometry"/></mxCell><mxCell id="764" value="2" style="rounded=0;whiteSpace=wrap;html=1;sketch=0;fontSize=13;fontStyle=0;direction=east;rotation=0;fontFamily=Helvetica;verticalAlign=middle;fillColor=none;fontColor=#1A1A1A;strokeColor=#4D4D4D;" parent="760" vertex="1"><mxGeometry x="60" width="20" height="20" as="geometry"/></mxCell><mxCell id="765" value="4" style="rounded=0;whiteSpace=wrap;html=1;sketch=0;fontSize=13;fontStyle=0;direction=east;rotation=0;fontFamily=Helvetica;verticalAlign=middle;fillColor=none;fontColor=#1A1A1A;strokeColor=#4D4D4D;" parent="1" vertex="1"><mxGeometry x="934.18" y="21879" width="20" height="20" as="geometry"/></mxCell><mxCell id="766" value="2" style="rounded=0;whiteSpace=wrap;html=1;sketch=0;fontSize=13;fontStyle=0;direction=east;rotation=0;fontFamily=Helvetica;verticalAlign=middle;fillColor=none;fontColor=#1A1A1A;strokeColor=#4D4D4D;" parent="1" vertex="1"><mxGeometry x="954.18" y="21879" width="20" height="20" as="geometry"/></mxCell><mxCell id="767" value="2" style="rounded=0;whiteSpace=wrap;html=1;sketch=0;fontSize=13;fontStyle=0;direction=east;rotation=0;fontFamily=Helvetica;verticalAlign=middle;fillColor=none;fontColor=#1A1A1A;strokeColor=#4D4D4D;" parent="1" vertex="1"><mxGeometry x="944.18" y="21820" width="20" height="20" as="geometry"/></mxCell><mxCell id="768" value="&lt;font style=&quot;font-size: 15px&quot;&gt;2&lt;/font&gt;" style="rounded=0;whiteSpace=wrap;html=1;sketch=1;fillColor=#d5e8d4;strokeColor=#82b366;fontSize=20;fontStyle=1;direction=east;rotation=0;fontFamily=Helvetica;fontColor=#1A1A1A;" parent="1" vertex="1"><mxGeometry x="1105.4299999999998" y="21782" width="24" height="22" as="geometry"/></mxCell><mxCell id="769" value="&lt;font style=&quot;font-size: 20px&quot;&gt;&lt;b&gt;right =&amp;nbsp;&lt;/b&gt;&lt;/font&gt;" style="text;html=1;align=center;verticalAlign=middle;resizable=0;points=[];autosize=1;fontSize=9;fontFamily=Courier New;fontColor=#1A1A1A;" parent="1" vertex="1"><mxGeometry x="1009.1799999999998" y="21784" width="106" height="18" as="geometry"/></mxCell><mxCell id="770" style="edgeStyle=orthogonalEdgeStyle;curved=1;rounded=0;sketch=1;orthogonalLoop=1;jettySize=auto;html=1;entryX=1;entryY=0.5;entryDx=0;entryDy=0;entryPerimeter=0;shadow=0;endArrow=classic;endFill=1;fontFamily=Helvetica;fontSize=13;fontColor=#1A1A1A;fillColor=#d5e8d4;strokeWidth=3;exitX=1;exitY=0.5;exitDx=0;exitDy=0;exitPerimeter=0;strokeColor=#C9B744;" parent="1" edge="1"><mxGeometry relative="1" as="geometry"><mxPoint x="602.6800000000001" y="21837" as="sourcePoint"/><mxPoint x="602.6800000000001" y="21776" as="targetPoint"/><Array as="points"><mxPoint x="666.42" y="21837"/><mxPoint x="666.42" y="21776"/></Array></mxGeometry></mxCell><mxCell id="771" value="&lt;font style=&quot;font-size: 20px&quot;&gt;&lt;b&gt;mergeSort(&amp;nbsp; &amp;nbsp;)&amp;nbsp;&lt;/b&gt;&lt;/font&gt;" style="text;html=1;align=left;verticalAlign=middle;resizable=0;points=[];autosize=1;fontSize=9;fontFamily=Courier New;fontColor=#1A1A1A;" parent="1" vertex="1"><mxGeometry x="642.93" y="21755" width="190" height="18" as="geometry"/></mxCell><mxCell id="772" value="&lt;font style=&quot;font-size: 15px&quot;&gt;2&lt;/font&gt;" style="rounded=0;whiteSpace=wrap;html=1;sketch=1;fillColor=#d5e8d4;strokeColor=#82b366;fontSize=20;fontStyle=1;direction=east;rotation=0;fontFamily=Helvetica;fontColor=#1A1A1A;" parent="1" vertex="1"><mxGeometry x="770" y="21755" width="24" height="22" as="geometry"/></mxCell><mxCell id="773" value="&lt;font style=&quot;font-size: 20px&quot;&gt;&lt;b&gt;left =&amp;nbsp;&lt;/b&gt;&lt;/font&gt;" style="text;html=1;align=right;verticalAlign=middle;resizable=0;points=[];autosize=1;fontSize=9;fontFamily=Courier New;fontColor=#1A1A1A;" parent="1" vertex="1"><mxGeometry x="357.5" y="21879" width="94" height="18" as="geometry"/></mxCell><mxCell id="774" value="&lt;font style=&quot;font-size: 15px&quot;&gt;1&lt;/font&gt;" style="rounded=0;whiteSpace=wrap;html=1;sketch=1;fillColor=#d5e8d4;strokeColor=#82b366;fontSize=20;fontStyle=1;direction=east;rotation=0;fontFamily=Helvetica;fontColor=#1A1A1A;" parent="1" vertex="1"><mxGeometry x="445.6600000000001" y="21877" width="24" height="22" as="geometry"/></mxCell><mxCell id="775" value="&lt;font style=&quot;font-size: 15px&quot;&gt;3&lt;/font&gt;" style="rounded=0;whiteSpace=wrap;html=1;sketch=1;fillColor=#d5e8d4;strokeColor=#82b366;fontSize=20;fontStyle=1;direction=east;rotation=0;fontFamily=Helvetica;fontColor=#1A1A1A;" parent="1" vertex="1"><mxGeometry x="470.09000000000015" y="21877" width="24" height="22" as="geometry"/></mxCell><mxCell id="776" value="&lt;font style=&quot;font-size: 20px&quot;&gt;&lt;b&gt;left =&amp;nbsp;&lt;/b&gt;&lt;/font&gt;" style="text;html=1;align=right;verticalAlign=middle;resizable=0;points=[];autosize=1;fontSize=9;fontFamily=Courier New;fontColor=#1A1A1A;" parent="1" vertex="1"><mxGeometry x="754.75" y="21909" width="94" height="18" as="geometry"/></mxCell><mxCell id="777" value="&lt;font style=&quot;font-size: 15px&quot;&gt;1&lt;/font&gt;" style="rounded=0;whiteSpace=wrap;html=1;sketch=1;fillColor=#d5e8d4;strokeColor=#82b366;fontSize=20;fontStyle=1;direction=east;rotation=0;fontFamily=Helvetica;fontColor=#1A1A1A;" parent="1" vertex="1"><mxGeometry x="842.9100000000001" y="21907" width="24" height="22" as="geometry"/></mxCell><mxCell id="778" value="&lt;font style=&quot;font-size: 15px&quot;&gt;3&lt;/font&gt;" style="rounded=0;whiteSpace=wrap;html=1;sketch=1;fillColor=#d5e8d4;strokeColor=#82b366;fontSize=20;fontStyle=1;direction=east;rotation=0;fontFamily=Helvetica;fontColor=#1A1A1A;" parent="1" vertex="1"><mxGeometry x="867.34" y="21907" width="24" height="22" as="geometry"/></mxCell><mxCell id="779" value="&lt;font style=&quot;font-size: 15px&quot;&gt;4&lt;/font&gt;" style="rounded=0;whiteSpace=wrap;html=1;sketch=1;fillColor=#d5e8d4;strokeColor=#82b366;fontSize=20;fontStyle=1;direction=east;rotation=0;fontFamily=Helvetica;fontColor=#1A1A1A;" parent="1" vertex="1"><mxGeometry x="470.44" y="21817" width="24" height="22" as="geometry"/></mxCell><mxCell id="780" value="&lt;font style=&quot;font-size: 20px&quot;&gt;&lt;b&gt;left =&amp;nbsp;&lt;/b&gt;&lt;/font&gt;" style="text;html=1;align=center;verticalAlign=middle;resizable=0;points=[];autosize=1;fontSize=9;fontFamily=Courier New;fontColor=#1A1A1A;" parent="1" vertex="1"><mxGeometry x="380.19" y="21819" width="94" height="18" as="geometry"/></mxCell><mxCell id="781" value="&lt;font style=&quot;font-size: 15px&quot;&gt;4&lt;/font&gt;" style="rounded=0;whiteSpace=wrap;html=1;sketch=1;fillColor=#d5e8d4;strokeColor=#82b366;fontSize=20;fontStyle=1;direction=east;rotation=0;fontFamily=Helvetica;fontColor=#1A1A1A;" parent="1" vertex="1"><mxGeometry x="868.18" y="21844" width="24" height="22" as="geometry"/></mxCell><mxCell id="782" value="&lt;font style=&quot;font-size: 20px&quot;&gt;&lt;b&gt;left =&amp;nbsp;&lt;/b&gt;&lt;/font&gt;" style="text;html=1;align=center;verticalAlign=middle;resizable=0;points=[];autosize=1;fontSize=9;fontFamily=Courier New;fontColor=#1A1A1A;" parent="1" vertex="1"><mxGeometry x="777.93" y="21846" width="94" height="18" as="geometry"/></mxCell><mxCell id="783" value="" style="shape=cylinder3;whiteSpace=wrap;html=1;boundedLbl=1;backgroundOutline=1;size=15;lid=0;sketch=1;strokeColor=#1A1A1A;strokeWidth=3;fillColor=none;gradientColor=none;fontFamily=Verdana;fontSize=10;" parent="1" vertex="1"><mxGeometry x="308.66999999999996" y="22018" width="115.5" height="294" as="geometry"/></mxCell><mxCell id="784" value="&lt;pre&gt;&lt;font color=&quot;#1a1a1a&quot; style=&quot;font-size: 15px&quot;&gt;mergeSort&lt;/font&gt;&lt;/pre&gt;" style="shape=cylinder3;whiteSpace=wrap;html=1;boundedLbl=1;backgroundOutline=1;size=15;sketch=0;strokeColor=#b46504;strokeWidth=3;fillColor=#fad7ac;fontFamily=Verdana;fontSize=10;spacingTop=-30;" parent="1" vertex="1"><mxGeometry x="316.66999999999996" y="22225" width="96.5" height="80" as="geometry"/></mxCell><mxCell id="785" value="&lt;pre&gt;&lt;font color=&quot;#1a1a1a&quot; style=&quot;font-size: 15px&quot;&gt;mergeSort&lt;/font&gt;&lt;/pre&gt;" style="shape=cylinder3;whiteSpace=wrap;html=1;boundedLbl=1;backgroundOutline=1;size=15;sketch=0;strokeColor=#23445d;strokeWidth=3;fillColor=#bac8d3;fontFamily=Verdana;fontSize=10;spacingTop=-30;" parent="1" vertex="1"><mxGeometry x="316.66999999999996" y="22164" width="96.5" height="80" as="geometry"/></mxCell><mxCell id="788" value="" style="group" parent="1" vertex="1" connectable="0"><mxGeometry x="326.41999999999996" y="22274" width="80" height="20" as="geometry"/></mxCell><mxCell id="789" value="" style="group" parent="788" vertex="1" connectable="0"><mxGeometry width="80" height="20" as="geometry"/></mxCell><mxCell id="790" value="3" style="rounded=0;whiteSpace=wrap;html=1;sketch=0;fontSize=13;fontStyle=0;direction=east;rotation=0;fontFamily=Helvetica;verticalAlign=middle;fillColor=none;fontColor=#1A1A1A;strokeColor=#4D4D4D;" parent="789" vertex="1"><mxGeometry width="20" height="20" as="geometry"/></mxCell><mxCell id="791" value="1" style="rounded=0;whiteSpace=wrap;html=1;sketch=0;fontSize=13;fontStyle=0;direction=east;rotation=0;fontFamily=Helvetica;verticalAlign=middle;fillColor=none;fontColor=#1A1A1A;strokeColor=#4D4D4D;" parent="789" vertex="1"><mxGeometry x="20" width="20" height="20" as="geometry"/></mxCell><mxCell id="792" value="4" style="rounded=0;whiteSpace=wrap;html=1;sketch=0;fontSize=13;fontStyle=0;direction=east;rotation=0;fontFamily=Helvetica;verticalAlign=middle;fillColor=none;fontColor=#1A1A1A;strokeColor=#4D4D4D;" parent="789" vertex="1"><mxGeometry x="40" width="20" height="20" as="geometry"/></mxCell><mxCell id="793" value="2" style="rounded=0;whiteSpace=wrap;html=1;sketch=0;fontSize=13;fontStyle=0;direction=east;rotation=0;fontFamily=Helvetica;verticalAlign=middle;fillColor=none;fontColor=#1A1A1A;strokeColor=#4D4D4D;" parent="789" vertex="1"><mxGeometry x="60" width="20" height="20" as="geometry"/></mxCell><mxCell id="794" value="4" style="rounded=0;whiteSpace=wrap;html=1;sketch=0;fontSize=13;fontStyle=0;direction=east;rotation=0;fontFamily=Helvetica;verticalAlign=middle;fillColor=none;fontColor=#1A1A1A;strokeColor=#4D4D4D;" parent="1" vertex="1"><mxGeometry x="346.41999999999996" y="22216" width="20" height="20" as="geometry"/></mxCell><mxCell id="795" value="2" style="rounded=0;whiteSpace=wrap;html=1;sketch=0;fontSize=13;fontStyle=0;direction=east;rotation=0;fontFamily=Helvetica;verticalAlign=middle;fillColor=none;fontColor=#1A1A1A;strokeColor=#4D4D4D;" parent="1" vertex="1"><mxGeometry x="366.41999999999996" y="22216" width="20" height="20" as="geometry"/></mxCell><mxCell id="797" value="&lt;font style=&quot;font-size: 15px&quot;&gt;2&lt;/font&gt;" style="rounded=0;whiteSpace=wrap;html=1;sketch=1;fillColor=#d5e8d4;strokeColor=#82b366;fontSize=20;fontStyle=1;direction=east;rotation=0;fontFamily=Helvetica;fontColor=#1A1A1A;" parent="1" vertex="1"><mxGeometry x="279.22999999999996" y="22209" width="24" height="22" as="geometry"/></mxCell><mxCell id="798" value="&lt;font style=&quot;font-size: 20px&quot;&gt;&lt;b&gt;right =&amp;nbsp;&lt;/b&gt;&lt;/font&gt;" style="text;html=1;align=center;verticalAlign=middle;resizable=0;points=[];autosize=1;fontSize=9;fontFamily=Courier New;fontColor=#1A1A1A;" parent="1" vertex="1"><mxGeometry x="182.97999999999996" y="22211" width="106" height="18" as="geometry"/></mxCell><mxCell id="799" value="&lt;font style=&quot;font-size: 20px&quot;&gt;&lt;b&gt;left =&amp;nbsp;&lt;/b&gt;&lt;/font&gt;" style="text;html=1;align=right;verticalAlign=middle;resizable=0;points=[];autosize=1;fontSize=9;fontFamily=Courier New;fontColor=#1A1A1A;" parent="1" vertex="1"><mxGeometry x="166.99" y="22246" width="94" height="18" as="geometry"/></mxCell><mxCell id="800" value="&lt;font style=&quot;font-size: 15px&quot;&gt;1&lt;/font&gt;" style="rounded=0;whiteSpace=wrap;html=1;sketch=1;fillColor=#d5e8d4;strokeColor=#82b366;fontSize=20;fontStyle=1;direction=east;rotation=0;fontFamily=Helvetica;fontColor=#1A1A1A;" parent="1" vertex="1"><mxGeometry x="255.1500000000001" y="22244" width="24" height="22" as="geometry"/></mxCell><mxCell id="801" value="&lt;font style=&quot;font-size: 15px&quot;&gt;3&lt;/font&gt;" style="rounded=0;whiteSpace=wrap;html=1;sketch=1;fillColor=#d5e8d4;strokeColor=#82b366;fontSize=20;fontStyle=1;direction=east;rotation=0;fontFamily=Helvetica;fontColor=#1A1A1A;" parent="1" vertex="1"><mxGeometry x="279.5800000000001" y="22244" width="24" height="22" as="geometry"/></mxCell><mxCell id="802" value="&lt;font style=&quot;font-size: 15px&quot;&gt;4&lt;/font&gt;" style="rounded=0;whiteSpace=wrap;html=1;sketch=1;fillColor=#d5e8d4;strokeColor=#82b366;fontSize=20;fontStyle=1;direction=east;rotation=0;fontFamily=Helvetica;fontColor=#1A1A1A;" parent="1" vertex="1"><mxGeometry x="280.42" y="22181" width="24" height="22" as="geometry"/></mxCell><mxCell id="803" value="&lt;font style=&quot;font-size: 20px&quot;&gt;&lt;b&gt;left =&amp;nbsp;&lt;/b&gt;&lt;/font&gt;" style="text;html=1;align=center;verticalAlign=middle;resizable=0;points=[];autosize=1;fontSize=9;fontFamily=Courier New;fontColor=#1A1A1A;" parent="1" vertex="1"><mxGeometry x="190.17000000000002" y="22183" width="94" height="18" as="geometry"/></mxCell><mxCell id="804" style="edgeStyle=orthogonalEdgeStyle;curved=1;rounded=0;sketch=1;orthogonalLoop=1;jettySize=auto;html=1;entryX=1;entryY=0.5;entryDx=0;entryDy=0;entryPerimeter=0;shadow=0;endArrow=classic;endFill=1;fontFamily=Helvetica;fontSize=13;fontColor=#1A1A1A;fillColor=#d5e8d4;strokeWidth=3;strokeColor=#3DC94A;" parent="1" edge="1"><mxGeometry relative="1" as="geometry"><mxPoint x="412.26" y="22200" as="sourcePoint"/><mxPoint x="412.26" y="22260" as="targetPoint"/><Array as="points"><mxPoint x="469.13" y="22200"/><mxPoint x="469.13" y="22260"/></Array></mxGeometry></mxCell><mxCell id="805" value="&lt;font style=&quot;font-size: 20px&quot;&gt;&lt;b&gt;merge(left, right)=&amp;nbsp;&lt;/b&gt;&lt;/font&gt;" style="text;html=1;align=center;verticalAlign=middle;resizable=0;points=[];autosize=1;fontSize=9;fontFamily=Courier New;fontColor=#1A1A1A;" parent="1" vertex="1"><mxGeometry x="427.9599999999999" y="22176" width="250" height="18" as="geometry"/></mxCell><mxCell id="806" value="&lt;font style=&quot;font-size: 15px&quot;&gt;2&lt;/font&gt;" style="rounded=0;whiteSpace=wrap;html=1;sketch=1;fillColor=#d5e8d4;strokeColor=#82b366;fontSize=20;fontStyle=1;direction=east;rotation=0;fontFamily=Helvetica;fontColor=#1A1A1A;" parent="1" vertex="1"><mxGeometry x="669.96" y="22174" width="24" height="22" as="geometry"/></mxCell><mxCell id="807" value="&lt;font style=&quot;font-size: 15px&quot;&gt;4&lt;/font&gt;" style="rounded=0;whiteSpace=wrap;html=1;sketch=1;fillColor=#d5e8d4;strokeColor=#82b366;fontSize=20;fontStyle=1;direction=east;rotation=0;fontFamily=Helvetica;fontColor=#1A1A1A;" parent="1" vertex="1"><mxGeometry x="694.3900000000001" y="22174" width="24" height="22" as="geometry"/></mxCell><mxCell id="808" value="" style="shape=cylinder3;whiteSpace=wrap;html=1;boundedLbl=1;backgroundOutline=1;size=15;lid=0;sketch=1;strokeColor=#1A1A1A;strokeWidth=3;fillColor=none;gradientColor=none;fontFamily=Verdana;fontSize=10;" parent="1" vertex="1"><mxGeometry x="166.05999999999997" y="22405" width="115.5" height="294" as="geometry"/></mxCell><mxCell id="809" value="&lt;pre&gt;&lt;font color=&quot;#1a1a1a&quot; style=&quot;font-size: 15px&quot;&gt;mergeSort&lt;/font&gt;&lt;/pre&gt;" style="shape=cylinder3;whiteSpace=wrap;html=1;boundedLbl=1;backgroundOutline=1;size=15;sketch=0;strokeColor=#b46504;strokeWidth=3;fillColor=#fad7ac;fontFamily=Verdana;fontSize=10;spacingTop=-30;" parent="1" vertex="1"><mxGeometry x="174.05999999999997" y="22612" width="96.5" height="80" as="geometry"/></mxCell><mxCell id="811" value="" style="group" parent="1" vertex="1" connectable="0"><mxGeometry x="183.80999999999997" y="22661" width="80" height="20" as="geometry"/></mxCell><mxCell id="812" value="" style="group" parent="811" vertex="1" connectable="0"><mxGeometry width="80" height="20" as="geometry"/></mxCell><mxCell id="813" value="3" style="rounded=0;whiteSpace=wrap;html=1;sketch=0;fontSize=13;fontStyle=0;direction=east;rotation=0;fontFamily=Helvetica;verticalAlign=middle;fillColor=none;fontColor=#1A1A1A;strokeColor=#4D4D4D;" parent="812" vertex="1"><mxGeometry width="20" height="20" as="geometry"/></mxCell><mxCell id="814" value="1" style="rounded=0;whiteSpace=wrap;html=1;sketch=0;fontSize=13;fontStyle=0;direction=east;rotation=0;fontFamily=Helvetica;verticalAlign=middle;fillColor=none;fontColor=#1A1A1A;strokeColor=#4D4D4D;" parent="812" vertex="1"><mxGeometry x="20" width="20" height="20" as="geometry"/></mxCell><mxCell id="815" value="4" style="rounded=0;whiteSpace=wrap;html=1;sketch=0;fontSize=13;fontStyle=0;direction=east;rotation=0;fontFamily=Helvetica;verticalAlign=middle;fillColor=none;fontColor=#1A1A1A;strokeColor=#4D4D4D;" parent="812" vertex="1"><mxGeometry x="40" width="20" height="20" as="geometry"/></mxCell><mxCell id="816" value="2" style="rounded=0;whiteSpace=wrap;html=1;sketch=0;fontSize=13;fontStyle=0;direction=east;rotation=0;fontFamily=Helvetica;verticalAlign=middle;fillColor=none;fontColor=#1A1A1A;strokeColor=#4D4D4D;" parent="812" vertex="1"><mxGeometry x="60" width="20" height="20" as="geometry"/></mxCell><mxCell id="821" value="&lt;font style=&quot;font-size: 20px&quot;&gt;&lt;b&gt;left =&amp;nbsp;&lt;/b&gt;&lt;/font&gt;" style="text;html=1;align=right;verticalAlign=middle;resizable=0;points=[];autosize=1;fontSize=9;fontFamily=Courier New;fontColor=#1A1A1A;" parent="1" vertex="1"><mxGeometry x="24.380000000000003" y="22633" width="94" height="18" as="geometry"/></mxCell><mxCell id="822" value="&lt;font style=&quot;font-size: 15px&quot;&gt;1&lt;/font&gt;" style="rounded=0;whiteSpace=wrap;html=1;sketch=1;fillColor=#d5e8d4;strokeColor=#82b366;fontSize=20;fontStyle=1;direction=east;rotation=0;fontFamily=Helvetica;fontColor=#1A1A1A;" parent="1" vertex="1"><mxGeometry x="112.54000000000008" y="22631" width="24" height="22" as="geometry"/></mxCell><mxCell id="823" value="&lt;font style=&quot;font-size: 15px&quot;&gt;3&lt;/font&gt;" style="rounded=0;whiteSpace=wrap;html=1;sketch=1;fillColor=#d5e8d4;strokeColor=#82b366;fontSize=20;fontStyle=1;direction=east;rotation=0;fontFamily=Helvetica;fontColor=#1A1A1A;" parent="1" vertex="1"><mxGeometry x="136.9700000000001" y="22631" width="24" height="22" as="geometry"/></mxCell><mxCell id="830" value="&lt;font style=&quot;font-size: 20px&quot;&gt;&lt;b&gt;right =&amp;nbsp;&lt;/b&gt;&lt;/font&gt;" style="text;html=1;align=right;verticalAlign=middle;resizable=0;points=[];autosize=1;fontSize=9;fontFamily=Courier New;fontColor=#1A1A1A;" parent="1" vertex="1"><mxGeometry x="16.770000000000003" y="22663" width="106" height="18" as="geometry"/></mxCell><mxCell id="831" value="&lt;font style=&quot;font-size: 15px&quot;&gt;2&lt;/font&gt;" style="rounded=0;whiteSpace=wrap;html=1;sketch=1;fillColor=#d5e8d4;strokeColor=#82b366;fontSize=20;fontStyle=1;direction=east;rotation=0;fontFamily=Helvetica;fontColor=#1A1A1A;" parent="1" vertex="1"><mxGeometry x="113.93000000000008" y="22661" width="24" height="22" as="geometry"/></mxCell><mxCell id="832" value="&lt;font style=&quot;font-size: 15px&quot;&gt;4&lt;/font&gt;" style="rounded=0;whiteSpace=wrap;html=1;sketch=1;fillColor=#d5e8d4;strokeColor=#82b366;fontSize=20;fontStyle=1;direction=east;rotation=0;fontFamily=Helvetica;fontColor=#1A1A1A;" parent="1" vertex="1"><mxGeometry x="138.3600000000001" y="22661" width="24" height="22" as="geometry"/></mxCell><mxCell id="834" style="edgeStyle=orthogonalEdgeStyle;curved=1;rounded=0;sketch=1;orthogonalLoop=1;jettySize=auto;html=1;shadow=0;endArrow=classic;endFill=1;fontFamily=Helvetica;fontSize=13;fontColor=#1A1A1A;fillColor=#d5e8d4;strokeWidth=3;strokeColor=#3DC94A;exitX=1;exitY=0.5;exitDx=0;exitDy=0;exitPerimeter=0;" parent="1" source="809" edge="1"><mxGeometry relative="1" as="geometry"><mxPoint x="279.00000000000006" y="22256" as="sourcePoint"/><mxPoint x="449.56" y="22646" as="targetPoint"/><Array as="points"><mxPoint x="270.56" y="22646"/></Array></mxGeometry></mxCell><mxCell id="835" value="&lt;font style=&quot;font-size: 20px&quot;&gt;&lt;b&gt;merge(left, right)=&amp;nbsp;&lt;/b&gt;&lt;/font&gt;" style="text;html=1;align=center;verticalAlign=middle;resizable=0;points=[];autosize=1;fontSize=9;fontFamily=Courier New;fontColor=#1A1A1A;" parent="1" vertex="1"><mxGeometry x="292.76" y="22613" width="250" height="18" as="geometry"/></mxCell><mxCell id="836" value="&lt;font style=&quot;font-size: 15px&quot;&gt;1&lt;/font&gt;" style="rounded=0;whiteSpace=wrap;html=1;sketch=1;fillColor=#d5e8d4;strokeColor=#82b366;fontSize=20;fontStyle=1;direction=east;rotation=0;fontFamily=Helvetica;fontColor=#1A1A1A;" parent="1" vertex="1"><mxGeometry x="532" y="22611" width="24" height="22" as="geometry"/></mxCell><mxCell id="837" value="&lt;font style=&quot;font-size: 15px&quot;&gt;2&lt;/font&gt;" style="rounded=0;whiteSpace=wrap;html=1;sketch=1;fillColor=#d5e8d4;strokeColor=#82b366;fontSize=20;fontStyle=1;direction=east;rotation=0;fontFamily=Helvetica;fontColor=#1A1A1A;" parent="1" vertex="1"><mxGeometry x="556.4300000000001" y="22611" width="24" height="22" as="geometry"/></mxCell><mxCell id="838" value="&lt;font style=&quot;font-size: 15px&quot;&gt;3&lt;/font&gt;" style="rounded=0;whiteSpace=wrap;html=1;sketch=1;fillColor=#d5e8d4;strokeColor=#82b366;fontSize=20;fontStyle=1;direction=east;rotation=0;fontFamily=Helvetica;fontColor=#1A1A1A;" parent="1" vertex="1"><mxGeometry x="580.31" y="22611" width="24" height="22" as="geometry"/></mxCell><mxCell id="839" value="&lt;font style=&quot;font-size: 15px&quot;&gt;4&lt;/font&gt;" style="rounded=0;whiteSpace=wrap;html=1;sketch=1;fillColor=#d5e8d4;strokeColor=#82b366;fontSize=20;fontStyle=1;direction=east;rotation=0;fontFamily=Helvetica;fontColor=#1A1A1A;" parent="1" vertex="1"><mxGeometry x="604.74" y="22611" width="24" height="22" as="geometry"/></mxCell><mxCell id="860" value="" style="shape=cylinder3;whiteSpace=wrap;html=1;boundedLbl=1;backgroundOutline=1;size=15;lid=0;sketch=1;strokeColor=#1A1A1A;strokeWidth=3;fillColor=none;gradientColor=none;fontFamily=Verdana;fontSize=10;" parent="1" vertex="1"><mxGeometry x="167.00999999999996" y="22727" width="115.5" height="294" as="geometry"/></mxCell><mxCell id="880" value="" style="group;direction=east;rotation=0;fillColor=#d5e8d4;strokeColor=#82b366;fontStyle=1;fontFamily=Helvetica;sketch=1;" parent="1" vertex="1" connectable="0"><mxGeometry x="331.44" y="22943" width="56.5" height="53" as="geometry"/></mxCell><mxCell id="881" value="1" style="rounded=0;whiteSpace=wrap;html=1;sketch=1;fillColor=#d5e8d4;strokeColor=#82b366;fontSize=20;fontStyle=1;direction=east;rotation=0;fontFamily=Helvetica;fontColor=#1A1A1A;" parent="880" vertex="1"><mxGeometry width="56.49999999999998" height="53" as="geometry"/></mxCell><mxCell id="882" value="" style="group;direction=east;rotation=0;fillColor=#d5e8d4;strokeColor=#82b366;fontStyle=1;fontFamily=Helvetica;sketch=1;" parent="1" vertex="1" connectable="0"><mxGeometry x="388" y="22943" width="56.5" height="53" as="geometry"/></mxCell><mxCell id="883" value="2" style="rounded=0;whiteSpace=wrap;html=1;sketch=1;fillColor=#d5e8d4;strokeColor=#82b366;fontSize=20;fontStyle=1;direction=east;rotation=0;fontFamily=Helvetica;fontColor=#1A1A1A;" parent="882" vertex="1"><mxGeometry width="56.49999999999998" height="53" as="geometry"/></mxCell><mxCell id="884" value="" style="group;direction=east;rotation=0;fillColor=#d5e8d4;strokeColor=#82b366;fontStyle=1;fontFamily=Helvetica;sketch=1;" parent="1" vertex="1" connectable="0"><mxGeometry x="444.19" y="22943" width="56.5" height="53" as="geometry"/></mxCell><mxCell id="885" value="3" style="rounded=0;whiteSpace=wrap;html=1;sketch=1;fillColor=#d5e8d4;strokeColor=#82b366;fontSize=20;fontStyle=1;direction=east;rotation=0;fontFamily=Helvetica;fontColor=#1A1A1A;" parent="884" vertex="1"><mxGeometry width="56.49999999999998" height="53" as="geometry"/></mxCell><mxCell id="886" value="" style="group;direction=east;rotation=0;fillColor=#d5e8d4;strokeColor=#82b366;fontStyle=1;fontFamily=Helvetica;sketch=1;" parent="1" vertex="1" connectable="0"><mxGeometry x="500.69" y="22943" width="56.5" height="53" as="geometry"/></mxCell><mxCell id="887" value="4" style="rounded=0;whiteSpace=wrap;html=1;sketch=1;fillColor=#d5e8d4;strokeColor=#82b366;fontSize=20;fontStyle=1;direction=east;rotation=0;fontFamily=Helvetica;fontColor=#1A1A1A;" parent="886" vertex="1"><mxGeometry width="56.49999999999998" height="53" as="geometry"/></mxCell><mxCell id="910" value="&lt;span style=&quot;font-size: 20px&quot;&gt;&lt;b&gt;ordered array:&lt;/b&gt;&lt;/span&gt;" style="text;html=1;align=left;verticalAlign=middle;resizable=0;points=[];autosize=1;fontSize=9;fontFamily=Courier New;fontColor=#1A1A1A;" vertex="1" parent="1"><mxGeometry x="333.13" y="22908" width="178" height="18" as="geometry"/></mxCell><mxCell id="911" value="&lt;font style=&quot;font-size: 28px;&quot; color=&quot;#1a1a1a&quot;&gt;Call stack&lt;/font&gt;" style="shape=cylinder3;whiteSpace=wrap;html=1;boundedLbl=1;backgroundOutline=1;size=15;lid=0;sketch=1;strokeColor=#1A1A1A;strokeWidth=3;fillColor=none;gradientColor=none;fontFamily=Comic Sans MS;fontSize=28;horizontal=1;" vertex="1" parent="1"><mxGeometry x="164" y="18430" width="115.5" height="294" as="geometry"/></mxCell><mxCell id="912" value="&lt;pre&gt;&lt;span style=&quot;color: rgb(26 , 26 , 26) ; font-family: &amp;#34;comic sans ms&amp;#34; ; font-size: 28px&quot;&gt;method call&lt;/span&gt;&lt;br&gt;&lt;/pre&gt;" style="shape=cylinder3;whiteSpace=wrap;html=1;boundedLbl=1;backgroundOutline=1;size=15;sketch=0;strokeColor=#b46504;strokeWidth=3;fillColor=#fad7ac;fontFamily=Verdana;fontSize=10;spacingTop=-30;labelPosition=right;verticalLabelPosition=middle;align=left;verticalAlign=middle;spacingLeft=10;" vertex="1" parent="1"><mxGeometry x="319.56" y="18452" width="96.5" height="80" as="geometry"/></mxCell></root></mxGraphModel></diagram></mxfile>